<?xml version="1.0" encoding="UTF-8"?>
<svg version="1.1" xmlns="http://www.w3.org/2000/svg" width="1000" height="1000">
<path d="M0 0 C1.2749231 -0.0033284 2.54984619 -0.0066568 3.86340332 -0.01008606 C6.55285147 -0.01512852 9.24219844 -0.01793043 11.93164062 -0.01733398 C14.6504588 -0.01725307 17.36910726 -0.02414619 20.08789062 -0.0378418 C41.38167422 -0.1431142 61.13108895 0.964352 81.84375 5.85546875 C82.6009433 6.03159698 83.3581366 6.20772522 84.13827515 6.38919067 C96.53071137 9.28136088 108.63737046 12.60297333 120.53125 17.16796875 C121.44148926 17.51472656 122.35172852 17.86148438 123.28955078 18.21875 C133.93714333 22.31913264 144.24490846 26.76172208 154.20703125 32.33203125 C157.37448025 34.08138616 160.58127261 35.66745677 163.84375 37.23046875 C168.56878336 39.56771787 172.76884726 42.27853305 177.02734375 45.375 C179.68326549 47.27682227 182.39767019 49.043718 185.15625 50.79296875 C186.06246094 51.36917969 186.96867187 51.94539063 187.90234375 52.5390625 C189.58492316 53.5816117 191.28447983 54.59753584 193.00390625 55.578125 C193.73480469 55.99964844 194.46570313 56.42117187 195.21875 56.85546875 C196.18361328 57.38720703 196.18361328 57.38720703 197.16796875 57.9296875 C197.61785156 58.33832031 198.06773437 58.74695313 198.53125 59.16796875 C198.53125 60.48796875 198.53125 61.80796875 198.53125 63.16796875 C197.1429135 64.11610099 195.74418474 65.05207681 194.30078125 65.9140625 C192.22454599 67.38530206 190.78985413 69.03141003 189.15625 70.98046875 C186.77764468 73.81488611 184.35947372 76.28199623 181.53125 78.66796875 C178.76855159 81.00563664 176.36891789 83.40527034 174.03125 86.16796875 C171.1208149 89.60757386 167.96542326 92.45508395 164.53125 95.359375 C161.22109864 98.35273453 158.37995578 101.74061961 155.53125 105.16796875 C151.59478196 104.47329792 148.81812316 103.51573529 145.53125 101.16796875 C145.53125 100.50796875 145.53125 99.84796875 145.53125 99.16796875 C144.8609375 98.925625 144.190625 98.68328125 143.5 98.43359375 C139.83050094 96.86922836 136.47780958 94.91670013 133.03125 92.91796875 C117.06391765 83.81693536 100.29710115 76.82158153 82.53125 72.16796875 C82.53125 71.50796875 82.53125 70.84796875 82.53125 70.16796875 C81.22929688 70.04292969 79.92734375 69.91789062 78.5859375 69.7890625 C73.12225985 69.18210573 67.85523491 67.99810838 62.515625 66.71679688 C47.34762793 63.31305692 31.76657984 62.78884743 16.28125 62.85546875 C15.01547119 62.85720596 15.01547119 62.85720596 13.72412109 62.85897827 C0.13005661 62.89569559 -13.07386906 63.72074389 -26.46875 66.16796875 C-27.8527694 66.3990084 -29.23687894 66.62950902 -30.62109375 66.859375 C-39.82965191 68.5224273 -48.62331341 71.17343065 -57.46875 74.16796875 C-58.19980957 74.41482422 -58.93086914 74.66167969 -59.68408203 74.91601562 C-69.89707995 78.3862368 -69.89707995 78.3862368 -79.84375 82.54296875 C-83.46875 84.16796875 -83.46875 84.16796875 -86.46875 84.16796875 C-86.46875 84.82796875 -86.46875 85.48796875 -86.46875 86.16796875 C-87.99242187 86.91240234 -87.99242187 86.91240234 -89.546875 87.671875 C-103.63479894 94.38872036 -103.63479894 94.38872036 -116.671875 102.8671875 C-118.46875 104.16796875 -118.46875 104.16796875 -120.46875 104.16796875 C-120.46875 104.82796875 -120.46875 105.48796875 -120.46875 106.16796875 C-122.19296427 107.3828226 -123.97509884 108.51615579 -125.78125 109.60546875 C-129.06646439 111.59377497 -131.7738773 113.45651221 -134.46875 116.16796875 C-135.12875 116.16796875 -135.78875 116.16796875 -136.46875 116.16796875 C-136.79875 117.15796875 -137.12875 118.14796875 -137.46875 119.16796875 C-138.12875 119.16796875 -138.78875 119.16796875 -139.46875 119.16796875 C-139.46875 119.82796875 -139.46875 120.48796875 -139.46875 121.16796875 C-140.8671875 122.54296875 -140.8671875 122.54296875 -142.84375 124.16796875 C-148.00842735 128.55289908 -152.71629954 133.34574333 -157.46875 138.16796875 C-158.37238281 139.05226563 -159.27601563 139.9365625 -160.20703125 140.84765625 C-162.48736801 142.95181194 -162.48736801 142.95181194 -163.46875 145.16796875 C-164.46875 147.16796875 -164.46875 147.16796875 -166.6640625 149.28515625 C-170.04659089 152.60455059 -172.65257702 156.40801904 -175.34375 160.29296875 C-175.8696875 161.04707031 -176.395625 161.80117188 -176.9375 162.578125 C-182.87017594 171.12643886 -188.60719475 179.45411858 -192.46875 189.16796875 C-193.12875 189.16796875 -193.78875 189.16796875 -194.46875 189.16796875 C-194.64108154 189.71396729 -194.81341309 190.25996582 -194.9909668 190.82250977 C-196.79475201 196.40060687 -198.93248125 201.73815406 -201.28125 207.10546875 C-204.0447203 213.54739812 -206.57459691 220.01385297 -208.78125 226.66796875 C-209.01110596 227.36011475 -209.24096191 228.05226074 -209.4777832 228.76538086 C-212.59902119 238.40338889 -214.97159173 248.05301076 -216.65625 258.04296875 C-216.83349609 259.0484375 -217.01074219 260.05390625 -217.19335938 261.08984375 C-217.95343732 265.51531689 -218.56810424 269.66626349 -218.46875 274.16796875 C-219.12875 274.16796875 -219.78875 274.16796875 -220.46875 274.16796875 C-220.35146584 281.55538122 -220.22662986 288.94263782 -220.09643555 296.32983398 C-220.05300994 298.84510371 -220.01134071 301.36040438 -219.97143555 303.87573242 C-219.91391707 307.48235419 -219.85017033 311.08881906 -219.78515625 314.6953125 C-219.76844376 315.82758774 -219.75173126 316.95986298 -219.73451233 318.12644958 C-219.7045945 319.68795494 -219.7045945 319.68795494 -219.67407227 321.28100586 C-219.65075584 322.66333656 -219.65075584 322.66333656 -219.62696838 324.07359314 C-219.69852244 326.15547346 -219.69852244 326.15547346 -218.46875 327.16796875 C-218.30185604 328.72545652 -218.18385148 330.28822165 -218.0859375 331.8515625 C-217.51058642 338.78152074 -216.08948784 345.4485745 -214.59375 352.23046875 C-214.33722656 353.43251953 -214.08070313 354.63457031 -213.81640625 355.87304688 C-211.35684887 367.20060635 -208.05675322 377.52609275 -203.46875 388.16796875 C-202.62090706 390.1939323 -201.77325102 392.21997408 -200.92578125 394.24609375 C-195.10998879 407.90943946 -188.69366218 420.26762342 -180.1875 432.4296875 C-178.46875 435.16796875 -178.46875 435.16796875 -178.40625 437.79296875 C-179.8166952 440.94572861 -181.6883761 442.14587864 -184.46875 444.16796875 C-187.43667042 446.97968283 -190.13462122 449.93423019 -192.78125 453.04296875 C-195.82872051 456.57617146 -199.1311115 459.56496694 -202.6875 462.57421875 C-204.90781085 464.56081266 -206.63418228 466.82731339 -208.46875 469.16796875 C-210.11877828 470.52183811 -211.7861887 471.85475017 -213.46875 473.16796875 C-215.15490782 474.8149136 -216.82445171 476.47922996 -218.46875 478.16796875 C-219.12875 478.82796875 -219.78875 479.48796875 -220.46875 480.16796875 C-222.96875 480.10546875 -222.96875 480.10546875 -225.46875 479.16796875 C-226.78125 476.60546875 -226.78125 476.60546875 -227.46875 474.16796875 C-228.12875 474.16796875 -228.78875 474.16796875 -229.46875 474.16796875 C-230.9765625 472.05078125 -230.9765625 472.05078125 -232.59375 469.29296875 C-233.40199219 467.93558594 -233.40199219 467.93558594 -234.2265625 466.55078125 C-235.46875 464.16796875 -235.46875 464.16796875 -235.46875 462.16796875 C-236.12875 462.16796875 -236.78875 462.16796875 -237.46875 462.16796875 C-238.30723804 460.71259307 -239.13938934 459.25356502 -239.96875 457.79296875 C-240.4328125 456.98085938 -240.896875 456.16875 -241.375 455.33203125 C-242.46875 453.16796875 -242.46875 453.16796875 -242.46875 451.16796875 C-243.12875 451.16796875 -243.78875 451.16796875 -244.46875 451.16796875 C-244.74549561 450.58418457 -245.02224121 450.00040039 -245.30737305 449.39892578 C-246.58925812 446.69642925 -247.87274693 443.9946972 -249.15625 441.29296875 C-249.59130859 440.37515625 -250.02636719 439.45734375 -250.47460938 438.51171875 C-253.03341999 433.12873938 -255.64175042 427.77536987 -258.32373047 422.45263672 C-268.97641226 401.19724308 -275.4933662 377.54322552 -279.46875 354.16796875 C-279.83694808 352.39570865 -280.21107252 350.62465886 -280.59375 348.85546875 C-282.62311324 338.65850458 -282.63121449 328.36041827 -282.63671875 318 C-282.6399437 316.55189483 -282.64330863 315.10378997 -282.64680481 313.65568542 C-282.6527538 310.6343002 -282.65464915 307.61294339 -282.65405273 304.59155273 C-282.65395147 300.76738564 -282.66758601 296.94340568 -282.68482494 293.11928272 C-282.6960816 290.13080551 -282.6979678 287.14237157 -282.69744301 284.15387535 C-282.69860336 282.7464299 -282.70291193 281.33898257 -282.71077538 279.93155861 C-282.83946534 254.51784971 -277.90182842 229.16678859 -269.24267578 205.32568359 C-268.20783528 202.44053522 -267.27662244 199.52494405 -266.34375 196.60546875 C-263.16164329 187.08623039 -259.03841156 178.08784484 -254.46875 169.16796875 C-253.60412861 167.42478046 -252.73957578 165.68155747 -251.87670898 163.9375 C-248.89542023 157.92201445 -245.81139243 151.9906362 -242.46875 146.16796875 C-241.80875 146.16796875 -241.14875 146.16796875 -240.46875 146.16796875 C-240.22382813 145.30558594 -239.97890625 144.44320312 -239.7265625 143.5546875 C-238.36012167 139.87548191 -236.61972098 137.17237927 -234.34375 133.98046875 C-233.94776611 133.42238525 -233.55178223 132.86430176 -233.14379883 132.28930664 C-232.3264589 131.14053789 -231.50556785 129.99428751 -230.68115234 128.85058594 C-229.52514795 127.24623992 -228.38138744 125.6330927 -227.23828125 124.01953125 C-221.99959449 116.68733552 -221.99959449 116.68733552 -219.30078125 114.046875 C-217.23911838 112.20554187 -217.23911838 112.20554187 -216.46875 109.16796875 C-214.83886189 107.46531778 -213.16459841 105.80493354 -211.46875 104.16796875 C-209.44351614 102.04542022 -207.45693353 99.88769834 -205.46875 97.73046875 C-204.70691406 96.9096582 -204.70691406 96.9096582 -203.9296875 96.07226562 C-201.48599847 93.42493584 -199.10470568 90.75451097 -196.82421875 87.96484375 C-194.89681645 85.67625329 -193.06088641 83.76917654 -190.78125 81.85546875 C-187.6420307 79.18241171 -184.57384698 76.45071661 -181.53125 73.66796875 C-168.76881432 62.16796875 -168.76881432 62.16796875 -165.46875 62.16796875 C-165.46875 61.50796875 -165.46875 60.84796875 -165.46875 60.16796875 C-163.59204102 58.65917969 -163.59204102 58.65917969 -160.97265625 56.90234375 C-160.02068359 56.25910156 -159.06871094 55.61585938 -158.08789062 54.953125 C-157.07919922 54.28152344 -156.07050781 53.60992187 -155.03125 52.91796875 C-154.05736328 52.26183594 -153.08347656 51.60570312 -152.08007812 50.9296875 C-150.13900139 49.62351814 -148.19507928 48.32156699 -146.24829102 47.02392578 C-144.48308826 45.84526339 -142.722567 44.6595355 -140.96850586 43.46435547 C-136.73120564 40.58759056 -132.5284446 38.02750209 -127.90625 35.79296875 C-126.69508 35.20360255 -125.48415214 34.61373856 -124.2734375 34.0234375 C-123.34096191 33.57170166 -123.34096191 33.57170166 -122.38964844 33.11083984 C-120.42762109 32.14778066 -118.48229129 31.15665297 -116.5390625 30.15625 C-107.68774965 25.61314617 -98.78696682 21.66603731 -89.46875 18.16796875 C-88.29441406 17.72582031 -87.12007812 17.28367188 -85.91015625 16.828125 C-73.58673256 12.30816246 -61.11095976 9.02024168 -48.34375 6.04296875 C-47.25932617 5.789104 -46.17490234 5.53523926 -45.05761719 5.27368164 C-29.99523683 1.82083983 -15.44911618 0.01427507 0 0 Z " fill="#FFFFFF" transform="translate(470.46875,191.83203125)"/>
<path d="M0 0 C0.99 0 1.98 0 3 0 C3 4 3 4 1.125 6.25 C-1 8 -1 8 -3 8 C-3.04125 8.556875 -3.0825 9.11375 -3.125 9.6875 C-4.18671109 12.49345074 -5.77861753 13.50920665 -8.109375 15.296875 C-11.53717354 18.38472658 -14.22394248 22.13524567 -17.046875 25.76953125 C-17.69140625 26.50558594 -18.3359375 27.24164063 -19 28 C-19.66 28 -20.32 28 -21 28 C-21.4640625 28.928125 -21.4640625 28.928125 -21.9375 29.875 C-22.625 31.25 -23.3125 32.625 -24 34 C-24.66 34 -25.32 34 -26 34 C-26 34.66 -26 35.32 -26 36 C-27.1875 37.3125 -27.1875 37.3125 -29 39 C-32.95280883 42.8351245 -36.55295269 46.87977733 -40.125 51.0625 C-45.19042011 56.95704444 -50.36334378 62.72695858 -55.66015625 68.4140625 C-58.04564036 70.98180009 -58.04564036 70.98180009 -60.18359375 73.8359375 C-60.78300781 74.55007813 -61.38242187 75.26421875 -62 76 C-62.66 76 -63.32 76 -64 76 C-64.25394531 76.57234375 -64.50789062 77.1446875 -64.76953125 77.734375 C-66.14442921 80.26593314 -67.74317786 82.12614321 -69.6875 84.25 C-70.75097656 85.42175781 -70.75097656 85.42175781 -71.8359375 86.6171875 C-72.90714844 87.79667969 -72.90714844 87.79667969 -74 89 C-75.82567958 91.08546008 -77.64226626 93.17848314 -79.45703125 95.2734375 C-81 97 -81 97 -82.63671875 98.5390625 C-84.25426126 100.06938825 -84.25426126 100.06938825 -85 103 C-86.38179682 104.10543746 -87.76408402 105.21026595 -89.1484375 106.3125 C-92.28820403 109.17405937 -94.78002837 112.5670254 -97.421875 115.8828125 C-100.71457599 119.94277005 -104.31386674 123.72109303 -107.92626953 127.49609375 C-110.75128019 130.4869508 -112.98177784 133.42167973 -115 137 C-117.38240349 139.68020392 -118.56612823 140.85537608 -122 142 C-122 142.66 -122 143.32 -122 144 C-120.89467926 143.99777939 -119.78935852 143.99555878 -118.65054321 143.99327087 C-108.20519696 143.97294946 -97.75985475 143.95798461 -87.31449318 143.94818783 C-81.94516802 143.94298181 -76.5758589 143.9359258 -71.20654297 143.92456055 C-66.0194114 143.91365034 -60.83229521 143.90770599 -55.64515305 143.90512276 C-53.67174411 143.90328312 -51.69833597 143.89969089 -49.72493362 143.89426994 C-46.94892852 143.88695141 -44.17298594 143.88601358 -41.39697266 143.88647461 C-40.59135895 143.88287933 -39.78574524 143.87928406 -38.95571899 143.87557983 C-33.2542979 143.88574499 -27.66235687 144.34520666 -22 145 C-21.82399759 149.45782504 -21.71857182 153.91474337 -21.625 158.375 C-21.57472656 159.62667969 -21.52445313 160.87835938 -21.47265625 162.16796875 C-21.33541663 170.90555758 -22.84137895 176.00830931 -28 183 C-28.93243414 184.53218161 -29.85164353 186.07259234 -30.75 187.625 C-31.921875 189.6015625 -31.921875 189.6015625 -33 191 C-33.66 191 -34.32 191 -35 191 C-35.12584473 191.59280762 -35.25168945 192.18561523 -35.38134766 192.79638672 C-36.35779931 196.2744659 -38.43274983 199.11632999 -40.375 202.125 C-41.29132638 203.56579501 -42.20665484 205.00722507 -43.12109375 206.44921875 C-43.59659668 207.1973584 -44.07209961 207.94549805 -44.56201172 208.71630859 C-46.89971359 212.42884906 -49.16453067 216.1851218 -51.4375 219.9375 C-55.53230691 226.67510096 -59.74952839 233.32176408 -64.06591797 239.91943359 C-66.23001216 243.23415808 -68.35886161 246.56005869 -70.3984375 249.953125 C-70.76622314 250.56438232 -71.13400879 251.17563965 -71.51293945 251.80541992 C-72.49584057 253.45090476 -73.46898555 255.10220623 -74.44140625 256.75390625 C-74.95574219 257.49511719 -75.47007812 258.23632812 -76 259 C-76.66 259 -77.32 259 -78 259 C-78.268125 259.886875 -78.53625 260.77375 -78.8125 261.6875 C-79.9250635 264.7909666 -81.10195778 267.31110685 -83 270 C-83.66 270 -84.32 270 -85 270 C-85.12761719 270.80050781 -85.12761719 270.80050781 -85.2578125 271.6171875 C-86.26876909 274.86289022 -87.99378646 277.29313763 -89.875 280.125 C-93.56943927 285.74805414 -97.13415678 291.43585715 -100.625 297.1875 C-105.49333665 305.1895265 -110.45418514 313.11925756 -115.58984375 320.953125 C-121.38143419 329.80860829 -126.87761951 338.73861865 -132 348 C-132.66 348 -133.32 348 -134 348 C-134.20625 348.804375 -134.4125 349.60875 -134.625 350.4375 C-136.07418264 354.19220049 -137.89349782 357.0314932 -140.16796875 360.32421875 C-142.30448501 363.44471692 -144.34185391 366.62431511 -146.375 369.8125 C-149.30212957 374.39062466 -152.27855634 378.92895802 -155.3125 383.4375 C-157.34941711 386.47479652 -159.34448598 389.49283286 -161.125 392.6875 C-163.98047284 397.73216868 -167.27383277 402.47411479 -170.54296875 407.2578125 C-173.62388461 411.80394541 -176.42283948 416.40956485 -179.01953125 421.25 C-180 423 -180 423 -181 424 C-180.18663209 423.99907821 -179.37326418 423.99815641 -178.53524876 423.99720669 C-158.77346387 423.97515313 -139.0116811 423.95858927 -119.24988651 423.94818783 C-109.69336061 423.94302449 -100.13684291 423.93598108 -90.58032227 423.92456055 C-82.25397993 423.91461486 -73.92764352 423.90814685 -65.60129541 423.90591151 C-61.18975143 423.9046042 -56.77822443 423.90151712 -52.36668587 423.89426994 C-48.21929613 423.88751154 -44.07193047 423.88538267 -39.92453575 423.88689232 C-38.3978627 423.88661591 -36.87118888 423.88460972 -35.34452057 423.88079453 C-33.26916541 423.87586006 -31.19390258 423.87700077 -29.11854553 423.87974548 C-27.37220872 423.87836279 -27.37220872 423.87836279 -25.59059238 423.87695217 C-23 424 -23 424 -22 425 C-22 446.12 -22 467.24 -22 489 C-112.75 489 -203.5 489 -297 489 C-299.48970431 471.57206982 -296.60376307 462.57244412 -286.50976562 448.32080078 C-284.40279537 445.08198138 -282.77815728 441.66862105 -281.16699219 438.16186523 C-279.99622032 435.99299811 -278.7683026 434.6873094 -277 433 C-276.06554819 431.39808261 -275.13606081 429.79287799 -274.2421875 428.16796875 C-272.16397182 424.54089422 -269.85821003 421.05841591 -267.5859375 417.55078125 C-266.25238623 415.40593155 -265.07879675 413.2804268 -264 411 C-263.34 411 -262.68 411 -262 411 C-261.91621094 410.4740625 -261.83242188 409.948125 -261.74609375 409.40625 C-260.72285906 406.10618418 -258.91160007 403.38655975 -257.0625 400.5 C-253.80682936 395.37745258 -253.80682936 395.37745258 -251 390 C-250.34 390 -249.68 390 -249 390 C-248.7328418 389.1140918 -248.46568359 388.22818359 -248.19042969 387.31542969 C-247.05980379 384.16655773 -245.77061586 381.74633294 -243.953125 378.953125 C-243.355 378.025 -242.756875 377.096875 -242.140625 376.140625 C-241.20476562 374.70976563 -241.20476562 374.70976563 -240.25 373.25 C-239.02475192 371.36021059 -237.80078473 369.46959006 -236.578125 367.578125 C-235.97766357 366.64935547 -235.37720215 365.72058594 -234.75854492 364.76367188 C-232.5575237 361.30461867 -230.44778724 357.79657819 -228.35302734 354.27246094 C-225.8354037 350.04401617 -223.22712792 345.87162757 -220.63671875 341.6875 C-219.04069244 339.15078089 -219.04069244 339.15078089 -218 337 C-217.34 337 -216.68 337 -216 337 C-215.72800781 336.28585937 -215.45601563 335.57171875 -215.17578125 334.8359375 C-212.34640783 328.0116016 -208.62856989 321.64331005 -204.2109375 315.734375 C-202.34761599 313.06561773 -200.87344611 310.20064391 -199.328125 307.33984375 C-197.50071845 304.12038339 -195.43414684 301.08798579 -193.33203125 298.04296875 C-192.05455879 296.08367814 -191.00120349 294.11154291 -190 292 C-189.34 292 -188.68 292 -188 292 C-187.87310791 291.4112207 -187.74621582 290.82244141 -187.61547852 290.21582031 C-186.65581137 286.76086634 -184.74363022 283.81948556 -182.9375 280.75 C-182.56044922 280.1003125 -182.18339844 279.450625 -181.79492188 278.78125 C-180.86765885 277.18494909 -179.93441544 275.59212471 -179 274 C-178.34 274 -177.68 274 -177 274 C-176.92265625 273.47792969 -176.8453125 272.95585938 -176.765625 272.41796875 C-175.68648135 269.00985693 -173.72276665 266.25679182 -171.75 263.3125 C-169.07900863 259.25619873 -166.48753186 255.22031794 -164.1875 250.9375 C-162.41615225 247.64267227 -160.33990965 244.92488707 -158 242 C-157.27025865 240.7413376 -156.56491485 239.46842583 -155.875 238.1875 C-153.40400424 233.61500317 -150.69599117 229.21491504 -147.9375 224.8125 C-147.51388184 224.13533936 -147.09026367 223.45817871 -146.65380859 222.76049805 C-144.16110343 218.79483074 -141.60035774 214.90053661 -139 211 C-158.47 211 -177.94 211 -198 211 C-198.33 209.68 -198.66 208.36 -199 207 C-196.9453125 204.4921875 -196.9453125 204.4921875 -194.125 201.875 C-190.60763913 198.78157269 -190.60763913 198.78157269 -188 195 C-187.34 195 -186.68 195 -186 195 C-185.67 194.01 -185.34 193.02 -185 192 C-184.34 192 -183.68 192 -183 192 C-182.67 191.01 -182.34 190.02 -182 189 C-181.34 189 -180.68 189 -180 189 C-180 188.34 -180 187.68 -180 187 C-178.625 185.375 -178.625 185.375 -177 184 C-176.34 184 -175.68 184 -175 184 C-174.67 183.01 -174.34 182.02 -174 181 C-173.34 181 -172.68 181 -172 181 C-171.67 180.01 -171.34 179.02 -171 178 C-170.34 178 -169.68 178 -169 178 C-168.67 177.01 -168.34 176.02 -168 175 C-167.34 175 -166.68 175 -166 175 C-165.938125 174.4225 -165.87625 173.845 -165.8125 173.25 C-164.67366804 170.0963115 -162.63678864 169.03751849 -160 167 C-158.80842961 165.55079277 -157.61810703 164.1003757 -156.44921875 162.6328125 C-154.7706077 160.74154722 -152.93883704 159.18486645 -151 157.5625 C-147.8572362 154.89466879 -145.66096815 152.25733644 -143.40258789 148.83886719 C-141.896256 146.86398611 -140.30585962 145.42487782 -138.40234375 143.83203125 C-133.73746067 139.82704293 -129.39693211 135.54460568 -125.0625 131.1875 C-124.29615234 130.42501953 -123.52980469 129.66253906 -122.74023438 128.87695312 C-122.01255859 128.14798828 -121.28488281 127.41902344 -120.53515625 126.66796875 C-119.879104 126.01078857 -119.22305176 125.3536084 -118.54711914 124.67651367 C-116.91729521 123.06619412 -116.91729521 123.06619412 -116 121 C-115.34 121 -114.68 121 -114 121 C-113.77038574 120.44368896 -113.54077148 119.88737793 -113.30419922 119.31420898 C-111.6396077 116.36050943 -109.55339022 114.3472179 -107.1328125 111.97265625 C-106.4188179 111.266464 -106.4188179 111.266464 -105.69039917 110.54600525 C-104.17329679 109.04664685 -102.64967426 107.55415491 -101.125 106.0625 C-99.60832552 104.57359018 -98.09319277 103.08319273 -96.58102417 101.58970642 C-95.20460471 100.23102336 -93.82337841 98.87721497 -92.44189453 97.52368164 C-90.11785694 95.12180435 -88.05911263 92.62907279 -86 90 C-84.35857032 88.30847283 -82.68637472 86.64672276 -81 85 C-77.93297032 81.962889 -74.87314331 78.91854474 -71.8125 75.875 C-70.99330078 75.06417969 -70.17410156 74.25335938 -69.33007812 73.41796875 C-68.54697266 72.63808594 -67.76386719 71.85820312 -66.95703125 71.0546875 C-66.24522705 70.34812012 -65.53342285 69.64155273 -64.80004883 68.91357422 C-62.83114434 66.92661725 -62.83114434 66.92661725 -61 64 C-60.34 64 -59.68 64 -59 64 C-58.34 62.68 -57.68 61.36 -57 60 C-56.34 60 -55.68 60 -55 60 C-54.67 59.01 -54.34 58.02 -54 57 C-51.5625 54.3125 -51.5625 54.3125 -49 52 C-48.34 52 -47.68 52 -47 52 C-46.835 51.319375 -46.67 50.63875 -46.5 49.9375 C-44.66856385 46.35093754 -42.40775509 44.57033546 -39.34765625 42.015625 C-32.92312812 36.49972397 -27.14605818 30.29398351 -21.6484375 23.8671875 C-19.44566747 21.37210676 -17.07953633 19.06652208 -14.703125 16.73828125 C-12.4133221 14.40121178 -10.33296449 11.91370456 -8.26171875 9.3828125 C-7 8 -7 8 -5 7 C-4.67 6.01 -4.34 5.02 -4 4 C-3.34 4 -2.68 4 -2 4 C-2 3.34 -2 2.68 -2 2 C-1.34 2 -0.68 2 0 2 C0 1.34 0 0.68 0 0 Z " fill="#FFFFFF" transform="translate(667,320)"/>
<path d="M0 0 C0.79688232 0.7118042 0.79688232 0.7118042 1.60986328 1.43798828 C4.31521144 3.83565226 7.09677924 6.14601649 9.86328125 8.47265625 C11.12109375 9.77734375 11.12109375 9.77734375 11.12109375 11.77734375 C11.78109375 11.77734375 12.44109375 11.77734375 13.12109375 11.77734375 C15.12109375 14.77734375 15.12109375 14.77734375 14.93359375 16.65234375 C13.93417893 19.2661979 12.71712923 21.47905265 11.12109375 23.77734375 C10.46109375 23.77734375 9.80109375 23.77734375 9.12109375 23.77734375 C9.12109375 24.43734375 9.12109375 25.09734375 9.12109375 25.77734375 C7.51171875 27.328125 7.51171875 27.328125 5.37109375 29.08984375 C2.20348026 31.7649661 -0.3098359 34.51660061 -2.87890625 37.77734375 C-3.53890625 37.77734375 -4.19890625 37.77734375 -4.87890625 37.77734375 C-4.87890625 38.43734375 -4.87890625 39.09734375 -4.87890625 39.77734375 C-5.53890625 39.77734375 -6.19890625 39.77734375 -6.87890625 39.77734375 C-6.87890625 40.43734375 -6.87890625 41.09734375 -6.87890625 41.77734375 C-8.38087981 43.01810452 -9.8850294 44.25656192 -11.41015625 45.46875 C-13.1655076 47.03269336 -14.06505489 48.57994509 -14.87890625 50.77734375 C-15.53890625 50.77734375 -16.19890625 50.77734375 -16.87890625 50.77734375 C-16.87890625 51.43734375 -16.87890625 52.09734375 -16.87890625 52.77734375 C-17.68328125 53.41671875 -18.48765625 54.05609375 -19.31640625 54.71484375 C-22.11611357 56.58770307 -22.11611357 56.58770307 -22.87890625 59.77734375 C-24.4453125 61.25 -24.4453125 61.25 -26.44140625 62.83984375 C-30.68061836 66.39925428 -33.90737438 70.41499737 -37.21484375 74.8359375 C-37.76398438 75.47660156 -38.313125 76.11726563 -38.87890625 76.77734375 C-39.53890625 76.77734375 -40.19890625 76.77734375 -40.87890625 76.77734375 C-41.141875 77.35613281 -41.40484375 77.93492187 -41.67578125 78.53125 C-45.00632254 84.74898131 -50.47211285 89.40041576 -55.87890625 93.77734375 C-56.20890625 94.43734375 -56.53890625 95.09734375 -56.87890625 95.77734375 C-57.53890625 95.77734375 -58.19890625 95.77734375 -58.87890625 95.77734375 C-58.87890625 96.76734375 -58.87890625 97.75734375 -58.87890625 98.77734375 C-59.53890625 98.77734375 -60.19890625 98.77734375 -60.87890625 98.77734375 C-60.87890625 99.43734375 -60.87890625 100.09734375 -60.87890625 100.77734375 C-61.55953125 101.31359375 -62.24015625 101.84984375 -62.94140625 102.40234375 C-67.87346614 106.38996664 -71.73165617 111.34809734 -75.69140625 116.27734375 C-76.41328125 117.10234375 -77.13515625 117.92734375 -77.87890625 118.77734375 C-78.53890625 118.77734375 -79.19890625 118.77734375 -79.87890625 118.77734375 C-80.13542969 119.36257813 -80.39195312 119.9478125 -80.65625 120.55078125 C-81.98452787 122.96968983 -83.44415426 124.50933247 -85.44140625 126.40234375 C-88.01906014 128.82256334 -88.01906014 128.82256334 -89.87890625 131.77734375 C-90.53890625 131.77734375 -91.19890625 131.77734375 -91.87890625 131.77734375 C-92.20890625 132.76734375 -92.53890625 133.75734375 -92.87890625 134.77734375 C-93.53890625 134.77734375 -94.19890625 134.77734375 -94.87890625 134.77734375 C-95.10578125 135.33421875 -95.33265625 135.89109375 -95.56640625 136.46484375 C-96.89509429 138.80586554 -98.44711893 140.39187581 -100.35668945 142.26342773 C-103.36197394 145.25232414 -106.23443707 148.36920295 -109.12890625 151.46484375 C-109.76570312 152.14095703 -110.4025 152.81707031 -111.05859375 153.51367188 C-111.66445313 154.16142578 -112.2703125 154.80917969 -112.89453125 155.4765625 C-113.44399414 156.06268311 -113.99345703 156.64880371 -114.55957031 157.25268555 C-115.97248786 158.75859494 -115.97248786 158.75859494 -116.87890625 160.77734375 C-117.53890625 160.77734375 -118.19890625 160.77734375 -118.87890625 160.77734375 C-118.87890625 161.43734375 -118.87890625 162.09734375 -118.87890625 162.77734375 C-119.53890625 162.77734375 -120.19890625 162.77734375 -120.87890625 162.77734375 C-121.13671875 163.3496875 -121.39453125 163.92203125 -121.66015625 164.51171875 C-122.99256567 166.9886337 -124.52946743 168.91146035 -126.37890625 171.02734375 C-126.98734375 171.73375 -127.59578125 172.44015625 -128.22265625 173.16796875 C-129.87890625 174.77734375 -129.87890625 174.77734375 -131.87890625 174.77734375 C-132.141875 175.36902344 -132.40484375 175.96070313 -132.67578125 176.5703125 C-133.93268021 178.87598753 -135.22659249 180.29464225 -137.12890625 182.08984375 C-139.5738833 184.45857412 -141.87152853 186.8622661 -144.06640625 189.46484375 C-146.23143733 192.02824055 -148.37026319 194.53748387 -150.87890625 196.77734375 C-151.53890625 196.77734375 -152.19890625 196.77734375 -152.87890625 196.77734375 C-152.87890625 197.76734375 -152.87890625 198.75734375 -152.87890625 199.77734375 C-154.3125 201.25 -154.3125 201.25 -156.31640625 202.83984375 C-161.35073799 207.05875556 -165.5546875 211.84906037 -169.87890625 216.77734375 C-171.41841523 218.48762179 -172.96005628 220.19598325 -174.50390625 221.90234375 C-177.24158942 224.94050434 -179.95026841 227.99955377 -182.62890625 231.08984375 C-185.27535025 234.11698271 -187.9095918 237.06254197 -190.87890625 239.77734375 C-191.53890625 239.77734375 -192.19890625 239.77734375 -192.87890625 239.77734375 C-192.87890625 240.76734375 -192.87890625 241.75734375 -192.87890625 242.77734375 C-193.53890625 242.77734375 -194.19890625 242.77734375 -194.87890625 242.77734375 C-194.87890625 243.43734375 -194.87890625 244.09734375 -194.87890625 244.77734375 C-196.59375 246.43359375 -196.59375 246.43359375 -198.81640625 248.27734375 C-201.79935804 250.66661374 -201.79935804 250.66661374 -203.87890625 253.77734375 C-204.53890625 253.77734375 -205.19890625 253.77734375 -205.87890625 253.77734375 C-206.14316406 254.3703125 -206.40742188 254.96328125 -206.6796875 255.57421875 C-207.9226105 257.85763429 -209.18292271 259.25161098 -211.06640625 261.02734375 C-215.91251329 265.73239986 -220.27488634 270.81714985 -224.56640625 276.02734375 C-226.5795954 278.42140652 -228.5500497 280.68940339 -230.87890625 282.77734375 C-231.53890625 282.77734375 -232.19890625 282.77734375 -232.87890625 282.77734375 C-233.25015625 283.61265625 -233.25015625 283.61265625 -233.62890625 284.46484375 C-235.84340429 288.56166512 -238.62622074 291.64017233 -242.19140625 294.58984375 C-245.53771364 297.37248742 -248.29785826 300.44101294 -251.109375 303.75390625 C-253.41056192 306.38528556 -255.88214305 308.81021032 -258.3984375 311.234375 C-260.0972613 312.91441747 -260.0972613 312.91441747 -261.87890625 315.77734375 C-262.53890625 315.77734375 -263.19890625 315.77734375 -263.87890625 315.77734375 C-264.1269249 316.35100677 -264.37494354 316.9246698 -264.63047791 317.51571655 C-266.07157888 320.12638553 -267.73423616 321.86578084 -269.85375977 323.96337891 C-270.67123184 324.77747223 -271.48870392 325.59156555 -272.33094788 326.43032837 C-273.2143132 327.30023407 -274.09767853 328.17013977 -275.0078125 329.06640625 C-275.91264877 329.96604095 -276.81748505 330.86567566 -277.7497406 331.79257202 C-280.15103975 334.17907415 -282.55629586 336.56142672 -284.96398926 338.94146729 C-288.36163749 342.30107691 -291.75406886 345.66592582 -295.14378357 349.03353882 C-296.94839943 350.8258595 -298.75568085 352.61550093 -300.56581116 354.4022522 C-301.38013107 355.2100412 -302.19445099 356.0178302 -303.03344727 356.85009766 C-303.75355484 357.56195221 -304.47366241 358.27380676 -305.21559143 359.00723267 C-306.95306416 360.68684249 -306.95306416 360.68684249 -307.87890625 362.77734375 C-308.53890625 362.77734375 -309.19890625 362.77734375 -309.87890625 362.77734375 C-309.58281896 357.26800533 -306.1600325 354.21481052 -302.62890625 350.33984375 C-301.47739789 349.04989562 -300.32635008 347.75953621 -299.17578125 346.46875 C-298.33950195 345.54280029 -298.33950195 345.54280029 -297.48632812 344.59814453 C-295.96273636 342.87230198 -294.51937812 341.1024264 -293.08203125 339.3046875 C-292.355 338.47066406 -291.62796875 337.63664062 -290.87890625 336.77734375 C-290.21890625 336.77734375 -289.55890625 336.77734375 -288.87890625 336.77734375 C-288.87890625 335.78734375 -288.87890625 334.79734375 -288.87890625 333.77734375 C-287.24111326 332.40869856 -285.5690642 331.08077064 -283.87890625 329.77734375 C-282.41710119 328.10747154 -281.00161643 326.39619409 -279.62890625 324.65234375 C-276.69699586 320.99590855 -273.72221631 317.42993465 -270.56640625 313.96484375 C-266.93896915 309.97656212 -263.38873076 305.93141324 -259.87890625 301.83984375 C-259.37206299 301.24953369 -258.86521973 300.65922363 -258.34301758 300.05102539 C-254.32590961 295.34943994 -250.44502434 290.55186016 -246.62109375 285.69140625 C-245.75871094 284.74394531 -245.75871094 284.74394531 -244.87890625 283.77734375 C-244.21890625 283.77734375 -243.55890625 283.77734375 -242.87890625 283.77734375 C-242.87890625 283.11734375 -242.87890625 282.45734375 -242.87890625 281.77734375 C-242.21890625 281.77734375 -241.55890625 281.77734375 -240.87890625 281.77734375 C-240.6159375 281.1946875 -240.35296875 280.61203125 -240.08203125 280.01171875 C-238.82179074 277.67127208 -237.42270936 275.98275074 -235.62890625 274.02734375 C-232.12324579 270.11746668 -228.96269714 266.02461619 -225.87890625 261.77734375 C-226.46913574 261.51381104 -227.05936523 261.25027832 -227.66748047 260.97875977 C-229.97051152 259.72757674 -231.44252067 258.42929397 -233.26171875 256.5546875 C-233.87144531 255.93400391 -234.48117187 255.31332031 -235.109375 254.67382812 C-235.73457031 254.02736328 -236.35976563 253.38089844 -237.00390625 252.71484375 C-238.25426699 251.43010445 -239.50677141 250.14744694 -240.76171875 248.8671875 C-241.31230957 248.29863037 -241.86290039 247.73007324 -242.43017578 247.14428711 C-243.85304637 245.6700447 -243.85304637 245.6700447 -245.87890625 244.77734375 C-246.81353247 243.10836835 -247.74563929 241.43789101 -248.66015625 239.7578125 C-250.37357222 236.97351155 -252.49309309 234.65259214 -254.70703125 232.2578125 C-255.87890625 230.77734375 -255.87890625 230.77734375 -255.87890625 228.77734375 C-256.53890625 228.77734375 -257.19890625 228.77734375 -257.87890625 228.77734375 C-259.30690352 226.15934876 -260.73451513 223.54115432 -262.16015625 220.921875 C-263.25695743 218.91522739 -264.36045192 216.9122139 -265.47265625 214.9140625 C-268.5793444 209.31092851 -271.46022969 203.71224757 -273.87890625 197.77734375 C-274.20632813 196.98328125 -274.53375 196.18921875 -274.87109375 195.37109375 C-277.60755817 188.32841011 -279.3099715 181.1489186 -280.94921875 173.79296875 C-281.52203665 171.22962391 -282.1771138 168.77144961 -282.92578125 166.24609375 C-289.34056121 142.90050111 -289.1551278 109.49877856 -280.87890625 86.77734375 C-280.46988741 85.27662588 -280.07409586 83.77227499 -279.6875 82.265625 C-276.38102214 69.66806638 -271.83161356 58.3520524 -265.87890625 46.77734375 C-265.21890625 46.77734375 -264.55890625 46.77734375 -263.87890625 46.77734375 C-263.80929687 46.09027344 -263.7396875 45.40320313 -263.66796875 44.6953125 C-262.64164389 40.89994285 -260.58080507 38.18302029 -258.25390625 35.08984375 C-257.34440928 33.85463971 -256.43555944 32.61895893 -255.52734375 31.3828125 C-255.07842773 30.77614746 -254.62951172 30.16948242 -254.16699219 29.54443359 C-251.76789011 26.25317112 -249.51785802 22.85769953 -247.25390625 19.47265625 C-246.80015625 18.91320312 -246.34640625 18.35375 -245.87890625 17.77734375 C-245.21890625 17.77734375 -244.55890625 17.77734375 -243.87890625 17.77734375 C-243.60594727 17.18058838 -243.33298828 16.58383301 -243.05175781 15.96899414 C-228.55079476 -11.12824676 -188.78435544 -27.59727369 -161.34375 -35.99609375 C-106.19763747 -51.83073138 -42.71442879 -37.87906641 0 0 Z M-156.87890625 31.77734375 C-157.92256348 32.2717395 -157.92256348 32.2717395 -158.98730469 32.77612305 C-166.78530354 36.51171006 -173.85720896 40.5117771 -179.87890625 46.77734375 C-180.69230469 47.56753906 -181.50570312 48.35773438 -182.34375 49.171875 C-189.78425685 56.41122957 -189.78425685 56.41122957 -195.87890625 64.77734375 C-195.87890625 65.43734375 -195.87890625 66.09734375 -195.87890625 66.77734375 C-196.86890625 67.27234375 -196.86890625 67.27234375 -197.87890625 67.77734375 C-213.23776928 86.00442819 -217.21101762 116.09845254 -215.58984375 139.03613281 C-213.97212235 157.2277211 -209.63426529 173.62054718 -200.87890625 189.77734375 C-200.21890625 189.77734375 -199.55890625 189.77734375 -198.87890625 189.77734375 C-198.60691406 190.51082031 -198.33492187 191.24429688 -198.0546875 192 C-195.2968343 198.51439743 -189.88821552 208.02363999 -183.2265625 210.9375 C-182.45183594 211.21464844 -181.67710937 211.49179687 -180.87890625 211.77734375 C-175.05034127 205.4863874 -169.44174249 199.11298877 -164.0625 192.4296875 C-161.26232683 189.0284038 -158.30822027 185.7839922 -155.3125 182.5546875 C-153.66963314 180.89846564 -153.66963314 180.89846564 -153.87890625 178.77734375 C-153.30140625 178.55046875 -152.72390625 178.32359375 -152.12890625 178.08984375 C-149.28150816 176.42886153 -147.75823432 174.46209814 -145.87890625 171.77734375 C-145.87890625 171.11734375 -145.87890625 170.45734375 -145.87890625 169.77734375 C-144.55890625 169.11734375 -143.23890625 168.45734375 -141.87890625 167.77734375 C-141.87890625 166.78734375 -141.87890625 165.79734375 -141.87890625 164.77734375 C-140.88890625 164.44734375 -139.89890625 164.11734375 -138.87890625 163.77734375 C-138.87890625 163.11734375 -138.87890625 162.45734375 -138.87890625 161.77734375 C-138.21890625 161.77734375 -137.55890625 161.77734375 -136.87890625 161.77734375 C-134.83434566 159.6046972 -134.83434566 159.6046972 -132.75390625 156.90234375 C-132.02945313 155.99742187 -131.305 155.0925 -130.55859375 154.16015625 C-128.68685391 151.99078564 -128.68685391 151.99078564 -128.87890625 149.77734375 C-128.21890625 149.77734375 -127.55890625 149.77734375 -126.87890625 149.77734375 C-126.87890625 149.11734375 -126.87890625 148.45734375 -126.87890625 147.77734375 C-126.23953125 147.52984375 -125.60015625 147.28234375 -124.94140625 147.02734375 C-122.68255511 145.9892118 -122.68255511 145.9892118 -122.37890625 143.77734375 C-122.21390625 143.11734375 -122.04890625 142.45734375 -121.87890625 141.77734375 C-121.32074219 141.535 -120.76257813 141.29265625 -120.1875 141.04296875 C-116.861295 139.2194655 -114.79823623 136.42556383 -112.44140625 133.52734375 C-111.7443457 132.68623047 -111.7443457 132.68623047 -111.03320312 131.828125 C-109.64295341 130.14896705 -108.26057531 128.46356502 -106.87890625 126.77734375 C-102.17993947 121.06799651 -102.17993947 121.06799651 -100.06640625 119.02734375 C-98.6493231 117.82303382 -98.6493231 117.82303382 -98.87890625 115.77734375 C-97.88890625 115.44734375 -96.89890625 115.11734375 -95.87890625 114.77734375 C-95.87890625 113.78734375 -95.87890625 112.79734375 -95.87890625 111.77734375 C-95.29882812 111.53371094 -94.71875 111.29007812 -94.12109375 111.0390625 C-91.48519411 109.55579494 -89.96970553 107.88327625 -88.00390625 105.58984375 C-87.31554687 104.790625 -86.6271875 103.99140625 -85.91796875 103.16796875 C-85.24507812 102.3790625 -84.5721875 101.59015625 -83.87890625 100.77734375 C-83.26789063 100.0915625 -82.656875 99.40578125 -82.02734375 98.69921875 C-78.95398088 95.69042568 -78.95398088 95.69042568 -77.87890625 91.77734375 C-77.32460938 91.56980469 -76.7703125 91.36226563 -76.19921875 91.1484375 C-73.03788182 89.28037477 -71.0277931 86.65897662 -68.75390625 83.83984375 C-64.23838251 78.35181668 -59.55074905 73.09595749 -54.6796875 67.921875 C-52.66455251 65.98879321 -52.66455251 65.98879321 -52.87890625 63.77734375 C-51.88890625 63.44734375 -50.89890625 63.11734375 -49.87890625 62.77734375 C-47.98848766 61.06196044 -47.98848766 61.06196044 -46.19140625 58.96484375 C-45.25748047 57.93423828 -45.25748047 57.93423828 -44.3046875 56.8828125 C-42.50509807 54.64913723 -42.50509807 54.64913723 -42.87890625 50.77734375 C-44.93268679 48.34377424 -44.93268679 48.34377424 -47.62890625 46.08984375 C-48.510625 45.30222656 -49.39234375 44.51460937 -50.30078125 43.703125 C-52.65093301 41.94763285 -54.02262191 41.17108388 -56.87890625 40.77734375 C-56.87890625 40.11734375 -56.87890625 39.45734375 -56.87890625 38.77734375 C-57.97203125 38.11734375 -59.06515625 37.45734375 -60.19140625 36.77734375 C-60.80628906 36.40609375 -61.42117188 36.03484375 -62.0546875 35.65234375 C-63.99252551 34.56110376 -63.99252551 34.56110376 -66.87890625 34.77734375 C-66.87890625 34.11734375 -66.87890625 33.45734375 -66.87890625 32.77734375 C-67.54277344 32.51179688 -68.20664062 32.24625 -68.890625 31.97265625 C-76.87890625 28.77734375 -76.87890625 28.77734375 -79.16796875 27.74609375 C-102.63281924 19.36095986 -134.53856639 21.05119877 -156.87890625 31.77734375 Z " fill="#FFFFFF" transform="translate(597.87890625,346.22265625)"/>
<path d="M0 0 C0 0.66 0 1.32 0 2 C0.556875 2.2475 1.11375 2.495 1.6875 2.75 C6.95806763 5.59895548 9.70822515 8.45183321 12 14 C12.96327702 21.20590945 13.40218028 28.87894961 9.4375 35.25 C6.42022589 38.99484375 3.34046464 40.99052563 -1 43 C-1.639375 43.4125 -2.27875 43.825 -2.9375 44.25 C-9.76473922 46.73263244 -15.71471833 44.44679732 -22.03515625 41.609375 C-29.57267695 37.51786179 -36.58497748 30.98986402 -40 23 C-41.15985992 16.70618648 -40.4139433 11.25072964 -37.203125 5.7109375 C-35.39054214 3.13330343 -33.36453695 1.07617878 -31 -1 C-29.7934375 -2.0828125 -29.7934375 -2.0828125 -28.5625 -3.1875 C-18.40730597 -10.37044212 -9.70683691 -5.29022612 0 0 Z M-30 8 C-32.08645791 11.2456012 -33 14.08690597 -33 18 C-31.71789267 21.84632199 -29.80151829 25.05011469 -27 28 C-26.34 28 -25.68 28 -25 28 C-25 28.66 -25 29.32 -25 30 C-24.01 30 -23.02 30 -22 30 C-22 30.66 -22 31.32 -22 32 C-15.87535254 35.62942072 -11.12856043 36.99725975 -4 36 C0.59809038 34.20074724 2.80850458 31.38299083 5 27 C5.86782457 22.99465585 5.75200386 19.64405703 4.03515625 15.890625 C-0.42345301 9.22209637 -7.25074925 4.41521298 -14.91015625 2.1328125 C-21.78307142 1.0550789 -25.77681862 2.4330791 -30 8 Z " fill="#FFFFFF" transform="translate(749,669)"/>
<path d="M0 0 C4.54658546 2.61630435 8.41863952 5.27560046 11.203125 9.83203125 C11.203125 10.49203125 11.203125 11.15203125 11.203125 11.83203125 C11.863125 11.83203125 12.523125 11.83203125 13.203125 11.83203125 C15.2366263 17.93253515 15.51949911 25.43558506 13.1796875 31.47265625 C7.59548111 40.29631939 -0.60098252 47.25487043 -10.796875 49.83203125 C-17.44433415 50.90817978 -23.16537237 49.50430437 -28.796875 45.83203125 C-34.88214683 40.38426409 -37.73062868 35.19281535 -38.234375 27.01953125 C-38.15720433 21.36892336 -35.90625638 17.42947371 -32.796875 12.83203125 C-32.136875 12.83203125 -31.476875 12.83203125 -30.796875 12.83203125 C-30.52875 12.19265625 -30.260625 11.55328125 -29.984375 10.89453125 C-28.796875 8.83203125 -28.796875 8.83203125 -25.796875 7.83203125 C-25.796875 7.17203125 -25.796875 6.51203125 -25.796875 5.83203125 C-24.44140625 4.61328125 -24.44140625 4.61328125 -22.609375 3.33203125 C-22.01769531 2.90921875 -21.42601562 2.48640625 -20.81640625 2.05078125 C-14.33078036 -1.8631748 -7.10778806 -2.96819641 0 0 Z M-23.5625 15.578125 C-28.03400911 20.08872073 -29.58911553 22.97533856 -30.046875 29.26953125 C-29.69718765 34.25257592 -27.990179 36.4522735 -24.796875 40.14453125 C-20.2092558 42.72506705 -15.93925477 42.56349044 -10.796875 41.83203125 C-5.83902438 40.10233337 -2.26905516 36.67958224 1.203125 32.83203125 C1.925 32.08953125 2.646875 31.34703125 3.390625 30.58203125 C5.85671378 26.84037931 6.94951303 23.30986764 7.203125 18.83203125 C5.65067797 14.08336975 2.97162525 11.06217432 -0.796875 7.83203125 C-10.31410334 3.07341708 -16.7024941 9.2826848 -23.5625 15.578125 Z " fill="#FFFFFF" transform="translate(715.796875,282.16796875)"/>
<path d="M0 0 C4 0 4 0 5.75 1.375 C7 3 7 3 7 5 C7.99 5.33 8.98 5.66 10 6 C11.3671875 7.390625 11.3671875 7.390625 12.875 9.25 C17.76568321 15.03276062 23.19106805 20.27771236 28.57714844 25.59301758 C29.04668945 26.05732178 29.51623047 26.52162598 30 27 C30.55461914 27.51264404 31.10923828 28.02528809 31.68066406 28.5534668 C33 30 33 30 33 32 C33.66 32 34.32 32 35 32 C35 32.66 35 33.32 35 34 C35.99 34 36.98 34 38 34 C37.6875 36.375 37.6875 36.375 37 39 C34 41 34 41 31.9375 40.875 C29.41130052 39.73413572 29.14894015 38.45107232 28 36 C27.01 35.67 26.02 35.34 25 35 C23.38229612 33.24327469 21.95965071 31.38527709 20.5 29.49609375 C18.99907929 27.64690787 18.99907929 27.64690787 16 28 C14.15102317 29.2588404 14.15102317 29.2588404 12.3125 31 C11.61769531 31.63035156 10.92289063 32.26070312 10.20703125 32.91015625 C6.73111219 36.20151324 3.34446097 39.57548544 0 43 C1.39080108 44.58775549 2.78788404 46.17000939 4.1875 47.75 C4.96480469 48.63171875 5.74210938 49.5134375 6.54296875 50.421875 C8.88455246 52.87886268 11.30158265 54.94862766 14 57 C13.42655063 59.86724686 13.1385485 60.8614515 11 63 C8.01293635 63.08534468 6.40015291 62.3320771 4.1171875 60.4375 C2.30953184 58.68107345 0.57659807 56.96733996 -1 55 C-1 54.34 -1 53.68 -1 53 C-1.66 53 -2.32 53 -3 53 C-4.55078125 51.390625 -4.55078125 51.390625 -6.3125 49.25 C-8.40851346 46.76535071 -10.23109254 44.82026136 -12.8125 42.8125 C-15.33659135 40.72111002 -15.86114275 39.00983701 -17 36 C-17.99 35.67 -18.98 35.34 -20 35 C-23.62206046 31.89537674 -25.58565093 29.83407252 -26 25 C-25.34 25 -24.68 25 -24 25 C-24 24.34 -24 23.68 -24 23 C-21.76953125 22.7265625 -21.76953125 22.7265625 -19 23 C-16.76171875 24.8984375 -16.76171875 24.8984375 -14.6875 27.375 C-13.99011719 28.18710937 -13.29273438 28.99921875 -12.57421875 29.8359375 C-11 32 -11 32 -11 34 C-10.01 34.33 -9.02 34.66 -8 35 C-7.67 35.66 -7.34 36.32 -7 37 C-0.4190255 33.93941579 4.28832854 28.95285538 8.73828125 23.3203125 C9.36283203 22.66675781 9.36283203 22.66675781 10 22 C10.66 22 11.32 22 12 22 C11.505 20.02 11.505 20.02 11 18 C10.34 18 9.68 18 9 18 C7.375 16.625 7.375 16.625 6 15 C6 14.34 6 13.68 6 13 C5.01 12.67 4.02 12.34 3 12 C3 11.34 3 10.68 3 10 C2.01 9.67 1.02 9.34 0 9 C0 8.34 0 7.68 0 7 C-0.99 6.67 -1.98 6.34 -3 6 C-2.67 4.68 -2.34 3.36 -2 2 C-1.34 2 -0.68 2 0 2 C0 1.34 0 0.68 0 0 Z " fill="#FFFFFF" transform="translate(685,711)"/>
<path d="M0 0 C2 3 2 3 2 7 C1.01 7 0.02 7 -1 7 C-1 7.66 -1 8.32 -1 9 C-2.010625 9.4125 -3.02125 9.825 -4.0625 10.25 C-7.89604911 11.88512605 -11.4152988 13.87844214 -15 16 C-12.78184988 23.10943455 -12.78184988 23.10943455 -10 30 C-9.34 30.33 -8.68 30.66 -8 31 C-6.6296945 32.97485205 -5.29327628 34.97386717 -4 37 C-2.27009975 36.06385433 -0.54111304 35.12602042 1.1875 34.1875 C2.63189453 33.40439453 2.63189453 33.40439453 4.10546875 32.60546875 C6.00734669 31.55058098 7.88319284 30.44705549 9.7265625 29.29296875 C12 28 12 28 14.1875 28.125 C16 29 16 29 18 32 C18.02734375 33.9765625 18.02734375 33.9765625 17 36 C14.19140625 37.7109375 14.19140625 37.7109375 10.5625 39.375 C9.27452814 39.98247842 7.98807274 40.59318205 6.703125 41.20703125 C6.06955078 41.50818848 5.43597656 41.8093457 4.78320312 42.11962891 C1.54691727 43.71738997 -1.48643984 45.62983251 -4.5546875 47.5234375 C-8.12111053 49.67696451 -11.78602918 51.63711757 -15.45703125 53.60546875 C-17.21808579 54.57120834 -18.94779666 55.59551826 -20.6484375 56.6640625 C-23.33273417 58.18902838 -24.96291906 58.26032122 -28 58 C-29.0625 56.1875 -29.0625 56.1875 -30 54 C-29 51 -29 51 -27.44946289 49.92504883 C-26.7971167 49.60560303 -26.14477051 49.28615723 -25.47265625 48.95703125 C-24.76302734 48.60576172 -24.05339844 48.25449219 -23.32226562 47.89257812 C-22.57654297 47.53615234 -21.83082031 47.17972656 -21.0625 46.8125 C-20.32064453 46.44447266 -19.57878906 46.07644531 -18.81445312 45.69726562 C-13.29481679 43 -13.29481679 43 -11 43 C-14.68515617 35.43852682 -18.35807696 28.03321672 -23 21 C-24.64548828 21.84884766 -24.64548828 21.84884766 -26.32421875 22.71484375 C-27.77848273 23.45604926 -29.23291893 24.19691695 -30.6875 24.9375 C-31.40873047 25.31068359 -32.12996094 25.68386719 -32.87304688 26.06835938 C-36.56505742 27.93965239 -39.83693096 29.48269556 -44 30 C-44.33 27.69 -44.66 25.38 -45 23 C-31.30235209 15.07383295 -31.30235209 15.07383295 -27.0625 13.0625 C-19.18171707 9.25976413 -8.64387383 -1.10818895 0 0 Z " fill="#FFFFFF" transform="translate(760,335)"/>
<path d="M0 0 C8.50317459 4.48856101 14.2578698 8.8829844 17.3828125 18.2578125 C18.49398835 27.51231996 16.20667909 35.36470165 11.1484375 43.16015625 C9.9453125 44.5703125 9.9453125 44.5703125 7.3828125 46.2578125 C4.0703125 46.0703125 4.0703125 46.0703125 1.3828125 45.2578125 C1.0528125 43.6078125 0.7228125 41.9578125 0.3828125 40.2578125 C1.0221875 39.8246875 1.6615625 39.3915625 2.3203125 38.9453125 C4.65027253 37.34542073 4.65027253 37.34542073 5.3828125 34.2578125 C6.0428125 34.2578125 6.7028125 34.2578125 7.3828125 34.2578125 C7.74602735 32.59740175 8.06958222 30.92837399 8.3828125 29.2578125 C8.51300781 28.63003906 8.64320313 28.00226562 8.77734375 27.35546875 C9.40152282 23.78187207 9.48741003 21.59121714 8.3828125 18.0703125 C3.85624181 11.70482247 -2.25033127 9.23131894 -9.6171875 7.2578125 C-10.6484375 6.9690625 -11.6796875 6.6803125 -12.7421875 6.3828125 C-16.78518047 6.2070302 -19.12333096 7.25208004 -22.6171875 9.2578125 C-26.88096119 13.9825347 -27.70049443 19.15456653 -28.6171875 25.2578125 C-27.91851563 25.45117188 -27.21984375 25.64453125 -26.5 25.84375 C-25.58992187 26.10414063 -24.67984375 26.36453125 -23.7421875 26.6328125 C-22.83726562 26.88804687 -21.93234375 27.14328125 -21 27.40625 C-18.6171875 28.2578125 -18.6171875 28.2578125 -16.6171875 30.2578125 C-16.9921875 32.8828125 -16.9921875 32.8828125 -17.6171875 35.2578125 C-22.26079812 36.74057153 -25.57232273 35.5390259 -29.9296875 33.8203125 C-30.57486328 33.57732422 -31.22003906 33.33433594 -31.88476562 33.08398438 C-33.46650729 32.48643752 -35.04247124 31.87363523 -36.6171875 31.2578125 C-37.08024289 22.93567811 -36.90429352 16.51964515 -32.6171875 9.2578125 C-32.25882813 8.63648438 -31.90046875 8.01515625 -31.53125 7.375 C-30.4921875 5.6953125 -30.4921875 5.6953125 -28.6171875 3.2578125 C-27.9571875 3.2578125 -27.2971875 3.2578125 -26.6171875 3.2578125 C-26.2871875 2.2678125 -25.9571875 1.2778125 -25.6171875 0.2578125 C-18.1243712 -5.20991831 -7.96301231 -3.66144939 0 0 Z " fill="#FFFFFF" transform="translate(774.6171875,607.7421875)"/>
<path d="M0 0 C1.94473476 0.18550729 3.88160222 0.45328463 5.8125 0.75 C7.70355469 1.03617188 7.70355469 1.03617188 9.6328125 1.328125 C10.32922852 1.43576172 11.02564453 1.54339844 11.74316406 1.65429688 C14.15812018 2.02422092 16.57483862 2.38043584 18.9921875 2.734375 C27.68861705 4.01234493 36.37234722 5.30830338 45 7 C45.89847656 7.16242187 46.79695312 7.32484375 47.72265625 7.4921875 C50 8 50 8 51 9 C50.79370716 15.02937715 50.1344704 21.07554349 49 27 C48.64496122 28.95817541 48.29087194 30.91652311 47.9375 32.875 C47.62543008 34.58341195 47.31307386 36.29177174 47 38 C43.90279155 38.87840996 42.09354597 38.99435406 39 38 C38.875 31.375 38.875 31.375 40 28 C40.37750314 25.94164346 40.72927629 23.87848699 41.0625 21.8125 C41.371875 19.894375 41.68125 17.97625 42 16 C37.38 15.01 32.76 14.02 28 13 C27.855625 14.876875 27.71125 16.75375 27.5625 18.6875 C27.26647955 22.53576586 26.83240569 26.22969185 26 30 C23.69 30 21.38 30 19 30 C17.43561545 25.98025693 18.53917122 22.29750176 19.4375 18.25 C19.953125 15.8575 20.46875 13.465 21 11 C16.05 10.67 11.1 10.34 6 10 C4.68 16.6 3.36 23.2 2 30 C-0.31 30 -2.62 30 -5 30 C-4.85975781 27.52039864 -4.7130815 25.04147598 -4.5625 22.5625 C-4.52318359 21.85544922 -4.48386719 21.14839844 -4.44335938 20.41992188 C-4.11328125 15.11328125 -4.11328125 15.11328125 -3 14 C-2.62831518 11.839582 -2.30208609 9.67124378 -2 7.5 C-1.11111111 1.11111111 -1.11111111 1.11111111 0 0 Z " fill="#FFFFFF" transform="translate(759,553)"/>
<path d="M0 0 C2.31 0 4.62 0 7 0 C11.36275707 23.58238484 11.36275707 23.58238484 13 35 C4.53628772 35.72031594 -1.86992165 31.6764144 -9.17578125 27.83203125 C-11.09424825 26.95701311 -12.94378895 26.44937063 -15 26 C-15 25.34 -15 24.68 -15 24 C-15.67675781 23.89816406 -16.35351562 23.79632813 -17.05078125 23.69140625 C-20.62950221 22.85242134 -23.85076211 21.44025238 -27.1875 19.9375 C-31.43228448 17.82193244 -31.43228448 17.82193244 -36 17 C-35.88406494 17.57443848 -35.76812988 18.14887695 -35.64868164 18.74072266 C-35.11892154 21.36860809 -34.59069869 23.9968003 -34.0625 26.625 C-33.88009766 27.52863281 -33.69769531 28.43226563 -33.50976562 29.36328125 C-32.59931266 33.89899238 -31.7212778 38.42937647 -31 43 C-34.09354597 43.99435406 -35.90279155 43.87840996 -39 43 C-39.13277344 42.03578125 -39.26554688 41.0715625 -39.40234375 40.078125 C-39.57894531 38.81484375 -39.75554688 37.5515625 -39.9375 36.25 C-40.11152344 34.99703125 -40.28554688 33.7440625 -40.46484375 32.453125 C-40.8634964 29.88079693 -41.34111073 27.50474817 -42 25 C-42.53251083 22.48092028 -43.05383639 19.96134769 -43.5625 17.4375 C-43.70107422 16.76525391 -43.83964844 16.09300781 -43.98242188 15.40039062 C-44.55855108 12.54244919 -45 9.92394057 -45 7 C-38.68497494 6.41527546 -35.08487508 7.64205572 -29.55078125 10.6484375 C-27.17029847 11.90976528 -24.82697548 12.91591317 -22.3125 13.875 C-17.24357523 15.84001039 -12.34961863 18.12138384 -7.44067383 20.45068359 C-3.32982767 22.39818666 0.81054862 24.23064249 5 26 C4.55527344 24.74896484 4.55527344 24.74896484 4.1015625 23.47265625 C2.94138664 19.81522243 2.12664266 16.19950946 1.375 12.4375 C1.11460937 11.15746094 0.85421875 9.87742187 0.5859375 8.55859375 C0.09951314 5.60437646 -0.12579173 2.97897684 0 0 Z " fill="#FFFFFF" transform="translate(797,440)"/>
<path d="M0 0 C0.88602402 0.00222061 1.77204803 0.00444122 2.68492126 0.00672913 C3.68588333 0.00680466 4.6868454 0.00688019 5.71813965 0.00695801 C6.80666733 0.01211929 7.89519501 0.01728058 9.01670837 0.02259827 C10.67928932 0.02472069 10.67928932 0.02472069 12.37545776 0.02688599 C15.93168281 0.03250418 19.48784596 0.04505977 23.04405212 0.05775452 C25.44834809 0.06276717 27.85264504 0.06733048 30.25694275 0.07142639 C36.16518918 0.08163062 42.07330098 0.10120247 47.98155212 0.12025452 C47.98155212 9.69025452 47.98155212 19.26025452 47.98155212 29.12025452 C46.33155212 28.79025452 44.68155212 28.46025452 42.98155212 28.12025452 C42.98155212 21.52025452 42.98155212 14.92025452 42.98155212 8.12025452 C37.70155212 8.12025452 32.42155212 8.12025452 26.98155212 8.12025452 C26.98155212 13.73025452 26.98155212 19.34025452 26.98155212 25.12025452 C25.00155212 25.12025452 23.02155212 25.12025452 20.98155212 25.12025452 C20.32155212 24.46025452 19.66155212 23.80025452 18.98155212 23.12025452 C18.999031 20.52755468 19.11923805 18.06773911 19.35655212 15.49525452 C19.41327087 14.78884827 19.46998962 14.08244202 19.52842712 13.35462952 C19.66996134 11.6090409 19.82452599 9.86451778 19.98155212 8.12025452 C18.98973938 8.17354919 18.98973938 8.17354919 17.97789001 8.22792053 C15.00019925 8.38491699 12.02216256 8.53394086 9.04405212 8.68275452 C8.00313416 8.73882874 6.96221619 8.79490295 5.88975525 8.85267639 C4.90039978 8.90101624 3.91104431 8.94935608 2.89170837 8.99916077 C1.51704407 9.06985779 1.51704407 9.06985779 0.11460876 9.14198303 C-2.01844788 9.12025452 -2.01844788 9.12025452 -3.01844788 8.12025452 C-3.14344788 4.62025452 -3.14344788 4.62025452 -3.01844788 1.12025452 C-2.01844788 0.12025452 -2.01844788 0.12025452 0 0 Z " fill="#FFFFFF" transform="translate(763.0184478759766,505.87974548339844)"/>
<path d="M0 0 C0.66 1.98 1.32 3.96 2 6 C-2.2003642 8.79285021 -6.43187233 10.31298531 -11.1875 11.84765625 C-11.96762451 12.1050206 -12.74774902 12.36238495 -13.55151367 12.62754822 C-16.03250509 13.44492346 -18.51608816 14.2540479 -21 15.0625 C-23.48337295 15.87607688 -25.96616779 16.69137525 -28.44848633 17.50816345 C-29.98926421 18.01457902 -31.53073755 18.51888501 -33.07299805 19.02076721 C-36.05184701 19.99540648 -38.97146219 20.98835078 -41.875 22.17358398 C-44 23 -44 23 -46.1875 22.9375 C-48 22 -48 22 -49.25 19.4375 C-49.4975 18.633125 -49.745 17.82875 -50 17 C-44.83038742 14.73274587 -39.61372219 12.68776472 -34.3125 10.75 C-33.50031006 10.45279053 -32.68812012 10.15558105 -31.85131836 9.84936523 C-29.23562542 8.89563604 -26.61805978 7.94721136 -24 7 C-23.08669922 6.66822754 -22.17339844 6.33645508 -21.23242188 5.99462891 C-18.51181458 5.00953199 -15.78783807 4.03442297 -13.0625 3.0625 C-12.2166333 2.75602539 -11.3707666 2.44955078 -10.49926758 2.13378906 C-9.70673584 1.85374023 -8.9142041 1.57369141 -8.09765625 1.28515625 C-7.40164307 1.03644775 -6.70562988 0.78773926 -5.98852539 0.53149414 C-4 0 -4 0 0 0 Z " fill="#FFFFFF" transform="translate(793,403)"/>
<path d="" fill="#FFFFFF" transform="translate(0,0)"/>
</svg>
