<?xml version="1.0" encoding="UTF-8"?>
<svg version="1.1" xmlns="http://www.w3.org/2000/svg" width="1000" height="1000">
<path d="M0 0 C1.08796875 0.72960937 2.1759375 1.45921875 3.296875 2.2109375 C14.76259873 10.06980482 24.66300943 18.81340215 33.2578125 29.78515625 C34.95934918 32.03841857 34.95934918 32.03841857 37 34 C36.73839778 37.85045768 34.5701366 39.85404008 32 42.5625 C28.75499346 46.06342188 25.62959684 49.60285336 22.625 53.3125 C19.203624 57.53219707 15.7491778 61.71980018 12.25 65.875 C11.80221191 66.41036377 11.35442383 66.94572754 10.89306641 67.49731445 C8.0714244 70.83917379 5.12801269 73.95075022 2 77 C1.43152344 76.21496094 0.86304688 75.42992187 0.27734375 74.62109375 C-12.88907394 56.70685265 -28.89435402 45.44436728 -51.15625 41.5078125 C-72.17508694 38.73093364 -92.56121781 44.02926286 -109.4375 56.875 C-126.83193618 71.87624194 -135.43161038 90.61093488 -137.18359375 113.38671875 C-137.81400802 133.44872572 -130.23649201 151.57830304 -117.375 166.625 C-103.97034837 180.86362844 -85.6798182 189.27871056 -66.109375 190.125 C-44.93128688 190.52648034 -25.71758107 183.71566777 -10.17431641 169.21313477 C-5.97953784 165.15378482 -2.34747991 160.77369494 1 156 C2.1282554 157.1282554 3.25614956 158.25687314 4.3828125 159.38671875 C5.53917449 160.5402876 6.70129744 161.68809309 7.8671875 162.83203125 C8.52976562 163.48558594 9.19234375 164.13914062 9.875 164.8125 C10.49117187 165.41707031 11.10734375 166.02164063 11.7421875 166.64453125 C13.63937537 168.62377742 15.43767636 170.63858931 17.23046875 172.7109375 C19.80958388 175.68092173 22.45617563 178.56011248 25.18359375 181.39453125 C25.88291016 182.12220703 26.58222656 182.84988281 27.30273438 183.59960938 C28.7488577 185.09865579 30.19952788 186.59332681 31.65429688 188.08398438 C32.34458984 188.80521484 33.03488281 189.52644531 33.74609375 190.26953125 C34.37185303 190.91510986 34.9976123 191.56068848 35.64233398 192.22583008 C37 194 37 194 37 197 C17.08689523 226.53519932 -15.66622674 244.08404743 -49.78125 251.23828125 C-84.90491367 257.94363388 -121.37470067 249.58382992 -151.0625 230.0625 C-157.97737268 225.34143918 -164.02460031 219.84055287 -170 214 C-170.86238281 213.19949219 -171.72476563 212.39898438 -172.61328125 211.57421875 C-193.39724981 191.82460011 -204.98866913 164.83676676 -210 137 C-210.19078125 135.95070313 -210.3815625 134.90140625 -210.578125 133.8203125 C-213.33133585 108.88845869 -210.61356829 82.89615838 -200 60 C-199.52868652 58.98099609 -199.52868652 58.98099609 -199.04785156 57.94140625 C-186.80684917 32.10850671 -167.4738469 11.60325159 -143 -3 C-142.40703125 -3.35481445 -141.8140625 -3.70962891 -141.203125 -4.07519531 C-98.86172681 -28.99679001 -40.88539143 -27.46595314 0 0 Z " fill="#FFFFFF" transform="translate(398,336)"/>
<path d="M0 0 C30.36 0 60.72 0 92 0 C88.29397996 2.77951503 84.64160069 4.7119594 80.5 6.6875 C48.06087641 22.63202966 25.46544886 49.98793711 13.08984375 83.65625 C8.13590323 98.85543668 5.61337276 114.12640885 5.6875 130.125 C5.69241455 131.39182617 5.6973291 132.65865234 5.70239258 133.96386719 C6.11365373 167.14315118 17.42035256 197.73295649 39 223 C39.67417969 223.80824219 40.34835938 224.61648438 41.04296875 225.44921875 C53.84779593 240.30655011 69.94953397 251.42591409 88 259 C88 259.33 88 259.66 88 260 C86.02 260.33 84.04 260.66 82 261 C82 294.99 82 328.98 82 364 C54.94 364 27.88 364 0 364 C0 243.88 0 123.76 0 0 Z " fill="#FFFFFF" transform="translate(180,321)"/>
<path d="M0 0 C7.25150552 2.54043874 10.6777284 13.24825501 13.8984375 19.81640625 C28.81472315 51.42912695 29.81530312 88.94190366 19 122 C14.95877449 133.06371955 9.50709174 143.20475021 3 153 C0.02173799 151.67193785 -1.9445046 150.26488767 -4.14453125 147.8671875 C-5.0257666 146.91622192 -5.0257666 146.91622192 -5.92480469 145.94604492 C-6.85921387 144.92087769 -6.85921387 144.92087769 -7.8125 143.875 C-9.14698556 142.43085109 -10.4816257 140.98684502 -11.81640625 139.54296875 C-12.50234863 138.79708496 -13.18829102 138.05120117 -13.89501953 137.28271484 C-17.32457254 133.56358696 -20.78799404 129.87639016 -24.25 126.1875 C-24.88139893 125.51251465 -25.51279785 124.8375293 -26.16333008 124.14208984 C-26.7539624 123.51125488 -27.34459473 122.88041992 -27.953125 122.23046875 C-28.47036133 121.67770264 -28.98759766 121.12493652 -29.52050781 120.55541992 C-30.99488201 118.96402471 -30.99488201 118.96402471 -32.69433594 117.48168945 C-34 116 -34 116 -33.9375 113.0625 C-33.29668288 109.68040963 -32.18379916 106.50008141 -31.0625 103.25 C-24.8974055 85.04615735 -24.41959673 63.16073302 -32.1953125 45.24609375 C-33.15769882 42.55982125 -33.128009 41.60309769 -32 39 C-30.35546875 36.6953125 -30.35546875 36.6953125 -28.1875 34.125 C-27.37667969 33.15820312 -26.56585938 32.19140625 -25.73046875 31.1953125 C-24.821582 30.12912482 -23.91137191 29.06406416 -23 28 C-22.51998535 27.43893555 -22.0399707 26.87787109 -21.54541016 26.29980469 C-19.52165636 23.93688536 -17.49571455 21.57587467 -15.46606445 19.21801758 C-7.33576455 9.91388971 -7.33576455 9.91388971 0 0 Z " fill="#FFFFFF" transform="translate(435,375)"/>
<path d="M0 0 C11.43383122 11.80203935 17.57750561 28.01554393 18.0546875 44.37890625 C17.50755858 59.60418343 12.90902427 72.79904822 3.6171875 84.75390625 C3.04355469 85.51703125 2.46992188 86.28015625 1.87890625 87.06640625 C-7.5806271 98.73383925 -22.57810449 106.55173319 -37.3828125 108.75390625 C-56.54623403 110.13780974 -74.21750281 106.69442078 -89.2019043 93.84472656 C-102.2421326 82.08335322 -110.41268347 66.76014408 -111.6328125 49.14453125 C-112.35832723 31.73863634 -107.55510503 15.67011701 -95.9453125 2.37890625 C-94.44328347 0.81891301 -92.92349617 -0.7242646 -91.3828125 -2.24609375 C-90.76921875 -2.88160156 -90.155625 -3.51710938 -89.5234375 -4.171875 C-63.91150648 -28.85345809 -24.18022814 -22.79283801 0 0 Z M-90.5703125 5.75390625 C-102.43000122 19.83881491 -105.61962866 35.85068616 -104.3828125 53.75390625 C-103.25939729 62.08039543 -100.31828454 69.90336824 -95.3828125 76.75390625 C-94.3928125 77.08390625 -93.4028125 77.41390625 -92.3828125 77.75390625 C-90.12160149 71.82772635 -87.86136395 65.90117586 -85.60180664 59.97436523 C-84.83282588 57.95767788 -84.06362132 55.94107584 -83.29418945 53.92456055 C-82.18902853 51.02805562 -81.08466966 48.13124601 -79.98046875 45.234375 C-79.63564957 44.33116013 -79.29083038 43.42794525 -78.93556213 42.49736023 C-78.61530563 41.65671524 -78.29504913 40.81607025 -77.96508789 39.94995117 C-77.68307022 39.21048752 -77.40105255 38.47102386 -77.11048889 37.70915222 C-76.50035616 36.06974275 -75.93597842 34.41340402 -75.3828125 32.75390625 C-71.9178125 32.25890625 -71.9178125 32.25890625 -68.3828125 31.75390625 C-68.12757813 32.57753662 -67.87234375 33.40116699 -67.609375 34.24975586 C-66.21572951 38.23124345 -64.53089055 41.99673802 -62.7578125 45.8203125 C-62.23646729 46.95508278 -62.23646729 46.95508278 -61.70458984 48.11277771 C-60.60025792 50.51534739 -59.49178022 52.91597329 -58.3828125 55.31640625 C-57.27450681 57.7207068 -56.16710638 60.12541714 -55.06103516 62.53074646 C-54.37465839 64.02283831 -53.68690031 65.51429577 -52.99755859 67.00502014 C-51.36215187 70.55488484 -49.79074922 74.10562577 -48.3828125 77.75390625 C-45.31445545 75.15931036 -44.05876517 72.2184198 -42.45703125 68.57421875 C-42.18695755 67.96561005 -41.91688385 67.35700134 -41.6386261 66.72994995 C-40.77596198 64.78242152 -39.92285345 62.8308844 -39.0703125 60.87890625 C-38.50912604 59.60517666 -37.94728274 58.33173624 -37.38476562 57.05859375 C-37.10794952 56.43104187 -36.83113342 55.80348999 -36.54592896 55.15692139 C-35.98720614 53.89467815 -35.42574639 52.63364281 -34.86154175 51.37384033 C-33.46661531 48.2527665 -32.12360996 45.12647501 -30.87353516 41.94433594 C-30.38804199 40.76516602 -29.90254883 39.58599609 -29.40234375 38.37109375 C-28.98702393 37.3126123 -28.5717041 36.25413086 -28.14379883 35.16357422 C-26.3828125 32.75390625 -26.3828125 32.75390625 -22.6940918 31.90283203 C-21.60136963 31.85368652 -20.50864746 31.80454102 -19.3828125 31.75390625 C-19.06376953 32.89666016 -19.06376953 32.89666016 -18.73828125 34.0625 C-16.84223315 39.2260892 -14.26986103 43.96258805 -11.6953125 48.81640625 C-10.8904541 50.34599976 -10.8904541 50.34599976 -10.06933594 51.90649414 C-6.21853815 59.21291291 -2.33576063 66.50219506 1.6171875 73.75390625 C8.31393595 67.68676663 10.25506702 57.80713298 10.875 49.15625 C11.52473144 32.86468666 6.71909518 19.7349657 -2.6953125 6.50390625 C-14.8773346 -5.96141869 -29.50369498 -13.20808612 -47.0703125 -13.55859375 C-64.0464285 -13.07007243 -78.65847108 -6.41335478 -90.5703125 5.75390625 Z M-70.3828125 43.75390625 C-70.29241699 45.30368164 -70.29241699 45.30368164 -70.20019531 46.88476562 C-70.39821791 51.08030328 -71.21756747 53.06613795 -73.3046875 56.66015625 C-73.91828125 57.73394531 -74.531875 58.80773437 -75.1640625 59.9140625 C-75.81375 61.01621094 -76.4634375 62.11835938 -77.1328125 63.25390625 C-77.76703125 64.35605469 -78.40125 65.45820313 -79.0546875 66.59375 C-81.25256691 70.40798656 -83.45727741 74.21716874 -85.72851562 77.98828125 C-87.89901533 81.6053377 -87.89901533 81.6053377 -88.3828125 85.75390625 C-76.98768781 96.37344654 -62.4966294 102.46140107 -46.8828125 103.12890625 C-30.12158482 102.35435784 -16.06624944 95.60631852 -4.3828125 83.75390625 C-3.3928125 82.76390625 -3.3928125 82.76390625 -2.3828125 81.75390625 C-2.50332657 76.41362643 -4.75850836 73.67552306 -8.3828125 70.06640625 C-9.38273495 69.02716471 -10.38008314 67.98544089 -11.375 66.94140625 C-12.12861816 66.15443359 -12.12861816 66.15443359 -12.89746094 65.3515625 C-16.01484568 61.99847806 -18.83546448 58.40265405 -21.703125 54.8359375 C-23.21554427 52.8857242 -23.21554427 52.8857242 -24.3828125 51.75390625 C-24.75041981 49.42572661 -25.08522831 47.09206775 -25.3828125 44.75390625 C-28.26063035 46.19281518 -28.44863294 47.99419621 -29.61328125 50.96484375 C-32.89281852 59.09443485 -36.63201398 66.99107095 -40.36132812 74.921875 C-40.88017578 76.03433594 -41.39902344 77.14679688 -41.93359375 78.29296875 C-42.40450439 79.29537598 -42.87541504 80.2977832 -43.3605957 81.33056641 C-44.51236538 83.62268108 -44.51236538 83.62268108 -44.3828125 85.75390625 C-47.14990234 85.67773438 -47.14990234 85.67773438 -50.3828125 84.75390625 C-51.97904881 82.42656636 -53.0194676 80.5254285 -54.109375 77.97265625 C-54.42433929 77.28514282 -54.73930359 76.59762939 -55.06381226 75.88928223 C-56.06686555 73.68656935 -57.03745128 71.47118645 -58.0078125 69.25390625 C-58.66718139 67.79202453 -59.3286195 66.33107423 -59.9921875 64.87109375 C-61.54603675 61.43949428 -63.07566877 57.99794834 -64.59240723 54.54980469 C-65.66879254 52.10412426 -66.75630299 49.6634344 -67.84375 47.22265625 C-68.35164063 46.07796875 -68.85953125 44.93328125 -69.3828125 43.75390625 C-69.7128125 43.75390625 -70.0428125 43.75390625 -70.3828125 43.75390625 Z " fill="#FFFFFF" transform="translate(382.3828125,406.24609375)"/>
<path d="M0 0 C1.00740234 0.45826172 1.00740234 0.45826172 2.03515625 0.92578125 C5.48913548 2.177223 8.8063704 2.64264772 12.4375 3.1875 C16.83541351 3.98389325 20.60491721 4.67058793 23.75 8.0625 C26.54991131 12.20495554 28.23337104 17.07290151 29 22 C28.505 23.485 28.505 23.485 28 25 C27.731875 24.49210937 27.46375 23.98421875 27.1875 23.4609375 C24.00252519 17.8662778 20.36144939 14.51221498 15 11 C15.53625 11.474375 16.0725 11.94875 16.625 12.4375 C22.09488191 18.33921469 25.55710753 24.06409143 27 32 C28.11375 32.2475 29.2275 32.495 30.375 32.75 C34 34 34 34 35.34375 35.8125 C36 38 36 38 35.3203125 40.140625 C34.92585937 40.83671875 34.53140625 41.5328125 34.125 42.25 C33.73570312 42.95640625 33.34640625 43.6628125 32.9453125 44.390625 C32.63335938 44.92171875 32.32140625 45.4528125 32 46 C29.3404953 45.54408491 27.1248121 45.0607194 24.6875 43.875 C20.84197202 42.62296763 17.9687494 43.32733061 14 44 C14 44.66 14 45.32 14 46 C15.08539062 46.35191406 16.17078125 46.70382812 17.2890625 47.06640625 C31.68800953 51.94146874 31.68800953 51.94146874 35.2109375 57.078125 C36.73615314 60.79300665 36.81238134 64.09486865 36 68 C33.90697647 72.62209362 31.16813906 75.28019282 26.58984375 77.30078125 C17.07440347 79.86980661 8.12255497 78.35467045 -0.70703125 74.38671875 C-3 73 -3 73 -5 70 C-3.35 67.03 -1.7 64.06 0 61 C1.32 61.66 2.64 62.32 4 63 C12.24536134 66.73772044 12.24536134 66.73772044 21 66 C21.06741472 64.04460719 21.06741472 64.04460719 20 62 C17.54337341 60.96941519 15.30031633 60.19641406 12.75 59.5 C7.02433191 57.90034321 2.29932308 56.17525568 -1.3125 51.1875 C-2.47900552 47.47589153 -2.76257671 43.52515341 -1 40 C-1.72574219 39.73445313 -2.45148437 39.46890625 -3.19921875 39.1953125 C-6.00170928 37.99927052 -8.30479352 36.59670893 -10.8125 34.875 C-11.60269531 34.33617187 -12.39289062 33.79734375 -13.20703125 33.2421875 C-13.79871094 32.83226562 -14.39039063 32.42234375 -15 32 C-12.69908935 30.46605957 -10.59222835 29.25771373 -8.125 28.0625 C-5.72943955 26.89532 -3.60084116 25.73389411 -1.375 24.25 C1.79233515 22.5829815 3.44912271 22.44299964 7 23 C9.82668853 24.45096179 12.40436494 26.17364697 15 28 C18.18762365 30.12508244 20.26512223 30.5020163 24 31 C21.46329896 28.46329896 17.20543683 27.25830207 13.98046875 25.765625 C5.08699322 20.49714408 2.58085154 9.36536278 0 0 Z M0 32 C1.62463842 32.05395478 3.24978541 32.09277195 4.875 32.125 C5.77992188 32.14820313 6.68484375 32.17140625 7.6171875 32.1953125 C10.18806994 32.24324836 10.18806994 32.24324836 12 30 C10.37536158 29.94604522 8.75021459 29.90722805 7.125 29.875 C6.22007812 29.85179687 5.31515625 29.82859375 4.3828125 29.8046875 C1.81193006 29.75675164 1.81193006 29.75675164 0 32 Z " fill="#FFFFFF" transform="translate(642,404)"/>
<path d="M0 0 C5.62648666 4.28231543 8.49818659 9.49844099 9.4765625 16.48828125 C9.80118904 23.97563531 8.36518623 30.21357112 3.2265625 35.82421875 C-3.2815108 41.79097783 -9.1294196 43.63721692 -17.90234375 43.78125 C-24.8379675 43.26622843 -29.97897007 40.67244477 -34.90234375 35.78125 C-40.05872908 29.12784958 -41.65962261 23.13885483 -40.90234375 14.78125 C-39.4714353 8.57313537 -36.47614932 3.29496043 -31.1640625 -0.44140625 C-21.52104209 -6.20243985 -9.45321935 -6.05627195 0 0 Z M-24.65234375 11.28125 C-27.51351164 14.71465147 -27.25595043 18.53796987 -26.90234375 22.78125 C-25.60015227 26.13456175 -23.95089423 28.949641 -21.08984375 31.21875 C-17.84776327 32.05242784 -15.23789034 32.13236017 -11.90234375 31.78125 C-8.35978316 29.57699008 -6.48880267 27.59713797 -4.90234375 23.78125 C-4.1707075 19.10218096 -4.49539014 15.61022959 -6.58984375 11.34375 C-9.02048512 8.65033659 -10.41674199 7.65265044 -13.90234375 6.78125 C-18.77320574 6.78125 -21.01677563 8.16504875 -24.65234375 11.28125 Z " fill="#FFFFFF" transform="translate(625.90234375,439.21875)"/>
<path d="M0 0 C3.98340305 -0.09973852 7.96631108 -0.17187198 11.95068359 -0.21972656 C13.96347627 -0.24946045 15.97592134 -0.30031729 17.98828125 -0.3515625 C25.4738017 -0.42679386 30.72548498 -0.2490041 37 4 C40.91688459 8.44698927 41.57657124 12.79432589 41.328125 18.6328125 C40.67146952 23.37011278 38.60366604 26.91114339 35 30 C36.28762994 34.68229069 38.30113472 38.27568067 40.9765625 42.265625 C42 44 42 44 42 46 C37.05 46 32.1 46 27 46 C26.154375 44.040625 25.30875 42.08125 24.4375 40.0625 C22.52266547 35.79713073 22.52266547 35.79713073 19.04296875 32.98046875 C16.92717014 32.66198876 16.92717014 32.66198876 14 33 C14.01160156 33.85464844 14.02320313 34.70929688 14.03515625 35.58984375 C14.04417969 36.69457031 14.05320312 37.79929687 14.0625 38.9375 C14.07410156 40.03964844 14.08570313 41.14179688 14.09765625 42.27734375 C14 45 14 45 13 46 C11.00200428 46.09873816 9.00042842 46.12971799 7 46.125 C5.906875 46.12757813 4.81375 46.13015625 3.6875 46.1328125 C1 46 1 46 0 45 C-0.0928726 43.58774954 -0.11746772 42.17091066 -0.11352539 40.75561523 C-0.11344986 39.85475693 -0.11337433 38.95389862 -0.11329651 38.02574158 C-0.10813522 37.04658279 -0.10297394 36.06742401 -0.09765625 35.05859375 C-0.0962413 34.06118668 -0.09482635 33.0637796 -0.09336853 32.03614807 C-0.08775114 28.83656876 -0.07519571 25.63705831 -0.0625 22.4375 C-0.05748724 20.27408955 -0.05292395 18.11067801 -0.04882812 15.94726562 C-0.03777607 10.63148675 -0.02102104 5.31574829 0 0 Z M14 10 C14 14.29 14 18.58 14 23 C20.64621199 23.59564456 20.64621199 23.59564456 26.625 21.375 C28.41142544 18.28935606 28.59713581 16.50817286 28 13 C25.8043956 10.84468192 24.49951615 10.0567632 21.421875 9.70703125 C20.09929688 9.75923828 20.09929688 9.75923828 18.75 9.8125 C16.39875 9.9053125 16.39875 9.9053125 14 10 Z " fill="#FFFFFF" transform="translate(540,436)"/>
<path d="M0 0 C12.54 0 25.08 0 38 0 C38 3.3 38 6.6 38 10 C30.08 10 22.16 10 14 10 C14 12.31 14 14.62 14 17 C14.63091553 16.99476318 15.26183105 16.98952637 15.91186523 16.98413086 C18.75373347 16.96342174 21.59558588 16.95035934 24.4375 16.9375 C25.92733398 16.92493164 25.92733398 16.92493164 27.44726562 16.91210938 C28.39150391 16.90888672 29.33574219 16.90566406 30.30859375 16.90234375 C31.62041626 16.89448853 31.62041626 16.89448853 32.95874023 16.88647461 C35 17 35 17 36 18 C36 21.3 36 24.6 36 28 C28.74 28 21.48 28 14 28 C14 30.31 14 32.62 14 35 C22.25 35 30.5 35 39 35 C39 38.3 39 41.6 39 45 C37.18434564 46.81565436 34.68730038 46.12861899 32.27111816 46.13894653 C31.47008667 46.1369223 30.66905518 46.13489807 29.84375 46.1328125 C28.61754944 46.13424759 28.61754944 46.13424759 27.36657715 46.13571167 C25.63484622 46.13639345 23.90311276 46.13453929 22.17138672 46.13037109 C19.51133518 46.12502279 16.8514525 46.13031612 14.19140625 46.13671875 C12.51302046 46.13605797 10.83463477 46.1347768 9.15625 46.1328125 C8.35521851 46.13483673 7.55418701 46.13686096 6.72888184 46.13894653 C1.11495079 46.11495079 1.11495079 46.11495079 0 45 C-0.0928726 43.58774954 -0.11746772 42.17091066 -0.11352539 40.75561523 C-0.11344986 39.85475693 -0.11337433 38.95389862 -0.11329651 38.02574158 C-0.10813522 37.04658279 -0.10297394 36.06742401 -0.09765625 35.05859375 C-0.0962413 34.06118668 -0.09482635 33.0637796 -0.09336853 32.03614807 C-0.08775114 28.83656876 -0.07519571 25.63705831 -0.0625 22.4375 C-0.05748724 20.27408955 -0.05292395 18.11067801 -0.04882812 15.94726562 C-0.03862505 10.63146226 -0.01905308 5.31580861 0 0 Z " fill="#FFFFFF" transform="translate(782,436)"/>
<path d="M0 0 C2.06539455 0.64446522 4.01458479 1.41706132 6.00390625 2.265625 C9.28096568 3.47127505 12.5341567 3.69054971 16 4 C4.44549837 19.77476287 4.44549837 19.77476287 -1 21 C-2.98 21 -4.96 21 -7 21 C-7 31.23 -7 41.46 -7 52 C-0.73 52 5.54 52 12 52 C12.09765625 60.49609375 12.09765625 60.49609375 12 63 C11 64 11 64 7.94897461 64.11352539 C6.60008731 64.11327443 5.25119355 64.10771815 3.90234375 64.09765625 C2.60546631 64.09515869 1.30858887 64.09266113 -0.02758789 64.09008789 C-1.68910889 64.08098389 -3.35062988 64.07187988 -5.0625 64.0625 C-10.321875 64.041875 -15.58125 64.02125 -21 64 C-21 48.82 -21 33.64 -21 18 C-19.02 17.34 -17.04 16.68 -15 16 C-14.195625 15.195625 -13.39125 14.39125 -12.5625 13.5625 C-9.49131862 10.49131862 -7.03060969 9.50159969 -3 8 C-9.23687536 8.17249973 -9.23687536 8.17249973 -14.5625 11.0625 C-15.036875 11.701875 -15.51125 12.34125 -16 13 C-16.66 12.67 -17.32 12.34 -18 12 C-14.11525736 3.05858119 -10.24342773 -1.4780785 0 0 Z " fill="#FFFFFF" transform="translate(704,418)"/>
<path d="M0 0 C3.983314 -0.12467036 7.96585506 -0.21483313 11.95068359 -0.2746582 C13.96362253 -0.31182827 15.97601837 -0.3753997 17.98828125 -0.43945312 C25.53532135 -0.53426519 31.32603016 -0.38284674 37 5 C40.64945437 9.90395431 40.6921348 15.10724119 40 21 C38.20646165 26.28097404 35.39000798 28.79895251 31 32 C27.68455701 33.10514766 24.79589889 33.32107631 21.3125 33.5625 C20.13300781 33.64628906 18.95351563 33.73007812 17.73828125 33.81640625 C16.83464844 33.87699219 15.93101562 33.93757813 15 34 C14.67 37.96 14.34 41.92 14 46 C9.71 46 5.42 46 1 46 C-0.1650499 43.6699002 -0.1209358 42.32752923 -0.11352539 39.73388672 C-0.11344986 38.85312469 -0.11337433 37.97236267 -0.11329651 37.06491089 C-0.10813522 36.11278717 -0.10297394 35.16066345 -0.09765625 34.1796875 C-0.0962413 33.20589142 -0.09482635 32.23209534 -0.09336853 31.22879028 C-0.08775973 28.11082927 -0.07520573 24.9929394 -0.0625 21.875 C-0.05748613 19.76432395 -0.05292303 17.65364678 -0.04882812 15.54296875 C-0.03778745 10.36195479 -0.02104073 5.18098248 0 0 Z M14 10 C13.97313447 11.97909398 13.95366625 13.95828971 13.9375 15.9375 C13.92589844 17.03964844 13.91429687 18.14179688 13.90234375 19.27734375 C13.68737429 21.91447634 13.68737429 21.91447634 15 23 C20.57979656 23.55603834 20.57979656 23.55603834 25.5 21.375 C27.44405832 18.29690766 27.608676 16.57597151 27 13 C25.63926464 10.91313108 25.63926464 10.91313108 23 10 C19.9820363 9.76625066 17.01989876 9.82577507 14 10 Z " fill="#FFFFFF" transform="translate(495,436)"/>
<path d="M0 0 C11.88 0 23.76 0 36 0 C36 3.3 36 6.6 36 10 C28.74 10 21.48 10 14 10 C14 12.97 14 15.94 14 19 C20.6 19 27.2 19 34 19 C34 22.63 34 26.26 34 30 C27.4 30 20.8 30 14 30 C14.0395679 34.89153471 14.0395679 34.89153471 14.09008789 39.78295898 C14.09724913 41.52221717 14.05024702 43.26145304 14 45 C13.505 45.495 13.505 45.495 13 46 C8.71 46 4.42 46 0 46 C0 30.82 0 15.64 0 0 Z " fill="#FFFFFF" transform="translate(742,436)"/>
<path d="M0 0 C2.97 0 5.94 0 9 0 C12.3 6.6 15.6 13.2 19 20 C21.00953063 17.32062583 22.66222101 14.98383471 24.26171875 12.109375 C24.65810547 11.40039062 25.05449219 10.69140625 25.46289062 9.9609375 C25.86701172 9.23132813 26.27113281 8.50171875 26.6875 7.75 C27.31108398 6.63238281 27.31108398 6.63238281 27.94726562 5.4921875 C28.96744233 3.66290513 29.98407487 1.83164698 31 0 C33.64 0 36.28 0 39 0 C39 11.22 39 22.44 39 34 C37.02 34 35.04 34 33 34 C33 26.41 33 18.82 33 11 C32.34 11 31.68 11 31 11 C30.91878906 11.66386719 30.83757813 12.32773437 30.75390625 13.01171875 C29.75192188 16.98331482 27.91366546 20.24584559 25.9375 23.8125 C25.56044922 24.50537109 25.18339844 25.19824219 24.79492188 25.91210938 C23.86916148 27.61128985 22.93537688 29.30609425 22 31 C20.35 31 18.7 31 17 31 C14.03 25.06 11.06 19.12 8 13 C7.67 19.93 7.34 26.86 7 34 C4.69 34 2.38 34 0 34 C0 22.78 0 11.56 0 0 Z " fill="#FFFFFF" transform="translate(495,531)"/>
<path d="M0 0 C3.34125 -0.0825 6.6825 -0.165 10.125 -0.25 C11.16672363 -0.28641602 12.20844727 -0.32283203 13.28173828 -0.36035156 C19.22122344 -0.43118212 22.47221495 0.07591962 27 4 C30.61512218 7.8159623 32.93801649 11.56335859 33.03515625 16.94921875 C32.54994623 23.16227385 30.07952355 27.1233568 25.4375 31.3125 C21.98830444 33.70040462 19.42128695 34.12370246 15.33203125 34.09765625 C14.52741455 34.09515869 13.72279785 34.09266113 12.89379883 34.09008789 C11.36855591 34.07643188 11.36855591 34.07643188 9.8125 34.0625 C4.9553125 34.0315625 4.9553125 34.0315625 0 34 C0 22.78 0 11.56 0 0 Z M7 6 C7 13.26 7 20.52 7 28 C14.87233075 28.61981229 14.87233075 28.61981229 22.125 26.3125 C25.15025825 22.58134816 26.04818844 20.34927631 25.875 15.5 C24.92080906 11.68323625 23.71834365 9.8007177 21 7 C18.23547967 5.61773984 15.9538637 5.90474613 12.875 5.9375 C10.93625 5.958125 8.9975 5.97875 7 6 Z " fill="#FFFFFF" transform="translate(575,531)"/>
<path d="M0 0 C3.196875 -0.061875 6.39375 -0.12375 9.6875 -0.1875 C11.18543091 -0.22846802 11.18543091 -0.22846802 12.71362305 -0.27026367 C17.6083792 -0.31612889 21.10462817 -0.31441772 25 3 C28.45222059 6.65662839 28.55274027 9.58751984 28.4375 14.44921875 C27.72651386 18.59452184 25.72955008 20.8610174 23 24 C23.433125 24.62648438 23.86625 25.25296875 24.3125 25.8984375 C24.869375 26.71570313 25.42625 27.53296875 26 28.375 C26.556875 29.18710937 27.11375 29.99921875 27.6875 30.8359375 C29 33 29 33 29 35 C25.9375 35.625 25.9375 35.625 22 35 C20.2578125 32.7734375 20.2578125 32.7734375 18.5625 30 C16.41584597 26.23915924 16.41584597 26.23915924 12.78125 24.3359375 C10.32406057 24.32170164 10.32406057 24.32170164 7 25 C7.01160156 25.63808594 7.02320313 26.27617188 7.03515625 26.93359375 C7.04417969 27.75988281 7.05320312 28.58617187 7.0625 29.4375 C7.07410156 30.26121094 7.08570313 31.08492187 7.09765625 31.93359375 C7 34 7 34 6 35 C4.02 35 2.04 35 0 35 C0 23.45 0 11.9 0 0 Z M6 6 C6 9.96 6 13.92 6 18 C8.10353495 18.0810206 10.20795952 18.13919907 12.3125 18.1875 C13.48425781 18.22230469 14.65601563 18.25710938 15.86328125 18.29296875 C18.95321666 18.26497976 18.95321666 18.26497976 20.89453125 16.67578125 C22.62064064 14.05917019 22.38086549 12.04692394 22 9 C20.95663946 7.19433115 20.95663946 7.19433115 19 6 C15.79861932 5.6363838 15.79861932 5.6363838 12.3125 5.8125 C11.13300781 5.83957031 9.95351563 5.86664063 8.73828125 5.89453125 C7.38283203 5.94673828 7.38283203 5.94673828 6 6 Z " fill="#FFFFFF" transform="translate(533,487)"/>
<path d="M0 0 C4.29 0 8.58 0 13 0 C13 15.18 13 30.36 13 46 C8.71 46 4.42 46 0 46 C0 30.82 0 15.64 0 0 Z " fill="#FFFFFF" transform="translate(721,436)"/>
<path d="M0 0 C8.58 0 17.16 0 26 0 C26 1.98 26 3.96 26 6 C19.73 6 13.46 6 7 6 C7 8.64 7 11.28 7 14 C12.61 14 18.22 14 24 14 C24 15.98 24 17.96 24 20 C18.39 20 12.78 20 7 20 C7.33 22.64 7.66 25.28 8 28 C14.27 28.33 20.54 28.66 27 29 C27 30.65 27 32.3 27 34 C25.25454395 35.74545605 22.83875783 35.1302316 20.46875 35.1328125 C19.34855469 35.13410156 18.22835937 35.13539063 17.07421875 35.13671875 C15.89472656 35.13285156 14.71523438 35.12898437 13.5 35.125 C11.73076172 35.13080078 11.73076172 35.13080078 9.92578125 35.13671875 C8.24548828 35.13478516 8.24548828 35.13478516 6.53125 35.1328125 C5.49548828 35.13168457 4.45972656 35.13055664 3.39257812 35.12939453 C1 35 1 35 0 34 C-0.08847743 31.47905924 -0.11527301 28.98569107 -0.09765625 26.46484375 C-0.0962413 25.71159317 -0.09482635 24.95834259 -0.09336853 24.18226624 C-0.08775376 21.7673044 -0.07519883 19.35243399 -0.0625 16.9375 C-0.0574869 15.30403779 -0.05292366 13.67057414 -0.04882812 12.03710938 C-0.03862875 8.0246757 -0.01905645 4.01244064 0 0 Z " fill="#FFFFFF" transform="translate(717,487)"/>
<path d="M0 0 C8.58 0 17.16 0 26 0 C26 1.65 26 3.3 26 5 C25 6 25 6 23.23413086 6.11352539 C22.48526611 6.10828857 21.73640137 6.10305176 20.96484375 6.09765625 C20.15595703 6.09443359 19.34707031 6.09121094 18.51367188 6.08789062 C17.66353516 6.07951172 16.81339844 6.07113281 15.9375 6.0625 C15.08349609 6.05798828 14.22949219 6.05347656 13.34960938 6.04882812 C11.23304337 6.03700373 9.11651315 6.01906769 7 6 C7 8.64 7 11.28 7 14 C12.61 14 18.22 14 24 14 C24 15.98 24 17.96 24 20 C18.39 20 12.78 20 7 20 C7 22.64 7 25.28 7 28 C13.27 28 19.54 28 26 28 C26 29.98 26 31.96 26 34 C17.42 34 8.84 34 0 34 C0 22.78 0 11.56 0 0 Z " fill="#FFFFFF" transform="translate(542,531)"/>
<path d="M0 0 C8.25 0 16.5 0 25 0 C25 1.98 25 3.96 25 6 C18.73 6 12.46 6 6 6 C6 8.64 6 11.28 6 14 C11.61 14 17.22 14 23 14 C23 15.98 23 17.96 23 20 C17.39 20 11.78 20 6 20 C6.33 22.64 6.66 25.28 7 28 C13.27 28.33 19.54 28.66 26 29 C26 30.65 26 32.3 26 34 C25 35 25 35 22.59155273 35.11352539 C21.54942627 35.10828857 20.5072998 35.10305176 19.43359375 35.09765625 C18.42095459 35.09515869 17.40831543 35.09266113 16.36499023 35.09008789 C15.06891846 35.08098389 13.77284668 35.07187988 12.4375 35.0625 C8.333125 35.041875 4.22875 35.02125 0 35 C0 23.45 0 11.9 0 0 Z " fill="#FFFFFF" transform="translate(569,487)"/>
<path d="M0 0 C2.64 0 5.28 0 8 0 C9.99839156 4.661142 11.9920982 9.3242485 13.98144531 13.98925781 C14.65918895 15.57672445 15.33822092 17.16364168 16.01855469 18.75 C16.99491297 21.02722049 17.96665631 23.30636152 18.9375 25.5859375 C19.24373291 26.29744965 19.54996582 27.00896179 19.86547852 27.74203491 C22 32.77225659 22 32.77225659 22 35 C19.1875 35.25 19.1875 35.25 16 35 C13.73599988 32.73599988 13.01741456 31.05224368 12 28 C6.39 27.67 0.78 27.34 -5 27 C-5.66 28.98 -6.32 30.96 -7 33 C-7.33 33.66 -7.66 34.32 -8 35 C-9.98 35 -11.96 35 -14 35 C-14.33 34.34 -14.66 33.68 -15 33 C-14.01638321 30.46483465 -12.96788731 28.0442978 -11.81640625 25.5859375 C-11.48205063 24.85629791 -11.14769501 24.12665833 -10.8032074 23.37490845 C-9.73032641 21.03813835 -8.64656844 18.70659801 -7.5625 16.375 C-6.83456615 14.79460241 -6.10734319 13.21387717 -5.38085938 11.6328125 C-3.59547578 7.75135401 -1.80031927 3.87455214 0 0 Z M3 8 C2.16209211 9.78953185 1.32980604 11.58169695 0.5 13.375 C0.0359375 14.37273437 -0.428125 15.37046875 -0.90625 16.3984375 C-2.1291873 18.83692626 -2.1291873 18.83692626 -2 21 C1.63 21 5.26 21 9 21 C8.566875 19.411875 8.13375 17.82375 7.6875 16.1875 C7.32205078 14.84751953 7.32205078 14.84751953 6.94921875 13.48046875 C5.9799181 10.94752262 5.04990396 9.7283504 3 8 Z " fill="#FFFFFF" transform="translate(612,487)"/>
<path d="M0 0 C2.64 0 5.28 0 8 0 C9.99849013 4.51862263 11.99219318 9.03931457 13.98144531 13.56201172 C14.65916131 15.10100534 15.33819312 16.63942021 16.01855469 18.17724609 C16.99498599 20.38489179 17.9667014 22.59456015 18.9375 24.8046875 C19.24373291 25.49432587 19.54996582 26.18396423 19.86547852 26.89450073 C22 31.77225659 22 31.77225659 22 34 C19.69 34 17.38 34 15 34 C14.01 32.02 13.02 30.04 12 28 C6.39 27.67 0.78 27.34 -5 27 C-5.66 28.98 -6.32 30.96 -7 33 C-8 34 -8 34 -11.5625 34.0625 C-12.696875 34.041875 -13.83125 34.02125 -15 34 C-13.43909152 30.39514208 -11.87597172 26.79124687 -10.3125 23.1875 C-9.65991211 21.68026367 -9.65991211 21.68026367 -8.99414062 20.14257812 C-6.06552646 13.39591884 -3.06583266 6.6854133 0 0 Z M3 8 C2.16209211 9.78953185 1.32980604 11.58169695 0.5 13.375 C0.0359375 14.37273438 -0.428125 15.37046875 -0.90625 16.3984375 C-2.1291873 18.83692626 -2.1291873 18.83692626 -2 21 C1.63 21 5.26 21 9 21 C8.566875 19.411875 8.13375 17.82375 7.6875 16.1875 C7.32205078 14.84751953 7.32205078 14.84751953 6.94921875 13.48046875 C5.9799181 10.94752262 5.04990396 9.7283504 3 8 Z " fill="#FFFFFF" transform="translate(639,531)"/>
<path d="M0 0 C1.6484375 1.09765625 1.6484375 1.09765625 4.0234375 3.03515625 C3.3634375 4.68515625 2.7034375 6.33515625 2.0234375 8.03515625 C-0.9765625 8.03515625 -0.9765625 8.03515625 -3.7265625 6.47265625 C-7.77888133 4.68028446 -9.74418043 4.80391783 -13.9765625 6.03515625 C-17.15577346 8.45412111 -18.6632377 10.13434744 -19.9765625 13.91015625 C-19.9765625 18.03908645 -19.05913148 20.47463509 -16.9765625 24.03515625 C-13.51378713 26.55353834 -11.69627709 27.07303597 -7.4140625 26.84765625 C-4.42373107 26.14085064 -1.76828303 25.30412013 1.0234375 24.03515625 C2.0134375 25.02515625 3.0034375 26.01515625 4.0234375 27.03515625 C2.89402846 30.42338337 2.53827271 30.6614023 -0.4765625 32.22265625 C-5.02357635 34.34133654 -9.02859661 34.78930718 -13.9765625 34.03515625 C-19.19886271 32.1270081 -23.13122363 28.99673157 -26.09375 24.2421875 C-27.8996423 19.72745676 -27.49376425 14.79852053 -26.9765625 10.03515625 C-24.37014603 4.62925542 -20.65145959 1.34150134 -15.2890625 -1.27734375 C-10.15142749 -2.34364536 -4.80162773 -2.34387757 0 0 Z " fill="#FFFFFF" transform="translate(522.9765625,487.96484375)"/>
<path d="M0 0 C2.31 0 4.62 0 7 0 C16 21.1352459 16 21.1352459 16 26 C16.66 26 17.32 26 18 26 C18.08121094 25.22398437 18.16242187 24.44796875 18.24609375 23.6484375 C19.26578786 18.71375203 21.14359163 14.27147588 23.0625 9.625 C23.43955078 8.69816406 23.81660156 7.77132813 24.20507812 6.81640625 C25.13126396 4.54197521 26.06302668 2.27000333 27 0 C29.31 0 31.62 0 34 0 C31.61045142 7.46931741 28.80000396 14.72542242 25.875 22 C25.41996094 23.14339844 24.96492187 24.28679687 24.49609375 25.46484375 C24.06167969 26.54894531 23.62726562 27.63304687 23.1796875 28.75 C22.78507324 29.73484375 22.39045898 30.7196875 21.98388672 31.734375 C21 34 21 34 20 35 C18.00041636 35.04080783 15.99954746 35.04254356 14 35 C10.24724259 27.83339276 7.09779543 20.54449297 4.1875 13 C3.78080078 11.96488281 3.37410156 10.92976563 2.95507812 9.86328125 C0 2.26450893 0 2.26450893 0 0 Z " fill="#FFFFFF" transform="translate(679,487)"/>
<path d="M0 0 C0.35191406 0.78117187 0.35191406 0.78117187 0.7109375 1.578125 C2.76092095 5.42960906 5.34707739 8.97815639 7.8984375 12.515625 C11.06691012 17.20661044 11.66925758 20.34592735 11 26 C9.7578125 28.53125 9.7578125 28.53125 8.125 30.5 C7.59132813 31.1703125 7.05765625 31.840625 6.5078125 32.53125 C5 34 5 34 3 34 C3.165 33.319375 3.33 32.63875 3.5 31.9375 C4.32031472 27.11815104 4.29776764 22.70698263 3 18 C2.90203125 18.71285156 2.8040625 19.42570312 2.703125 20.16015625 C1.7435225 26.30657573 0.58989352 30.88712136 -3 36 C-3.99 36.66 -4.98 37.32 -6 38 C-6.28875 36.80375 -6.5775 35.6075 -6.875 34.375 C-7.50707775 31.80605542 -8.20981303 29.42884231 -9.125 26.9375 C-10.62562824 21.89967663 -10.63593654 17.87296674 -8.375 13.125 C-5.88625585 8.55931828 -2.96366781 4.26768164 0 0 Z " fill="#FFFFFF" transform="translate(680,393)"/>
<path d="M0 0 C9.24 0 18.48 0 28 0 C28 1.98 28 3.96 28 6 C24.37 6 20.74 6 17 6 C17 15.57 17 25.14 17 35 C15.02 35 13.04 35 11 35 C10 34 10 34 9.88647461 31.31616211 C9.89171143 30.14835205 9.89694824 28.98054199 9.90234375 27.77734375 C9.90556641 26.51728516 9.90878906 25.25722656 9.91210938 23.95898438 C9.92046597 22.61848891 9.92893093 21.27799412 9.9375 19.9375 C9.9425134 18.59310058 9.94707658 17.2486994 9.95117188 15.90429688 C9.96300512 12.60282059 9.97949029 9.30143197 10 6 C6.7 6 3.4 6 0 6 C0 4.02 0 2.04 0 0 Z " fill="#FFFFFF" transform="translate(635,487)"/>
<path d="M0 0 C2.31 0 4.62 0 7 0 C7 11.22 7 22.44 7 34 C4.69 34 2.38 34 0 34 C0 22.78 0 11.56 0 0 Z " fill="#FFFFFF" transform="translate(613,531)"/>
<path d="M0 0 C1.98 0 3.96 0 6 0 C6 11.55 6 23.1 6 35 C4.02 35 2.04 35 0 35 C0 23.45 0 11.9 0 0 Z " fill="#FFFFFF" transform="translate(668,487)"/>
<path d="" fill="#FFFFFF" transform="translate(0,0)"/>
<path d="" fill="#FFFFFF" transform="translate(0,0)"/>
</svg>
