<?xml version="1.0" encoding="UTF-8"?>
<svg version="1.1" xmlns="http://www.w3.org/2000/svg" width="1000" height="1000">
<path d="M0 0 C4.42908378 -0.07460234 8.8578269 -0.12881371 13.28735352 -0.16479492 C14.79165017 -0.17980722 16.29590361 -0.20022353 17.80004883 -0.22631836 C19.97227696 -0.26303816 22.14392251 -0.27980161 24.31640625 -0.29296875 C25.62037354 -0.3086792 26.92434082 -0.32438965 28.26782227 -0.34057617 C33.16600946 0.10640303 37.04579493 1.42402817 40.9375 4.5625 C42 6 42 6 42 8 C42.66 8 43.32 8 44 8 C49.54054054 12.86486486 49.54054054 12.86486486 50 17 C50.66 17 51.32 17 52 17 C52 18.32 52 19.64 52 21 C52.66 21 53.32 21 54 21 C53.98259766 22.06541016 53.98259766 22.06541016 53.96484375 23.15234375 C53.95582031 24.07144531 53.94679688 24.99054688 53.9375 25.9375 C53.92009766 27.31228516 53.92009766 27.31228516 53.90234375 28.71484375 C53.74050951 30.96593327 53.74050951 30.96593327 55 32 C55.09899523 33.54955559 55.13079524 35.10353673 55.1328125 36.65625 C55.13410156 37.59597656 55.13539063 38.53570312 55.13671875 39.50390625 C55.13285156 40.49261719 55.12898437 41.48132813 55.125 42.5 C55.12886719 43.48871094 55.13273438 44.47742188 55.13671875 45.49609375 C55.13478516 46.90568359 55.13478516 46.90568359 55.1328125 48.34375 C55.13168457 49.21193359 55.13055664 50.08011719 55.12939453 50.97460938 C55 53 55 53 54 54 C53.95919217 55.99958364 53.95745644 58.00045254 54 60 C53.34 60 52.68 60 52 60 C52 61.32 52 62.64 52 64 C51.34 64 50.68 64 50 64 C50 65.65 50 67.3 50 69 C49.34 69 48.68 69 48 69 C48 70.32 48 71.64 48 73 C47.34 73 46.68 73 46 73 C46 74.32 46 75.64 46 77 C46.66 77 47.32 77 48 77 C48 78.65 48 80.3 48 82 C48.66 82 49.32 82 50 82 C50 83.32 50 84.64 50 86 C50.66 86 51.32 86 52 86 C53.27253436 89.64793184 54.32829194 93.1936543 55 97 C55.66 97 56.32 97 57 97 C57 98.32 57 99.64 57 101 C57.66 101 58.32 101 59 101 C59 102.32 59 103.64 59 105 C59.66 105 60.32 105 61 105 C61 106.98 61 108.96 61 111 C58.54724859 112.2263757 56.9494219 112.11415314 54.2109375 112.09765625 C53.26992188 112.09443359 52.32890625 112.09121094 51.359375 112.08789062 C50.37453125 112.07951172 49.3896875 112.07113281 48.375 112.0625 C47.38242187 112.05798828 46.38984375 112.05347656 45.3671875 112.04882812 C42.9113984 112.03702145 40.45572896 112.020554 38 112 C38 112.66 38 113.32 38 114 C37.03578125 114.06058594 36.0715625 114.12117188 35.078125 114.18359375 C33.81484375 114.26738281 32.5515625 114.35117187 31.25 114.4375 C29.37054688 114.55931641 29.37054688 114.55931641 27.453125 114.68359375 C24.81682447 114.92515522 22.51962706 115.24283934 20 116 C20 117.32 20 118.64 20 120 C19.34 120 18.68 120 18 120 C17.855625 120.5775 17.71125 121.155 17.5625 121.75 C17.04166667 123.83333333 16.52083333 125.91666667 16 128 C17.32 127.67 18.64 127.34 20 127 C20 126.34 20 125.68 20 125 C21.32 125 22.64 125 24 125 C24 124.34 24 123.68 24 123 C24.99 123 25.98 123 27 123 C27 122.34 27 121.68 27 121 C31.95 121 36.9 121 42 121 C42 121.66 42 122.32 42 123 C43.32 123 44.64 123 46 123 C49.72280197 125.84684856 50.83406171 128.53386351 52 133 C52.37092993 136.62070831 52.50673302 140.23829051 52.625 143.875 C52.68300781 145.33679688 52.68300781 145.33679688 52.7421875 146.828125 C52.83593033 149.2185672 52.9216383 151.60901244 53 154 C53.66 152.35 54.32 150.7 55 149 C55.66 149 56.32 149 57 149 C57.28875 148.030625 57.5775 147.06125 57.875 146.0625 C59 143 59 143 61 142 C61.65213292 139.97536745 61.65213292 139.97536745 62 138 C62.66 138 63.32 138 64 138 C64 137.34 64 136.68 64 136 C65.65002828 134.64613064 67.3174387 133.31321858 69 132 C69.33 131.34 69.66 130.68 70 130 C70.66 130 71.32 130 72 130 C72 129.01 72 128.02 72 127 C72.66 127 73.32 127 74 127 C74.309375 126.38125 74.61875 125.7625 74.9375 125.125 C77 121 77 121 78.9375 119.875 C83.29744893 118.62930031 87.49601581 118.84257919 92 119 C92.33 119.99 92.66 120.98 93 122 C93.66 122.33 94.32 122.66 95 123 C95.05399736 124.45792884 95.09279177 125.91642712 95.125 127.375 C95.14820313 128.18710937 95.17140625 128.99921875 95.1953125 129.8359375 C95 132 95 132 93 134 C93 135.32 93 136.64 93 138 C92.01 138 91.02 138 90 138 C90.20625 138.556875 90.4125 139.11375 90.625 139.6875 C91.10695211 142.659538 90.26565028 144.31979941 89 147 C88.34 147 87.68 147 87 147 C87 148.98 87 150.96 87 153 C86.34 153 85.68 153 85 153 C85.0309375 154.2065625 85.0309375 154.2065625 85.0625 155.4375 C85 158 85 158 84 159 C83.835 160.155 83.67 161.31 83.5 162.5 C83 166 83 166 82 167 C81.92794489 168.68608966 81.91613932 170.37500659 81.9375 172.0625 C81.94652344 172.98160156 81.95554687 173.90070313 81.96484375 174.84765625 C81.97644531 175.55792969 81.98804688 176.26820313 82 177 C87.00284542 176.52353853 90.03079315 175.06711438 94 172 C94.66 171.01 95.32 170.02 96 169 C96.66 169 97.32 169 98 169 C98 168.01 98 167.02 98 166 C98.66 166 99.32 166 100 166 C100.66 164.68 101.32 163.36 102 162 C103.65 162.33 105.3 162.66 107 163 C107 164.65 107 166.3 107 168 C106.34 168 105.68 168 105 168 C104.814375 169.2065625 104.814375 169.2065625 104.625 170.4375 C104.41875 171.283125 104.2125 172.12875 104 173 C103.34 173.33 102.68 173.66 102 174 C102.99 174.33 103.98 174.66 105 175 C105 175.66 105 176.32 105 177 C109.95 177 114.9 177 120 177 C120 176.34 120 175.68 120 175 C121.66666667 173.33333333 123.33333333 171.66666667 125 170 C125 169.34 125 168.68 125 168 C125.99 167.34 126.98 166.68 128 166 C128.73343428 162.93443402 128.73343428 162.93443402 129 160 C129.66 160 130.32 160 131 160 C131 158.68 131 157.36 131 156 C131.66 156 132.32 156 133 156 C133 154.35 133 152.7 133 151 C133.66 151 134.32 151 135 151 C134.67 149.68 134.34 148.36 134 147 C134.66 147 135.32 147 136 147 C136 145.35 136 143.7 136 142 C136.66 142 137.32 142 138 142 C137.9175 141.05125 137.835 140.1025 137.75 139.125 C137.70784024 133.99204922 139.92614984 129.60135505 142 125 C141.113125 125.33 140.22625 125.66 139.3125 126 C136.29076653 126.91222143 134.11626294 127.18330958 131 127 C131 127.66 131 128.32 131 129 C129.68 129 128.36 129 127 129 C126.34 130.32 125.68 131.64 125 133 C124.34 133 123.68 133 123 133 C123 134.65 123 136.3 123 138 C124.65 138.66 126.3 139.32 128 140 C128.042721 141.66611905 128.04063832 143.33382885 128 145 C127 146 127 146 124.6875 146.3125 C121.2027222 145.90729328 120.14456865 144.70056793 118 142 C118 141.34 118 140.68 118 140 C117.34 140 116.68 140 116 140 C116 135.71 116 131.42 116 127 C116.66 127 117.32 127 118 127 C118 125.68 118 124.36 118 123 C118.66 123 119.32 123 120 123 C120 122.34 120 121.68 120 121 C121.55780332 120.32243118 123.12150096 119.65840543 124.6875 119 C125.55761719 118.62875 126.42773438 118.2575 127.32421875 117.875 C130.0572002 116.98129512 132.14700934 116.83550324 135 117 C135 116.34 135 115.68 135 115 C137.8746491 114.80413816 140.74938283 114.61806201 143.625 114.4375 C144.83736328 114.35338867 144.83736328 114.35338867 146.07421875 114.26757812 C150.56162516 113.99395578 154.56862499 114.03198119 159 115 C159 115.66 159 116.32 159 117 C160.65 117 162.3 117 164 117 C164 117.66 164 118.32 164 119 C165.32 119 166.64 119 168 119 C168.38063221 121.3260857 168.71269945 123.66055264 169 126 C168 127 168 127 165.4375 127.0625 C164.633125 127.041875 163.82875 127.02125 163 127 C163 126.34 163 125.68 163 125 C159.37 125.33 155.74 125.66 152 126 C151.67 127.65 151.34 129.3 151 131 C150.66666667 132.66666667 150.33333333 134.33333333 150 136 C149.34 136 148.68 136 148 136 C148 137.98 148 139.96 148 142 C147.34 142 146.68 142 146 142 C146 143.32 146 144.64 146 146 C145.34 146 144.68 146 144 146 C143.87625 147.27875 143.7525 148.5575 143.625 149.875 C143.25 153.75 143.25 153.75 141 156 C140.61781233 157.65614657 140.28604898 159.32457024 140 161 C139.67 161.99 139.34 162.98 139 164 C138.34 164 137.68 164 137 164 C137 165.32 137 166.64 137 168 C136.34 168 135.68 168 135 168 C135 169.32 135 170.64 135 172 C133.68 172.33 132.36 172.66 131 173 C130.67 174.32 130.34 175.64 130 177 C134.29 177.33 138.58 177.66 143 178 C143.33 178.99 143.66 179.98 144 181 C144.66 181 145.32 181 146 181 C146.33 179.02 146.66 177.04 147 175 C147.99 175 148.98 175 150 175 C150.3403125 173.6696875 150.3403125 173.6696875 150.6875 172.3125 C152.18389846 168.5358753 153.92491737 166.61382024 157 164 C157.66 164 158.32 164 159 164 C159 163.34 159 162.68 159 162 C159.66 162 160.32 162 161 162 C161 161.34 161 160.68 161 160 C161.66 160 162.32 160 163 160 C163.33 158.35 163.66 156.7 164 155 C164.66 155 165.32 155 166 155 C166 154.34 166 153.68 166 153 C167.875 150.875 167.875 150.875 170 149 C170.66 149 171.32 149 172 149 C172 148.34 172 147.68 172 147 C172.66 147 173.32 147 174 147 C174 146.34 174 145.68 174 145 C174.66 145 175.32 145 176 145 C176 144.34 176 143.68 176 143 C177.375 141.375 177.375 141.375 179 140 C179.66 140 180.32 140 181 140 C180.67 138.35 180.34 136.7 180 135 C176.7 135 173.4 135 170 135 C170 133.35 170 131.7 170 130 C170.66 130 171.32 130 172 130 C172 129.34 172 128.68 172 128 C173.4540625 127.814375 173.4540625 127.814375 174.9375 127.625 C176.4534375 127.315625 176.4534375 127.315625 178 127 C178.33 126.34 178.66 125.68 179 125 C179.66 125 180.32 125 181 125 C181 124.34 181 123.68 181 123 C181.66 123 182.32 123 183 123 C183.66 121.02 184.32 119.04 185 117 C185.66 117 186.32 117 187 117 C187 116.34 187 115.68 187 115 C189.40545638 113.79727181 190.94996953 113.89928528 193.625 113.9375 C194.44226563 113.94652344 195.25953125 113.95554687 196.1015625 113.96484375 C196.72804688 113.97644531 197.35453125 113.98804688 198 114 C198 116.64 198 119.28 198 122 C197.34 122 196.68 122 196 122 C196 122.99 196 123.98 196 125 C195.34 125 194.68 125 194 125 C194 125.99 194 126.98 194 128 C195.32 127.67 196.64 127.34 198 127 C198 126.34 198 125.68 198 125 C199.32 125 200.64 125 202 125 C202 124.34 202 123.68 202 123 C202.99 123 203.98 123 205 123 C205 122.34 205 121.68 205 121 C209.95 121 214.9 121 220 121 C220 121.66 220 122.32 220 123 C221.32 123 222.64 123 224 123 C226.25 124.75 226.25 124.75 228 127 C228 128.32 228 129.64 228 131 C228.66 131 229.32 131 230 131 C230 132.98 230 134.96 230 137 C230.66 137.33 231.32 137.66 232 138 C232 139.98 232 141.96 232 144 C231.34 144 230.68 144 230 144 C230.33 146.97 230.66 149.94 231 153 C231.66 153 232.32 153 233 153 C233 152.34 233 151.68 233 151 C233.66 151 234.32 151 235 151 C235.061875 149.741875 235.12375 148.48375 235.1875 147.1875 C235.44921875 144.96484375 235.44921875 144.96484375 236 143 C238.5 141.25 238.5 141.25 241 140 C241.34342449 138.66923011 241.67619874 137.33568021 242 136 C244.375 133.9375 244.375 133.9375 247 132 C249.55197244 129.81259505 250.42658837 128.32578745 251 125 C251.66 125 252.32 125 253 125 C253 124.34 253 123.68 253 123 C253.66 123 254.32 123 255 123 C255 122.34 255 121.68 255 121 C259.51492784 118.66971466 264.01932524 118.39412185 269 119 C271.27734375 120.015625 271.27734375 120.015625 273 121 C273.05418326 123.08304538 273.09287551 125.16649768 273.125 127.25 C273.14820313 128.41015625 273.17140625 129.5703125 273.1953125 130.765625 C273.00925052 133.84681133 272.71695953 135.4785909 271 138 C270.34 138.33 269.68 138.66 269 139 C268.38567131 141.31850007 268.38567131 141.31850007 268 144 C267.66666667 145.66666667 267.33333333 147.33333333 267 149 C266.34 149 265.68 149 265 149 C265 150.32 265 151.64 265 153 C264.34 153 263.68 153 263 153 C263.0309375 154.2065625 263.0309375 154.2065625 263.0625 155.4375 C263 158 263 158 262 159 C261.76807135 160.51469448 261.58784762 162.03754562 261.4375 163.5625 C261.35371094 164.38878906 261.26992188 165.21507812 261.18359375 166.06640625 C261.12300781 166.70449219 261.06242187 167.34257812 261 168 C260.34 168 259.68 168 259 168 C259.185625 169.11375 259.37125 170.2275 259.5625 171.375 C260 175 260 175 259 177 C261.8639205 178.31102041 261.8639205 178.31102041 264.0859375 177.1796875 C268.70525564 174.54683382 272.40853046 171.99052171 276 168 C278.5625 165.1875 278.5625 165.1875 281 163 C282.32 163 283.64 163 285 163 C285.33 164.32 285.66 165.64 286 167 C285.01 167.33 284.02 167.66 283 168 C283 169.32 283 170.64 283 172 C281.515 172.99 281.515 172.99 280 174 C281.65 174.33 283.3 174.66 285 175 C285 175.66 285 176.32 285 177 C291.04721389 178.32838132 291.04721389 178.32838132 296.9296875 177.12890625 C300.19318046 174.52298277 301.64616552 171.8532212 303 168 C304.485 167.01 304.485 167.01 306 166 C306.72382467 163.94074861 306.72382467 163.94074861 307 162 C307.66 162 308.32 162 309 162 C309 160.02 309 158.04 309 156 C309.66 156 310.32 156 311 156 C311 155.01 311 154.02 311 153 C311.66 153 312.32 153 313 153 C312.67 151.02 312.34 149.04 312 147 C312.66 147 313.32 147 314 147 C314 145.35 314 143.7 314 142 C314.66 142 315.32 142 316 142 C316 140.02 316 138.04 316 136 C316.66 136 317.32 136 318 136 C318 134.02 318 132.04 318 130 C318.66 130 319.32 130 320 130 C320 128.35 320 126.7 320 125 C318.35 125 316.7 125 315 125 C315 125.66 315 126.32 315 127 C313.02 127 311.04 127 309 127 C309 127.66 309 128.32 309 129 C307.68 129 306.36 129 305 129 C304.71125 129.61875 304.4225 130.2375 304.125 130.875 C303 133 303 133 301 135 C301.32041397 137.60280568 301.32041397 137.60280568 302 140 C303.32 140 304.64 140 306 140 C306 141.98 306 143.96 306 146 C302.29706315 146.33663062 300.60465619 146.47736015 297.625 144.125 C296 142 296 142 296 140 C295.34 140 294.68 140 294 140 C294 135.71 294 131.42 294 127 C294.66 127 295.32 127 296 127 C296 125.68 296 124.36 296 123 C297.32 123 298.64 123 300 123 C300 122.34 300 121.68 300 121 C305.22771463 117.95842058 308.92671312 116.49389276 315 117 C315 116.34 315 115.68 315 115 C317.54126172 114.80382184 320.08260459 114.61782752 322.625 114.4375 C323.33785156 114.38142578 324.05070312 114.32535156 324.78515625 114.26757812 C329.03668104 113.97504202 332.79456347 114.10452061 337 115 C337 115.66 337 116.32 337 117 C337.804375 116.979375 338.60875 116.95875 339.4375 116.9375 C342 117 342 117 343 118 C346.20049657 118.17299981 348.92954549 117.9097643 352 117 C352 116.34 352 115.68 352 115 C356.83531676 114.21780498 361.47093764 113.87161735 366.3671875 113.8671875 C367.38572311 113.86575241 367.38572311 113.86575241 368.42483521 113.86428833 C369.85174656 113.86361239 371.27866109 113.86542547 372.70556641 113.86962891 C374.86237679 113.87496875 377.01897737 113.86967251 379.17578125 113.86328125 C393.88951956 113.85181037 393.88951956 113.85181037 400 115 C400.66 115.99 401.32 116.98 402 118 C403.010625 118.433125 404.02125 118.86625 405.0625 119.3125 C408 121 408 121 408.875 124.1875 C408.936875 125.5796875 408.936875 125.5796875 409 127 C409.66 127 410.32 127 411 127 C411 131.29 411 135.58 411 140 C410.34 140 409.68 140 409 140 C408.67 141.98 408.34 143.96 408 146 C407.38125 146.061875 406.7625 146.12375 406.125 146.1875 C403.72238859 146.828919 403.72238859 146.828919 402.75 149.5625 C402.5025 150.366875 402.255 151.17125 402 152 C400.68 151.67 399.36 151.34 398 151 C398 151.66 398 152.32 398 153 C396.68 153 395.36 153 394 153 C394 153.66 394 154.32 394 155 C392.35 155 390.7 155 389 155 C389 155.66 389 156.32 389 157 C383.21642935 159.01167675 378.09781001 159.22084624 372 159 C372 159.66 372 160.32 372 161 C369.69 161.33 367.38 161.66 365 162 C365 162.66 365 163.32 365 164 C365.66 164 366.32 164 367 164 C367.12375 164.639375 367.2475 165.27875 367.375 165.9375 C367.58125 166.618125 367.7875 167.29875 368 168 C368.66 168.33 369.32 168.66 370 169 C370 169.66 370 170.32 370 171 C370.66 171 371.32 171 372 171 C372 171.66 372 172.32 372 173 C372.99 173.33 373.98 173.66 375 174 C375.3721042 175.32303717 375.70630173 176.65737935 376 178 C376.66 178.33 377.32 178.66 378 179 C378 179.66 378 180.32 378 181 C378.66 181 379.32 181 380 181 C381.625 182.375 381.625 182.375 383 184 C383 184.66 383 185.32 383 186 C384.32 186 385.64 186 387 186 C389.75 188.5 389.75 188.5 392 191 C392.33 190.01 392.66 189.02 393 188 C392.34 188 391.68 188 391 188 C391 187.34 391 186.68 391 186 C390.01 186 389.02 186 388 186 C387.90234375 179.84765625 387.90234375 179.84765625 388 178 C389 177 389 177 392.0625 176.9375 C393.031875 176.958125 394.00125 176.97875 395 177 C395.33 178.98 395.66 180.96 396 183 C397.32 183.33 398.64 183.66 400 184 C400 184.66 400 185.32 400 186 C402.97 186 405.94 186 409 186 C409 185.34 409 184.68 409 184 C410.98 184 412.96 184 415 184 C415 183.34 415 182.68 415 182 C415.56589844 181.80664062 416.13179687 181.61328125 416.71484375 181.4140625 C417.44832031 181.15367187 418.18179688 180.89328125 418.9375 180.625 C419.66839844 180.36976563 420.39929688 180.11453125 421.15234375 179.8515625 C423.18682116 179.14728587 423.18682116 179.14728587 424 177 C424.66 177 425.32 177 426 177 C426 176.34 426 175.68 426 175 C427.875 172.875 427.875 172.875 430 171 C430.66 171 431.32 171 432 171 C432 170.34 432 169.68 432 169 C434.375 166.375 434.375 166.375 437 164 C437.66 164 438.32 164 439 164 C438.34 162.68 437.68 161.36 437 160 C433.79174438 159.94150446 430.58362767 159.90623838 427.375 159.875 C426.47136719 159.85824219 425.56773437 159.84148437 424.63671875 159.82421875 C419.67249848 159.78798357 415.65588093 160.03555854 411 162 C411 162.66 411 163.32 411 164 C410.34 164 409.68 164 409 164 C408.67 166.97 408.34 169.94 408 173 C406.02 173 404.04 173 402 173 C401.83737072 170.26843041 401.71889314 167.54657878 401.625 164.8125 C401.54958984 163.65911133 401.54958984 163.65911133 401.47265625 162.48242188 C401.32905606 156.90594799 401.32905606 156.90594799 403.22607422 154.34448242 C406.17628168 151.73468351 407.92068592 151.0063963 411.875 150.6875 C413.421875 150.8421875 413.421875 150.8421875 415 151 C415 150.34 415 149.68 415 149 C419.95 149 424.9 149 430 149 C430 149.66 430 150.32 430 151 C433.63 151 437.26 151 441 151 C441 151.66 441 152.32 441 153 C443.97 153 446.94 153 450 153 C450 152.34 450 151.68 450 151 C450.66 151 451.32 151 452 151 C452 150.34 452 149.68 452 149 C452.66 149 453.32 149 454 149 C454.061875 148.071875 454.12375 147.14375 454.1875 146.1875 C455 143 455 143 457.25 141.4375 C458.61125 140.7259375 458.61125 140.7259375 460 140 C462.69584007 137.61762971 464.65620675 135.85948313 466 132.5 C467.32977541 129.17556147 469.3293869 127.33678646 472 125 C472.66 125 473.32 125 474 125 C474 123.68 474 122.36 474 121 C476.3125 118.9375 476.3125 118.9375 479 117 C479.45503906 116.47019531 479.91007813 115.94039063 480.37890625 115.39453125 C482.53500215 113.53976924 483.82170401 113.65868743 486.625 113.75 C487.42164063 113.76546875 488.21828125 113.7809375 489.0390625 113.796875 C491 114 491 114 492 115 C492.04080783 116.99958364 492.04254356 119.00045254 492 121 C490.35 121.66 488.7 122.32 487 123 C486.67 125.64 486.34 128.28 486 131 C485.34 131 484.68 131 484 131 C483.855625 131.598125 483.71125 132.19625 483.5625 132.8125 C483.1127561 134.56150404 482.57107659 136.28677023 482 138 C481.34 138 480.68 138 480 138 C480 139.98 480 141.96 480 144 C479.34 144 478.68 144 478 144 C478.0309375 145.175625 478.0309375 145.175625 478.0625 146.375 C478 149 478 149 477 151 C477 152.32 477 153.64 477 155 C480.63 154.67 484.26 154.34 488 154 C488.33 155.65 488.66 157.3 489 159 C486.64537436 162.13950086 484.78933567 163.30540308 481 164 C479.41788427 164.06548492 477.83329919 164.08578381 476.25 164.0625 C475.45078125 164.05347656 474.6515625 164.04445313 473.828125 164.03515625 C472.92320312 164.01775391 472.92320312 164.01775391 472 164 C472.185625 164.61875 472.37125 165.2375 472.5625 165.875 C473 168 473 168 472 170 C471.93049459 171.54023996 471.91547643 173.08334988 471.9375 174.625 C471.95103516 175.85089844 471.95103516 175.85089844 471.96484375 177.1015625 C471.97644531 177.72804688 471.98804688 178.35453125 472 179 C474.88395737 179 477.29477815 177.94094673 480 177 C480 176.34 480 175.68 480 175 C480.66 175 481.32 175 482 175 C482 174.34 482 173.68 482 173 C482.66 173 483.32 173 484 173 C484.268125 172.360625 484.53625 171.72125 484.8125 171.0625 C486 169 486 169 489 168 C489 167.34 489 166.68 489 166 C489.66 166 490.32 166 491 166 C491 165.34 491 164.68 491 164 C492.65 163.67 494.3 163.34 496 163 C496.3669579 169.48292295 496.3669579 169.48292295 494.625 171.9375 C493 173 493 173 491 173 C491 173.66 491 174.32 491 175 C490.34 175 489.68 175 489 175 C489 175.66 489 176.32 489 177 C488.34 177 487.68 177 487 177 C487 177.66 487 178.32 487 179 C486.34 179 485.68 179 485 179 C485 179.66 485 180.32 485 181 C484.34 181 483.68 181 483 181 C482.7525 181.61875 482.505 182.2375 482.25 182.875 C480.72602346 185.46576011 479.77683056 185.91985593 477 187 C474.30859375 187.265625 474.30859375 187.265625 471.4375 187.25 C470.01244141 187.25773437 470.01244141 187.25773437 468.55859375 187.265625 C466 187 466 187 463 185 C463 183.68 463 182.36 463 181 C462.34 181 461.68 181 461 181 C461 176.05 461 171.1 461 166 C461.66 166 462.32 166 463 166 C462.67 165.01 462.34 164.02 462 163 C459.36 163 456.72 163 454 163 C454 162.34 454 161.68 454 161 C452.68 161.33 451.36 161.66 450 162 C449.67 163.98 449.34 165.96 449 168 C448.01 168 447.02 168 446 168 C446 168.66 446 169.32 446 170 C445.34 170 444.68 170 444 170 C444 170.66 444 171.32 444 172 C442.625 173.625 442.625 173.625 441 175 C440.34 175 439.68 175 439 175 C439 175.66 439 176.32 439 177 C438.34 177 437.68 177 437 177 C437 177.66 437 178.32 437 179 C436.34 179 435.68 179 435 179 C434.896875 179.61875 434.79375 180.2375 434.6875 180.875 C434 183 434 183 431 185 C430.01 185 429.02 185 428 185 C428 189.29 428 193.58 428 198 C427.34 198 426.68 198 426 198 C426 198.99 426 199.98 426 201 C425.34 201 424.68 201 424 201 C423.7525 201.61875 423.505 202.2375 423.25 202.875 C421.7417509 205.43902346 420.7279805 205.90576996 418 207 C415.89355469 207.22705078 415.89355469 207.22705078 413.671875 207.1953125 C412.87265625 207.18886719 412.0734375 207.18242188 411.25 207.17578125 C410.0125 207.15064453 410.0125 207.15064453 408.75 207.125 C407.90953125 207.11597656 407.0690625 207.10695313 406.203125 207.09765625 C404.13529396 207.07415817 402.06761005 207.03828908 400 207 C400 206.34 400 205.68 400 205 C399.2575 205.04125 398.515 205.0825 397.75 205.125 C394.91241048 204.99601866 393.41226062 204.42948778 391 203 C391 202.34 391 201.68 391 201 C389.68 201 388.36 201 387 201 C387 200.34 387 199.68 387 199 C385.35 198.67 383.7 198.34 382 198 C382 197.34 382 196.68 382 196 C381.34 196 380.68 196 380 196 C380 195.34 380 194.68 380 194 C379.34 194 378.68 194 378 194 C378 193.34 378 192.68 378 192 C377.34 192 376.68 192 376 192 C376 191.34 376 190.68 376 190 C375.34 190 374.68 190 374 190 C374 188.68 374 187.36 374 186 C373.401875 185.731875 372.80375 185.46375 372.1875 185.1875 C370.00152146 184.00082594 368.58667406 182.90400887 367 181 C367 180.34 367 179.68 367 179 C366.34 179 365.68 179 365 179 C365 177.68 365 176.36 365 175 C364.34 175 363.68 175 363 175 C363 174.34 363 173.68 363 173 C362.01 173 361.02 173 360 173 C359.87625 172.360625 359.7525 171.72125 359.625 171.0625 C359.41875 170.381875 359.2125 169.70125 359 169 C358.34 168.67 357.68 168.34 357 168 C355.875 165.9375 355.875 165.9375 355 164 C354.67 165.98 354.34 167.96 354 170 C353.34 170 352.68 170 352 170 C352 170.99 352 171.98 352 173 C351.34 173 350.68 173 350 173 C350 174.32 350 175.64 350 177 C350.66 177 351.32 177 352 177 C352 176.34 352 175.68 352 175 C353.32 175 354.64 175 356 175 C356 176.98 356 178.96 356 181 C355.34 181 354.68 181 354 181 C354 182.32 354 183.64 354 185 C352.68 185.33 351.36 185.66 350 186 C350 186.66 350 187.32 350 188 C348.56344146 188.08131463 347.1255517 188.13933559 345.6875 188.1875 C344.88699219 188.22230469 344.08648438 188.25710938 343.26171875 188.29296875 C341 188 341 188 339.20703125 186.73828125 C338 185 338 185 338 181 C338.66 181 339.32 181 340 181 C340 179.02 340 177.04 340 175 C340.66 175 341.32 175 342 175 C342 173.02 342 171.04 342 169 C342.66 169 343.32 169 344 169 C344 168.01 344 167.02 344 166 C344.66 166 345.32 166 346 166 C346.33 163.69 346.66 161.38 347 159 C346.01 158.67 345.02 158.34 344 158 C344 157.01 344 156.02 344 155 C347.22791555 152.8480563 348.28400809 152.79913557 352 153 C352.33 151.02 352.66 149.04 353 147 C353.66 147 354.32 147 355 147 C355 145.68 355 144.36 355 143 C355.66 143 356.32 143 357 143 C357 141.35 357 139.7 357 138 C357.66 138 358.32 138 359 138 C359 136.68 359 135.36 359 134 C360.6796875 132.1484375 360.6796875 132.1484375 362.875 130.375 C363.95394531 129.48941406 363.95394531 129.48941406 365.0546875 128.5859375 C365.69664062 128.06257812 366.33859375 127.53921875 367 127 C367.66 126.34 368.32 125.68 369 125 C371.27734375 124.734375 371.27734375 124.734375 373.9375 124.75 C374.81277344 124.74484375 375.68804688 124.7396875 376.58984375 124.734375 C379 125 379 125 382 127 C382.1875 130.125 382.1875 130.125 382 133 C380.68 133 379.36 133 378 133 C378 133.66 378 134.32 378 135 C377.01 135.33 376.02 135.66 375 136 C375 136.66 375 137.32 375 138 C374.01 138 373.02 138 372 138 C372 138.66 372 139.32 372 140 C371.34 140 370.68 140 370 140 C370 140.66 370 141.32 370 142 C369.34 142 368.68 142 368 142 C368 142.66 368 143.32 368 144 C367.34 144 366.68 144 366 144 C365.67 145.98 365.34 147.96 365 150 C363.68 150.33 362.36 150.66 361 151 C361 151.99 361 152.98 361 154 C362.66611905 154.042721 364.33382885 154.04063832 366 154 C366.33 153.67 366.66 153.34 367 153 C369.33297433 152.95907063 371.66705225 152.95758277 374 153 C374 152.34 374 151.68 374 151 C375.7015625 150.7834375 375.7015625 150.7834375 377.4375 150.5625 C380.80777201 150.38828522 380.80777201 150.38828522 382 149 C383.66617115 148.95936168 385.33388095 148.957279 387 149 C387 148.34 387 147.68 387 147 C388.32 147 389.64 147 391 147 C391 146.34 391 145.68 391 145 C392.32 145 393.64 145 395 145 C395.33 143.68 395.66 142.36 396 141 C397.98 140.67 399.96 140.34 402 140 C402.25028811 138.41986783 402.47440946 136.83557694 402.6875 135.25 C402.81511719 134.36828125 402.94273437 133.4865625 403.07421875 132.578125 C402.98222146 129.38242953 402.21403649 128.25942676 400 126 C395.18569607 124.07427843 390.91647188 123.82867991 385.8203125 124.02734375 C384 124 384 124 383 123 C380.5 122.83333333 380.5 122.83333333 378 123 C377.67 123.33 377.34 123.66 377 124 C373.63177974 124.07243484 370.27456608 123.99607941 366.90625 123.9375 C364.10693626 123.66248366 364.10693626 123.66248366 363 125 C360.32941149 125.14115161 357.67567762 125.04247107 355 125 C355 125.66 355 126.32 355 127 C353.35 127 351.7 127 350 127 C350 127.66 350 128.32 350 129 C348.68 129 347.36 129 346 129 C346 129.66 346 130.32 346 131 C343.35261084 132.4606285 342.10551666 133 339 133 C338.896875 133.639375 338.79375 134.27875 338.6875 134.9375 C338.460625 135.618125 338.23375 136.29875 338 137 C337.01 137.33 336.02 137.66 335 138 C335 139.65 335 141.3 335 143 C335.66 143 336.32 143 337 143 C337.66 143.99 338.32 144.98 339 146 C341.05925139 146.72382467 341.05925139 146.72382467 343 147 C343 148.32 343 149.64 343 151 C339.73201451 153.178657 338.79094962 153.72208564 335 153 C332.375 150.125 332.375 150.125 330 147 C329.01 146.34 328.02 145.68 327 145 C326.67 144.01 326.34 143.02 326 142 C325.34 142 324.68 142 324 142 C324.061875 142.721875 324.12375 143.44375 324.1875 144.1875 C323.9622609 147.56608655 322.77629238 149.1579322 321 152 C320.34444881 154.52733235 320.34444881 154.52733235 320 157 C319.67516582 158.33542939 319.3449145 159.66961551 319 161 C318.34 161 317.68 161 317 161 C317 161.99 317 162.98 317 164 C316.34 164 315.68 164 315 164 C315 165.32 315 166.64 315 168 C314.34 168 313.68 168 313 168 C313.33 168.99 313.66 169.98 314 171 C312.35 171.66 310.7 172.32 309 173 C309 174.32 309 175.64 309 177 C313.95 177.33 318.9 177.66 324 178 C324.09765625 184.15234375 324.09765625 184.15234375 324 186 C323 187 323 187 321.09544373 187.12025452 C320.26271439 187.11803391 319.42998505 187.11581329 318.57202148 187.11352539 C317.63112167 187.11344986 316.69022186 187.11337433 315.72080994 187.11329651 C314.69790359 187.10813522 313.67499725 187.10297394 312.62109375 187.09765625 C311.058395 187.09553383 311.058395 187.09553383 309.46412659 187.09336853 C306.12188906 187.0877508 302.77971743 187.0751953 299.4375 187.0625 C297.17773534 187.05748728 294.91796963 187.05292398 292.65820312 187.04882812 C287.10544609 187.03777561 281.55272775 187.02102024 276 187 C275.67 184.36 275.34 181.72 275 179 C274.236875 179.94875 273.47375 180.8975 272.6875 181.875 C270.25100269 184.90415882 268.28392428 186.84271013 264.2578125 187.3359375 C263.22398437 187.34882813 262.19015625 187.36171875 261.125 187.375 C260.09632813 187.40335938 259.06765625 187.43171875 258.0078125 187.4609375 C254.03700455 186.85242407 252.55892329 186.13328016 250 183 C249.35978993 179.54487351 249.48527661 176.18781173 249.625 172.6875 C249.63917969 171.76259766 249.65335938 170.83769531 249.66796875 169.88476562 C249.77542517 164.84505961 250.16368321 159.96991535 251 155 C251.66 155 252.32 155 253 155 C253 153.68 253 152.36 253 151 C253.66 151 254.32 151 255 151 C254.938125 149.39125 254.938125 149.39125 254.875 147.75 C254.9885825 144.34252515 255.21273364 142.79260369 257 140 C257.66 140 258.32 140 259 140 C259 138.68 259 137.36 259 136 C259.66 136 260.32 136 261 136 C261 134.35 261 132.7 261 131 C257.08695821 132.26909463 255.14389712 133.46256976 253 137 C252.67 137.99 252.34 138.98 252 140 C251.34 140 250.68 140 250 140 C250 140.66 250 141.32 250 142 C249.34 142 248.68 142 248 142 C248 142.66 248 143.32 248 144 C247 145 246 146 245 147 C245 147.66 245 148.32 245 149 C243.515 149.99 243.515 149.99 242 151 C241.87625 151.61875 241.7525 152.2375 241.625 152.875 C240.70986056 155.98647409 238.51001347 157.05473956 236 159 C235.67 159.99 235.34 160.98 235 162 C234.34 162 233.68 162 233 162 C233 163.32 233 164.64 233 166 C232.34 166 231.68 166 231 166 C230.67 167.98 230.34 169.96 230 172 C229.34 172 228.68 172 228 172 C228 172.99 228 173.98 228 175 C226.515 175.99 226.515 175.99 225 177 C224.27617533 179.05925139 224.27617533 179.05925139 224 181 C223.34 181 222.68 181 222 181 C222 181.66 222 182.32 222 183 C220.68 183 219.36 183 218 183 C217.67 181.68 217.34 180.36 217 179 C216.01 179 215.02 179 214 179 C213.75957724 174.91281305 214.57741188 171.82320557 216 168 C216.66 168 217.32 168 218 168 C218 164.7 218 161.4 218 158 C218.66 158 219.32 158 220 158 C220 150.41 220 142.82 220 135 C219.34 135 218.68 135 218 135 C217.67 133.02 217.34 131.04 217 129 C214.36 129 211.72 129 209 129 C209 129.66 209 130.32 209 131 C207.7934375 131.433125 207.7934375 131.433125 206.5625 131.875 C203.8673532 132.73262568 203.8673532 132.73262568 203 135 C201 136 199 137 197 138 C196.67 138.66 196.34 139.32 196 140 C195.34 140 194.68 140 194 140 C194 140.66 194 141.32 194 142 C192.68 142 191.36 142 190 142 C189.67 142.99 189.34 143.98 189 145 C188.34 145 187.68 145 187 145 C187 146.65 187 148.3 187 150 C186.34 150 185.68 150 185 150 C185 150.99 185 151.98 185 153 C184.34 153 183.68 153 183 153 C183.33 154.32 183.66 155.64 184 157 C183.34 157 182.68 157 182 157 C182 158.65 182 160.3 182 162 C181.34 162 180.68 162 180 162 C179.855625 162.5775 179.71125 163.155 179.5625 163.75 C179.04166667 165.83333333 178.52083333 167.91666667 178 170 C177.34 170 176.68 170 176 170 C176 170.99 176 171.98 176 173 C175.34 173 174.68 173 174 173 C174 174.32 174 175.64 174 177 C173.34 177 172.68 177 172 177 C172 177.66 172 178.32 172 179 C171.34 179 170.68 179 170 179 C170.33 179.99 170.66 180.98 171 182 C170.09507812 182.79664063 170.09507812 182.79664063 169.171875 183.609375 C168.37265625 184.31578125 167.5734375 185.0221875 166.75 185.75 C165.96109375 186.44609375 165.1721875 187.1421875 164.359375 187.859375 C161.98275146 189.94215217 161.98275146 189.94215217 159.98828125 192.2421875 C157.60895532 194.3457173 156.56222432 194.491318 153.4375 194.375 C152.67308594 194.36210938 151.90867187 194.34921875 151.12109375 194.3359375 C149 194 149 194 146 192 C146 191.34 146 190.68 146 190 C145.34 190 144.68 190 144 190 C143.67 189.01 143.34 188.02 143 187 C141.03208496 187.02356567 141.03208496 187.02356567 139.02441406 187.04760742 C134.15663798 187.10191032 129.28888868 187.13635154 124.42089844 187.16479492 C122.3140818 187.17988069 120.20729656 187.20035193 118.10058594 187.22631836 C115.0721868 187.26271053 112.04420291 187.2797285 109.015625 187.29296875 C107.60292328 187.31619453 107.60292328 187.31619453 106.16168213 187.33988953 C105.28107117 187.34011612 104.40046021 187.34034271 103.49316406 187.34057617 C102.72039124 187.34723801 101.94761841 187.35389984 101.15142822 187.36076355 C98.38674092 186.89716528 97.00144948 185.93979017 95 184 C95 183.01 95 182.02 95 181 C94.01 181 93.02 181 92 181 C92 181.66 92 182.32 92 183 C89.70983454 185.68502157 87.86496793 186.86948709 84.359375 187.3984375 C76.82745323 187.66024227 76.82745323 187.66024227 73.86279297 185.29467773 C71.61311422 182.52341554 71.51781781 181.27662791 71.57421875 177.75390625 C71.58259766 176.75166016 71.59097656 175.74941406 71.59960938 174.71679688 C71.62861328 173.67587891 71.65761719 172.63496094 71.6875 171.5625 C71.69716797 170.52544922 71.70683594 169.48839844 71.71679688 168.41992188 C71.7849739 163.80463352 71.98748813 159.51630233 73 155 C73.66 155 74.32 155 75 155 C75 153.02 75 151.04 75 149 C75.66 149 76.32 149 77 149 C77 147.02 77 145.04 77 143 C77.66 143 78.32 143 79 143 C79 141.35 79 139.7 79 138 C79.66 138 80.32 138 81 138 C81 136.68 81 135.36 81 134 C81.66 134 82.32 134 83 134 C83 132.35 83 130.7 83 129 C79.1623399 131.8218089 76.27746596 134.91009552 73.33203125 138.609375 C72.89246094 139.06828125 72.45289063 139.5271875 72 140 C71.34 140 70.68 140 70 140 C70 141.32 70 142.64 70 144 C68.68212715 145.02028865 67.34789347 146.01971384 66 147 C65.63837971 148.32594105 65.30271961 149.65938457 65 151 C64.01 151.66 63.02 152.32 62 153 C61.27617533 155.05925139 61.27617533 155.05925139 61 157 C59.68 157.33 58.36 157.66 57 158 C57 159.32 57 160.64 57 162 C56.34 162 55.68 162 55 162 C55 163.32 55 164.64 55 166 C54.34 166 53.68 166 53 166 C53 166.66 53 167.32 53 168 C52.34 168 51.68 168 51 168 C50.67 169.65 50.34 171.3 50 173 C49.34 173 48.68 173 48 173 C48 174.32 48 175.64 48 177 C47.34 177 46.68 177 46 177 C46 178.32 46 179.64 46 181 C45.34 181 44.68 181 44 181 C44 181.66 44 182.32 44 183 C42.68 183 41.36 183 40 183 C40 182.34 40 181.68 40 181 C38.68 181 37.36 181 36 181 C35.95758277 178.66705225 35.95907063 176.33297433 36 174 C36.33 173.67 36.66 173.34 37 173 C37.36760731 170.67182036 37.70241581 168.3381615 38 166 C38.66 166 39.32 166 40 166 C40 163.36 40 160.72 40 158 C40.66 158 41.32 158 42 158 C42 150.41 42 142.82 42 135 C41.34 135 40.68 135 40 135 C39.67 133.02 39.34 131.04 39 129 C36.36 129 33.72 129 31 129 C31 129.66 31 130.32 31 131 C27.535 131.99 27.535 131.99 24 133 C24 133.66 24 134.32 24 135 C23.01 135 22.02 135 21 135 C21 135.66 21 136.32 21 137 C19.75 138.625 19.75 138.625 18 140 C16.68 140 15.36 140 14 140 C14 140.66 14 141.32 14 142 C13.34 142 12.68 142 12 142 C12 142.66 12 143.32 12 144 C11.34 144.33 10.68 144.66 10 145 C9.64984951 146.66321482 9.31802943 148.33034549 9 150 C8.34 150.99 7.68 151.98 7 153 C6.34 153 5.68 153 5 153 C5 154.32 5 155.64 5 157 C4.34 157 3.68 157 3 157 C3 158.32 3 159.64 3 161 C2.34 161 1.68 161 1 161 C1 162.65 1 164.3 1 166 C0.34 166 -0.32 166 -1 166 C-1.495 168.97 -1.495 168.97 -2 172 C-2.66 172 -3.32 172 -4 172 C-4 172.99 -4 173.98 -4 175 C-4.66 175 -5.32 175 -6 175 C-6 176.32 -6 177.64 -6 179 C-6.66 179 -7.32 179 -8 179 C-8 179.66 -8 180.32 -8 181 C-8.66 181 -9.32 181 -10 181 C-10 182.32 -10 183.64 -10 185 C-11.94125344 186.73473712 -13.94272868 188.4045651 -16 190 C-16.33 190.66 -16.66 191.32 -17 192 C-21.35884089 194.37754958 -25.16543441 194.16388358 -30 194 C-30 193.34 -30 192.68 -30 192 C-30.66 192 -31.32 192 -32 192 C-32 191.34 -32 190.68 -32 190 C-32.66 190 -33.32 190 -34 190 C-34 187.03 -34 184.06 -34 181 C-33.34 181 -32.68 181 -32 181 C-32 179.68 -32 178.36 -32 177 C-31.34 177 -30.68 177 -30 177 C-30 176.34 -30 175.68 -30 175 C-29.34 175 -28.68 175 -28 175 C-27.505 172.03 -27.505 172.03 -27 169 C-26.01 168.67 -25.02 168.34 -24 168 C-23.67 167.34 -23.34 166.68 -23 166 C-22.34 166 -21.68 166 -21 166 C-21 165.34 -21 164.68 -21 164 C-20.34 164 -19.68 164 -19 164 C-19 163.34 -19 162.68 -19 162 C-18.34 162 -17.68 162 -17 162 C-16.505 159.03 -16.505 159.03 -16 156 C-15.01 155.67 -14.02 155.34 -13 155 C-11.32932867 153.00334402 -9.66247014 151.00348966 -8 149 C-7.34 149 -6.68 149 -6 149 C-6 148.34 -6 147.68 -6 147 C-5.34 147 -4.68 147 -4 147 C-4 146.34 -4 145.68 -4 145 C-3.34 145 -2.68 145 -2 145 C-2 144.34 -2 143.68 -2 143 C-1.34 142.67 -0.68 142.34 0 142 C0.65213292 139.97536745 0.65213292 139.97536745 1 138 C1.66 138 2.32 138 3 138 C2.67 137.01 2.34 136.02 2 135 C-1.3 135 -4.6 135 -8 135 C-8 133.35 -8 131.7 -8 130 C-7.34 130 -6.68 130 -6 130 C-6 129.34 -6 128.68 -6 128 C-2.535 127.505 -2.535 127.505 1 127 C1 126.34 1 125.68 1 125 C1.66 125 2.32 125 3 125 C3 124.34 3 123.68 3 123 C3.33 122.67 3.66 122.34 4 122 C2.35 122 0.7 122 -1 122 C-1 122.66 -1 123.32 -1 124 C-5.455 124.495 -5.455 124.495 -10 125 C-10 125.66 -10 126.32 -10 127 C-11.65 127 -13.3 127 -15 127 C-15 127.66 -15 128.32 -15 129 C-16.32 129 -17.64 129 -19 129 C-19 129.66 -19 130.32 -19 131 C-21.90600261 132.25664978 -23.79604584 133 -27 133 C-27 133.66 -27 134.32 -27 135 C-27.99 135 -28.98 135 -30 135 C-30 135.66 -30 136.32 -30 137 C-32.64 137.33 -35.28 137.66 -38 138 C-38 138.66 -38 139.32 -38 140 C-39.32 140 -40.64 140 -42 140 C-42 140.66 -42 141.32 -42 142 C-42.99 142 -43.98 142 -45 142 C-45 142.66 -45 143.32 -45 144 C-45.66 144 -46.32 144 -47 144 C-47 144.66 -47 145.32 -47 146 C-49.31 146 -51.62 146 -54 146 C-54.66 144.35 -55.32 142.7 -56 141 C-56.33 141.33 -56.66 141.66 -57 142 C-58.51928038 142.07179964 -60.04167482 142.08392007 -61.5625 142.0625 C-62.38878906 142.05347656 -63.21507812 142.04445313 -64.06640625 142.03515625 C-64.70449219 142.02355469 -65.34257812 142.01195312 -66 142 C-66 140.68 -66 139.36 -66 138 C-66.66 138 -67.32 138 -68 138 C-71 131.5 -71 131.5 -71 127 C-71.66 127 -72.32 127 -73 127 C-73.99 126.01 -73.99 126.01 -75 125 C-77.01945401 124.7720048 -77.01945401 124.7720048 -79.32421875 124.91015625 C-80.18853516 124.93013672 -81.05285156 124.95011719 -81.94335938 124.97070312 C-83.7534133 125.03125297 -85.56332438 125.09625905 -87.37304688 125.16601562 C-93.09326044 125.28880333 -96.91372567 124.6649016 -102 122 C-102 121.34 -102 120.68 -102 120 C-103.32 120 -104.64 120 -106 120 C-106 119.34 -106 118.68 -106 118 C-106.99 117.67 -107.98 117.34 -109 117 C-109.495 114.525 -109.495 114.525 -110 112 C-110.66 112 -111.32 112 -112 112 C-112 111.34 -112 110.68 -112 110 C-112.66 110 -113.32 110 -114 110 C-114.8664583 104.0430992 -115.10965469 98.19710763 -115.125 92.1875 C-115.12951172 91.44636963 -115.13402344 90.70523926 -115.13867188 89.94165039 C-115.11472276 81.15931167 -115.11472276 81.15931167 -112.4375 78.375 C-111.963125 77.92125 -111.48875 77.4675 -111 77 C-111 76.34 -111 75.68 -111 75 C-108.525 74.01 -108.525 74.01 -106 73 C-106 72.34 -106 71.68 -106 71 C-105.34 71 -104.68 71 -104 71 C-104 70.34 -104 69.68 -104 69 C-103.01 69 -102.02 69 -101 69 C-101 68.34 -101 67.68 -101 67 C-95.63999211 64.74315457 -91.8022175 63.63736141 -86 64 C-86 63.34 -86 62.68 -86 62 C-79.73 62 -73.46 62 -67 62 C-67 63.65 -67 65.3 -67 67 C-63.97234634 65.18061676 -63.97234634 65.18061676 -62.5625 62.125 C-61.70854976 58.89896577 -59.3453318 57.28519509 -57 55 C-57 54.34 -57 53.68 -57 53 C-55.125 50.875 -55.125 50.875 -53 49 C-52.34 49 -51.68 49 -51 49 C-51 47.68 -51 46.36 -51 45 C-50.01 44.34 -49.02 43.68 -48 43 C-47.67 42.319375 -47.34 41.63875 -47 40.9375 C-46 39 -46 39 -43 38 C-43.33 37.01 -43.66 36.02 -44 35 C-43.236875 34.278125 -42.47375 33.55625 -41.6875 32.8125 C-38.955914 30.16073022 -38.955914 30.16073022 -37.3125 27.1875 C-36.879375 26.465625 -36.44625 25.74375 -36 25 C-35.34 25 -34.68 25 -34 25 C-34 24.34 -34 23.68 -34 23 C-33.34 23 -32.68 23 -32 23 C-32 22.34 -32 21.68 -32 21 C-31.34 21 -30.68 21 -30 21 C-30.495 19.515 -30.495 19.515 -31 18 C-30.44570313 17.67386719 -29.89140625 17.34773438 -29.3203125 17.01171875 C-28.59585938 16.57472656 -27.87140625 16.13773437 -27.125 15.6875 C-26.04605469 15.04361328 -26.04605469 15.04361328 -24.9453125 14.38671875 C-22.73153667 12.98247625 -22.73153667 12.98247625 -21 10 C-19.68 10 -18.36 10 -17 10 C-17 9.34 -17 8.68 -17 8 C-16.34 8 -15.68 8 -15 8 C-15 7.34 -15 6.68 -15 6 C-14.01 6 -13.02 6 -12 6 C-12 5.34 -12 4.68 -12 4 C-7.8794254 2.00214565 -4.54805635 1.82164485 0 2 C0 1.34 0 0.68 0 0 Z M-6 10 C-6 10.66 -6 11.32 -6 12 C-7.32 12 -8.64 12 -10 12 C-10 12.66 -10 13.32 -10 14 C-10.804375 14.12375 -11.60875 14.2475 -12.4375 14.375 C-13.283125 14.58125 -14.12875 14.7875 -15 15 C-15.33 15.66 -15.66 16.32 -16 17 C-16.99 17.33 -17.98 17.66 -19 18 C-19 18.66 -19 19.32 -19 20 C-21 21 -23 22 -25 23 C-25 23.66 -25 24.32 -25 25 C-25.66 25 -26.32 25 -27 25 C-28.48363239 26.95470702 -28.48363239 26.95470702 -29.9375 29.375 C-31.86587629 32.48210246 -32.89723073 33.93148715 -36 36 C-36 36.99 -36 37.98 -36 39 C-36.97850195 40.02104551 -37.97980427 41.0206121 -39 42 C-39.33 42.99 -39.66 43.98 -40 45 C-40.99 45.66 -41.98 46.32 -43 47 C-43 47.66 -43 48.32 -43 49 C-43.66 49 -44.32 49 -45 49 C-45 50.32 -45 51.64 -45 53 C-46.32 53.66 -47.64 54.32 -49 55 C-48.67 55.99 -48.34 56.98 -48 58 C-48.5775 58.2475 -49.155 58.495 -49.75 58.75 C-52.37223092 60.20679496 -54.09253081 61.68378742 -56 64 C-56 65.32 -56 66.64 -56 68 C-56.598125 68.061875 -57.19625 68.12375 -57.8125 68.1875 C-60.87143458 69.3236757 -61.55041099 71.17330142 -63 74 C-62.01 74.33 -61.02 74.66 -60 75 C-60 74.34 -60 73.68 -60 73 C-59.34 73 -58.68 73 -58 73 C-58 72.34 -58 71.68 -58 71 C-57.34 71 -56.68 71 -56 71 C-56 70.34 -56 69.68 -56 69 C-55.443125 68.773125 -54.88625 68.54625 -54.3125 68.3125 C-51.33840412 66.62449964 -49.27991135 64.53323483 -47 62 C-47 61.34 -47 60.68 -47 60 C-46.34 60 -45.68 60 -45 60 C-45 59.34 -45 58.68 -45 58 C-44.01 57.505 -44.01 57.505 -43 57 C-43.33 56.01 -43.66 55.02 -44 54 C-43.38125 53.9175 -42.7625 53.835 -42.125 53.75 C-39.32494581 52.76174558 -39.25886068 51.59640015 -38 49 C-35.875 47.75 -35.875 47.75 -34 47 C-34 46.34 -34 45.68 -34 45 C-33.34 45 -32.68 45 -32 45 C-32 44.34 -32 43.68 -32 43 C-31.401875 42.731875 -30.80375 42.46375 -30.1875 42.1875 C-28.00152146 41.00082594 -26.58667406 39.90400887 -25 38 C-25 37.34 -25 36.68 -25 36 C-23.68 35.34 -22.36 34.68 -21 34 C-21 33.34 -21 32.68 -21 32 C-19.68 31.34 -18.36 30.68 -17 30 C-17 29.34 -17 28.68 -17 28 C-16.34 28 -15.68 28 -15 28 C-15 27.34 -15 26.68 -15 26 C-13.35 25.67 -11.7 25.34 -10 25 C-10 24.34 -10 23.68 -10 23 C-8.68 23 -7.36 23 -6 23 C-6 22.34 -6 21.68 -6 21 C-4.68 21 -3.36 21 -2 21 C-2 20.34 -2 19.68 -2 19 C-1.34 19 -0.68 19 0 19 C0 18.34 0 17.68 0 17 C6.6 17 13.2 17 20 17 C20 17.66 20 18.32 20 19 C20.639375 19.28875 21.27875 19.5775 21.9375 19.875 C24 21 24 21 25 23 C26.32 23 27.64 23 29 23 C29 23.66 29 24.32 29 25 C29.99 25.66 30.98 26.32 32 27 C32.495 28.485 32.495 28.485 33 30 C33.66 30 34.32 30 35 30 C35.12375 30.680625 35.2475 31.36125 35.375 32.0625 C35.951397 35.04065102 35.951397 35.04065102 37 38 C38.63945701 43.49340447 38.67485208 49.30991134 39 55 C38.34 55 37.68 55 37 55 C36.90203125 55.62648438 36.8040625 56.25296875 36.703125 56.8984375 C36.55359375 57.71570313 36.4040625 58.53296875 36.25 59.375 C36.11078125 60.18710937 35.9715625 60.99921875 35.828125 61.8359375 C35 64 35 64 32.921875 65.2890625 C32.28765625 65.52367187 31.6534375 65.75828125 31 66 C31 66.66 31 67.32 31 68 C29.68 68 28.36 68 27 68 C27 67.34 27 66.68 27 66 C26.34 66 25.68 66 25 66 C25 64.68 25 63.36 25 62 C25.66 62 26.32 62 27 62 C27 59.69 27 57.38 27 55 C26.01 55.495 26.01 55.495 25 56 C25.495 57.98 25.495 57.98 26 60 C25.34 60 24.68 60 24 60 C24 61.32 24 62.64 24 64 C23.34 64 22.68 64 22 64 C20.3553326 66.46326712 20.3553326 66.46326712 19 69 C16.69 68.67 14.38 68.34 12 68 C12 66.02 12 64.04 12 62 C11.67 62 11.34 62 11 62 C11 65.96 11 69.92 11 74 C9.865625 73.938125 8.73125 73.87625 7.5625 73.8125 C2.66152009 73.78619778 -1.473967 75.23987606 -6 77 C-6 77.66 -6 78.32 -6 79 C-7.98 79 -9.96 79 -12 79 C-12 79.66 -12 80.32 -12 81 C-13.65 81 -15.3 81 -17 81 C-17 81.66 -17 82.32 -17 83 C-19.97 83.495 -19.97 83.495 -23 84 C-23 84.66 -23 85.32 -23 86 C-24.32 86 -25.64 86 -27 86 C-27.495 87.485 -27.495 87.485 -28 89 C-23.545 88.505 -23.545 88.505 -19 88 C-19 87.34 -19 86.68 -19 86 C-18.278125 86.061875 -17.55625 86.12375 -16.8125 86.1875 C-13.95187612 86.2233292 -13.95187612 86.2233292 -11.75 84.5625 C-7.95102064 82.403989 -4.30397128 82.27192847 0 82 C0 81.34 0 80.68 0 80 C4.29 80 8.58 80 13 80 C13 79.34 13 78.68 13 78 C19.93 78 26.86 78 34 78 C34 78.66 34 79.32 34 80 C34.66 80.33 35.32 80.66 36 81 C36.495 81.845625 36.99 82.69125 37.5 83.5625 C37.995 84.366875 38.49 85.17125 39 86 C39.66 86 40.32 86 41 86 C40.79375 86.7425 40.5875 87.485 40.375 88.25 C39.95591249 91.32330841 40.38050989 92.42786866 42 95 C42.66 95 43.32 95 44 95 C44 96.98 44 98.96 44 101 C43.04287109 100.98259766 43.04287109 100.98259766 42.06640625 100.96484375 C40.82697266 100.95130859 40.82697266 100.95130859 39.5625 100.9375 C38.73878906 100.92589844 37.91507812 100.91429687 37.06640625 100.90234375 C35.00836062 100.76732652 35.00836062 100.76732652 34 102 C31.67182036 102.36760731 29.3381615 102.70241581 27 103 C27 103.66 27 104.32 27 105 C24.03 105 21.06 105 18 105 C18 105.66 18 106.32 18 107 C15.03 107 12.06 107 9 107 C9 107.66 9 108.32 9 109 C7.02 109 5.04 109 3 109 C3 109.66 3 110.32 3 111 C1.515 110.505 1.515 110.505 0 110 C-3.15020361 110.88319294 -3.15020361 110.88319294 -6 112 C-6 112.66 -6 113.32 -6 114 C-7.98 114 -9.96 114 -12 114 C-12 114.66 -12 115.32 -12 116 C-12.66 116 -13.32 116 -14 116 C-14 116.66 -14 117.32 -14 118 C-14.8971875 118.185625 -14.8971875 118.185625 -15.8125 118.375 C-18.26231348 118.95475985 -18.26231348 118.95475985 -21 121 C-16.85938039 121.51757745 -14.68094273 120.98342358 -11.375 118.625 C-6.34844372 115.17290979 -0.95182807 114.6646208 5 114 C5 113.34 5 112.68 5 112 C6.32 112 7.64 112 9 112 C9 111.34 9 110.68 9 110 C11.31 110 13.62 110 16 110 C16 109.34 16 108.68 16 108 C19.63 108 23.26 108 27 108 C27 107.34 27 106.68 27 106 C28.31355469 106.01160156 29.62710938 106.02320313 30.98046875 106.03515625 C32.71614441 106.04453828 34.45182161 106.05363804 36.1875 106.0625 C37.48397461 106.07506836 37.48397461 106.07506836 38.80664062 106.08789062 C43.00286769 106.10396812 46.90936886 106.07559038 51 105 C51 103.68 51 102.36 51 101 C50.34 101 49.68 101 49 101 C48.87625 100.195625 48.7525 99.39125 48.625 98.5625 C48.315625 97.2940625 48.315625 97.2940625 48 96 C47.34 95.67 46.68 95.34 46 95 C46 93.35 46 91.7 46 90 C45.34 90 44.68 90 44 90 C44 88.68 44 87.36 44 86 C43.34 86 42.68 86 42 86 C42 85.01 42 84.02 42 83 C41.34 83 40.68 83 40 83 C40 81.68 40 80.36 40 79 C39.34 79 38.68 79 38 79 C38 76.36 38 73.72 38 71 C38.66 71 39.32 71 40 71 C40 69.68 40 68.36 40 67 C40.66 67 41.32 67 42 67 C42 66.01 42 65.02 42 64 C42.66 64 43.32 64 44 64 C44 61.36 44 58.72 44 56 C44.66 55.67 45.32 55.34 46 55 C45.505 53.02 45.505 53.02 45 51 C45.66 51 46.32 51 47 51 C47 47.7 47 44.4 47 41 C47.66 41 48.32 41 49 41 C49 38.69 49 36.38 49 34 C48.67 34 48.34 34 48 34 C47.664061 32.5422647 47.33133376 31.08378894 47 29.625 C46.814375 28.81289063 46.62875 28.00078125 46.4375 27.1640625 C46 25 46 25 46 23 C45.34 23 44.68 23 44 23 C44 22.01 44 21.02 44 20 C43.34 20 42.68 20 42 20 C41.731875 19.4225 41.46375 18.845 41.1875 18.25 C39.97070811 15.94449957 38.69666121 13.97943808 37 12 C36.34 12 35.68 12 35 12 C35 11.34 35 10.68 35 10 C29.03763171 6.0250878 22.18660304 6.78367283 15.25 6.75 C13.67992187 6.7190625 13.67992187 6.7190625 12.078125 6.6875 C5.48751319 6.65454694 0.08916048 7.4367534 -6 10 Z M1 25 C1 25.66 1 26.32 1 27 C0.443125 27.103125 -0.11375 27.20625 -0.6875 27.3125 C-3.51496763 28.15309848 -5.59480019 29.29104224 -8 31 C-8.33 31.70125 -8.66 32.4025 -9 33.125 C-9.33 33.74375 -9.66 34.3625 -10 35 C-11.66666667 35.33333333 -13.33333333 35.66666667 -15 36 C-16.09166275 37.93330603 -16.09166275 37.93330603 -17 40 C-18.3153341 40.70151152 -19.65117592 41.36525925 -21 42 C-23.25065102 43.91666921 -23.25065102 43.91666921 -25 46 C-25 46.66 -25 47.32 -25 48 C-25.9590625 48.3403125 -25.9590625 48.3403125 -26.9375 48.6875 C-27.618125 49.120625 -28.29875 49.55375 -29 50 C-29.165 50.825 -29.33 51.65 -29.5 52.5 C-29.665 53.325 -29.83 54.15 -30 55 C-31.31485171 55.70241526 -32.65235497 56.36275979 -34 57 C-35.43197043 58.07862708 -36.82777947 59.20660975 -38.1875 60.375 C-38.88230469 60.96023438 -39.57710937 61.54546875 -40.29296875 62.1484375 C-42.12401235 64.13451225 -42.61074192 65.36234076 -43 68 C-43.66 68 -44.32 68 -45 68 C-45 69.32 -45 70.64 -45 72 C-45.721875 72.061875 -46.44375 72.12375 -47.1875 72.1875 C-50.88556786 73.25583071 -52.44412779 75.17508861 -55 78 C-55.598125 78.556875 -56.19625 79.11375 -56.8125 79.6875 C-58.22363777 80.95218271 -58.22363777 80.95218271 -58 83 C-59.0828125 83.1546875 -59.0828125 83.1546875 -60.1875 83.3125 C-63.27793421 84.06793947 -65.41743841 85.15531315 -68 87 C-68 87.66 -68 88.32 -68 89 C-69.485 88.505 -69.485 88.505 -71 88 C-71 88.66 -71 89.32 -71 90 C-72.32 90 -73.64 90 -75 90 C-75 90.66 -75 91.32 -75 92 C-76.65 92 -78.3 92 -80 92 C-80 92.66 -80 93.32 -80 94 C-82.97 94 -85.94 94 -89 94 C-89 93.34 -89 92.68 -89 92 C-89.99 92 -90.98 92 -92 92 C-92 89.36 -92 86.72 -92 84 C-90.68 84 -89.36 84 -88 84 C-88 83.34 -88 82.68 -88 82 C-86.68 82 -85.36 82 -84 82 C-84 81.34 -84 80.68 -84 80 C-83.2575 79.87625 -82.515 79.7525 -81.75 79.625 C-79.19858515 79.04513299 -77.2732427 78.26291261 -75 77 C-75 76.34 -75 75.68 -75 75 C-74.34 75 -73.68 75 -73 75 C-73 74.34 -73 73.68 -73 73 C-71.68 72.34 -70.36 71.68 -69 71 C-69 70.34 -69 69.68 -69 69 C-69.66 69 -70.32 69 -71 69 C-71.33 69.66 -71.66 70.32 -72 71 C-74.3045052 71.63817067 -76.61496323 72.02037323 -78.96875 72.4375 C-79.97421875 72.7159375 -79.97421875 72.7159375 -81 73 C-81.33 73.66 -81.66 74.32 -82 75 C-83.32 75 -84.64 75 -86 75 C-86 75.66 -86 76.32 -86 77 C-86.66 77 -87.32 77 -88 77 C-88 77.66 -88 78.32 -88 79 C-88.556875 79.0825 -89.11375 79.165 -89.6875 79.25 C-92.73677919 80.23895541 -94.65189963 81.84757466 -97 84 C-97 84.66 -97 85.32 -97 86 C-97.66 86 -98.32 86 -99 86 C-99 89.63 -99 93.26 -99 97 C-98.34 97 -97.68 97 -97 97 C-96.67 98.65 -96.34 100.3 -96 102 C-95.38125 102.103125 -94.7625 102.20625 -94.125 102.3125 C-92 103 -92 103 -90 106 C-87.09941628 106.30344568 -84.45925705 106.41805667 -81.5625 106.375 C-80.78583984 106.38660156 -80.00917969 106.39820313 -79.20898438 106.41015625 C-74.91629608 106.54662929 -74.91629608 106.54662929 -71.37866211 104.47509766 C-70.69622437 103.74492432 -70.69622437 103.74492432 -70 103 C-69.34 103 -68.68 103 -68 103 C-67.505 103.99 -67.505 103.99 -67 105 C-65.68 105 -64.36 105 -63 105 C-62.67 105.99 -62.34 106.98 -62 108 C-62 107.34 -62 106.68 -62 106 C-61.4225 105.938125 -60.845 105.87625 -60.25 105.8125 C-57.08035652 104.66790652 -56.00579772 102.67439695 -54 100 C-51.36574776 97.22710291 -48.66568597 94.70205627 -45.6875 92.3125 C-44.800625 91.549375 -43.91375 90.78625 -43 90 C-43 89.34 -43 88.68 -43 88 C-42.4225 87.9175 -41.845 87.835 -41.25 87.75 C-38.38264421 86.79421474 -37.08199155 85.14915257 -35 83 C-34.01 82.67 -33.02 82.34 -32 82 C-32 81.34 -32 80.68 -32 80 C-31.29875 79.87625 -30.5975 79.7525 -29.875 79.625 C-26.80364682 78.95731453 -23.9325642 78.13303617 -21 77 C-20.505 76.01 -20.505 76.01 -20 75 C-17.71484375 73.9296875 -17.71484375 73.9296875 -14.9375 72.875 C-13.55884766 72.34519531 -13.55884766 72.34519531 -12.15234375 71.8046875 C-11.44207031 71.53914063 -10.73179687 71.27359375 -10 71 C-10 70.34 -10 69.68 -10 69 C-7.36 69 -4.72 69 -2 69 C-2 68.34 -2 67.68 -2 67 C1.465 66.505 1.465 66.505 5 66 C5 65.34 5 64.68 5 64 C4.34 64 3.68 64 3 64 C3 61.69 3 59.38 3 57 C2.34 57 1.68 57 1 57 C1 55.68 1 54.36 1 53 C0.34 53 -0.32 53 -1 53 C-1 51.68 -1 50.36 -1 49 C-1.66 49 -2.32 49 -3 49 C-3 45.37 -3 41.74 -3 38 C-1.948125 38.309375 -0.89625 38.61875 0.1875 38.9375 C3.12752396 39.75685094 6.00161623 40.45483931 9 41 C9.0825 41.721875 9.165 42.44375 9.25 43.1875 C10.15407124 46.57776715 11.78224048 48.31180664 14 51 C15.25 53.8125 15.25 53.8125 16 56 C16.66 56 17.32 56 18 56 C18 55.34 18 54.68 18 54 C18.99 53.505 18.99 53.505 20 53 C20 50.03 20 47.06 20 44 C19.34 44 18.68 44 18 44 C18 39.38 18 34.76 18 30 C19.98 30 21.96 30 24 30 C22.68798827 28.43750191 22.68798827 28.43750191 21 27 C20.01 27 19.02 27 18 27 C18 26.34 18 25.68 18 25 C12.39 25 6.78 25 1 25 Z M27 34 C27 34.66 27 35.32 27 36 C27.66 36 28.32 36 29 36 C29 35.34 29 34.68 29 34 C28.34 34 27.68 34 27 34 Z M29 38 C29.33 39.32 29.66 40.64 30 42 C30.33 40.68 30.66 39.36 31 38 C30.34 38 29.68 38 29 38 Z M9 56 C9 56.66 9 57.32 9 58 C9.66 57.67 10.32 57.34 11 57 C10.34 56.67 9.68 56.34 9 56 Z M-64 74 C-66.97 76.475 -66.97 76.475 -70 79 C-69.01 79.33 -68.02 79.66 -67 80 C-65.68 78.68 -64.36 77.36 -63 76 C-63.33 75.34 -63.66 74.68 -64 74 Z M-99 75 C-99.33 75.66 -99.66 76.32 -100 77 C-98.68 76.67 -97.36 76.34 -96 76 C-96.99 75.67 -97.98 75.34 -99 75 Z M-103 79 C-102.67 79.66 -102.34 80.32 -102 81 C-101.67 80.34 -101.34 79.68 -101 79 C-101.66 79 -102.32 79 -103 79 Z M-105 81 C-105.33 81.99 -105.66 82.98 -106 84 C-105.34 84 -104.68 84 -104 84 C-103.67 83.01 -103.34 82.02 -103 81 C-103.66 81 -104.32 81 -105 81 Z M-108 86 C-108 87.98 -108 89.96 -108 92 C-108.66 92 -109.32 92 -110 92 C-110 93.65 -110 95.3 -110 97 C-109.34 97 -108.68 97 -108 97 C-108 98.98 -108 100.96 -108 103 C-107.34 103 -106.68 103 -106 103 C-106 103.99 -106 104.98 -106 106 C-105.34 106 -104.68 106 -104 106 C-103.67 107.98 -103.34 109.96 -103 112 C-102.34 112 -101.68 112 -101 112 C-101 112.66 -101 113.32 -101 114 C-98.29120665 115.35439668 -95.99066732 115.06501451 -93 115 C-93 115.66 -93 116.32 -93 117 C-92.01 117 -91.02 117 -90 117 C-90 117.66 -90 118.32 -90 119 C-88.68 119 -87.36 119 -86 119 C-86 118.34 -86 117.68 -86 117 C-82.37 117 -78.74 117 -75 117 C-75 116.34 -75 115.68 -75 115 C-73.68 115 -72.36 115 -71 115 C-70.7525 115.61875 -70.505 116.2375 -70.25 116.875 C-68.79371361 119.35068687 -67.62187494 119.95125002 -65 121 C-65 122.98 -65 124.96 -65 127 C-64.34 127 -63.68 127 -63 127 C-62.505 130.465 -62.505 130.465 -62 134 C-61.34 134 -60.68 134 -60 134 C-60 133.34 -60 132.68 -60 132 C-59.29875 131.979375 -58.5975 131.95875 -57.875 131.9375 C-53.6206376 130.55020791 -51.64692861 127.48375828 -49 124 C-52.29075996 124.37904208 -52.29075996 124.37904208 -55 126 C-57.32817964 126.36760731 -59.6618385 126.70241581 -62 127 C-62 125.68 -62 124.36 -62 123 C-62.66 123 -63.32 123 -64 123 C-64.33 121.35 -64.66 119.7 -65 118 C-65.99 118 -66.98 118 -68 118 C-68.495 115.03 -68.495 115.03 -69 112 C-71.64 112 -74.28 112 -77 112 C-77 112.66 -77 113.32 -77 114 C-80.63 114 -84.26 114 -88 114 C-88 113.34 -88 112.68 -88 112 C-90.31 112 -92.62 112 -95 112 C-95 111.34 -95 110.68 -95 110 C-96.71331989 108.18932626 -96.71331989 108.18932626 -98.875 106.375 C-99.95394531 105.42753906 -99.95394531 105.42753906 -101.0546875 104.4609375 C-102.86106933 102.79982877 -102.86106933 102.79982877 -105 103 C-105.33 97.39 -105.66 91.78 -106 86 C-106.66 86 -107.32 86 -108 86 Z M5 86 C4.67 86.66 4.34 87.32 4 88 C1.36 88 -1.28 88 -4 88 C-4 88.66 -4 89.32 -4 90 C-5.32 90 -6.64 90 -8 90 C-8 90.66 -8 91.32 -8 92 C-9.98 92 -11.96 92 -14 92 C-14 92.66 -14 93.32 -14 94 C-15.65 94 -17.3 94 -19 94 C-19 94.66 -19 95.32 -19 96 C-19.99 96.185625 -19.99 96.185625 -21 96.375 C-24.69698583 97.14520538 -28.34005942 98.06950663 -32 99 C-32 99.66 -32 100.32 -32 101 C-33.32 101 -34.64 101 -36 101 C-36 101.66 -36 102.32 -36 103 C-36.66 103 -37.32 103 -38 103 C-38 103.66 -38 104.32 -38 105 C-39.32 105 -40.64 105 -42 105 C-42 105.66 -42 106.32 -42 107 C-42.99 107 -43.98 107 -45 107 C-45 107.66 -45 108.32 -45 109 C-45.66 109 -46.32 109 -47 109 C-47 109.66 -47 110.32 -47 111 C-47.99 110.67 -48.98 110.34 -50 110 C-50.99 110.66 -51.98 111.32 -53 112 C-53 112.66 -53 113.32 -53 114 C-54.65 114 -56.3 114 -58 114 C-58 114.99 -58 115.98 -58 117 C-56.68 117 -55.36 117 -54 117 C-54 116.34 -54 115.68 -54 115 C-53.2575 114.87625 -52.515 114.7525 -51.75 114.625 C-49.19858515 114.04513299 -47.2732427 113.26291261 -45 112 C-45 111.34 -45 110.68 -45 110 C-43.68 110 -42.36 110 -41 110 C-41 109.34 -41 108.68 -41 108 C-39.35 108 -37.7 108 -36 108 C-36 107.34 -36 106.68 -36 106 C-34.88625 105.87625 -33.7725 105.7525 -32.625 105.625 C-28.96896323 105.3534187 -28.96896323 105.3534187 -27 103 C-21.8980857 101.17834271 -17.45694434 100.77952311 -12.0625 100.875 C-11.37865234 100.88402344 -10.69480469 100.89304687 -9.99023438 100.90234375 C-8.32666713 100.92561042 -6.66328369 100.96146833 -5 101 C-4.34 102.32 -3.68 103.64 -3 105 C-2.34 104.34 -1.68 103.68 -1 103 C3.52780997 101.43268116 7.25492775 101 12 101 C14.30230766 100.10168984 14.30230766 100.10168984 16 99 C16 98.34 16 97.68 16 97 C19.63 97 23.26 97 27 97 C27 96.34 27 95.68 27 95 C29.64 95 32.28 95 35 95 C34.01 94.67 33.02 94.34 32 94 C32.04125 93.05125 32.0825 92.1025 32.125 91.125 C32.34973818 87.89755144 32.34973818 87.89755144 30 86 C27.3784358 85.72172748 27.3784358 85.72172748 24.3359375 85.8046875 C22.65371094 85.81435547 22.65371094 85.81435547 20.9375 85.82421875 C19.761875 85.84097656 18.58625 85.85773438 17.375 85.875 C16.19164062 85.88402344 15.00828125 85.89304687 13.7890625 85.90234375 C10.85917477 85.92597188 7.9296866 85.95891486 5 86 Z M-30 88 C-30.66 89.32 -31.32 90.64 -32 92 C-30.68 91.67 -29.36 91.34 -28 91 C-28.33 90.01 -28.66 89.02 -29 88 C-29.33 88 -29.66 88 -30 88 Z M-36 92 C-35.67 92.66 -35.34 93.32 -35 94 C-34.01 93.34 -33.02 92.68 -32 92 C-33.32 92 -34.64 92 -36 92 Z M-61 110 C-61.33 110.66 -61.66 111.32 -62 112 C-61.34 112 -60.68 112 -60 112 C-60.33 111.34 -60.66 110.68 -61 110 Z M-43 118 C-44.98 119.32 -46.96 120.64 -49 122 C-47.68 122.33 -46.36 122.66 -45 123 C-45 122.34 -45 121.68 -45 121 C-43.68 120.34 -42.36 119.68 -41 119 C-41.66 118.67 -42.32 118.34 -43 118 Z M-22 121 C-22.99 121.66 -23.98 122.32 -25 123 C-23.68 123 -22.36 123 -21 123 C-21.33 122.34 -21.66 121.68 -22 121 Z M-26 123 C-26.33 123.66 -26.66 124.32 -27 125 C-26.34 125 -25.68 125 -25 125 C-25.33 124.34 -25.66 123.68 -26 123 Z M-30 125 C-30.33 125.66 -30.66 126.32 -31 127 C-30.01 127 -29.02 127 -28 127 C-28 126.34 -28 125.68 -28 125 C-28.66 125 -29.32 125 -30 125 Z M330 125 C330 126.65 330 128.3 330 130 C330.66 130 331.32 130 332 130 C332 129.34 332 128.68 332 128 C333.32 127.34 334.64 126.68 336 126 C336 125.67 336 125.34 336 125 C334.02 125 332.04 125 330 125 Z M328 131 C328 131.99 328 132.98 328 134 C328.66 133.67 329.32 133.34 330 133 C329.34 132.34 328.68 131.68 328 131 Z M467 142 C467 142.99 467 143.98 467 145 C467.66 144.67 468.32 144.34 469 144 C468.34 143.34 467.68 142.68 467 142 Z M462.9375 147.8125 C462.11572266 148.59560547 462.11572266 148.59560547 461.27734375 149.39453125 C459.68869846 151.04933255 459.68869846 151.04933255 460 154 C459.01 154.495 459.01 154.495 458 155 C460.31 155.33 462.62 155.66 465 156 C465 155.01 465 154.02 465 153 C465.66 153 466.32 153 467 153 C467 150.36 467 147.72 467 145 C465.19728218 145 464.17044484 146.61453232 462.9375 147.8125 Z M50 155 C51 158 51 158 51 158 Z M-7 160 C-7.33 160.66 -7.66 161.32 -8 162 C-7.34 162 -6.68 162 -6 162 C-6.33 161.34 -6.66 160.68 -7 160 Z M-10 162 C-10 163.32 -10 164.64 -10 166 C-9.34 166 -8.68 166 -8 166 C-8 164.68 -8 163.36 -8 162 C-8.66 162 -9.32 162 -10 162 Z M168 164 C168 164.66 168 165.32 168 166 C168.66 166 169.32 166 170 166 C170 165.34 170 164.68 170 164 C169.34 164 168.68 164 168 164 Z M-12 166 C-12 166.66 -12 167.32 -12 168 C-12.66 168 -13.32 168 -14 168 C-14 168.66 -14 169.32 -14 170 C-14.99 170.495 -14.99 170.495 -16 171 C-16.99 171.66 -17.98 172.32 -19 173 C-19 173.66 -19 174.32 -19 175 C-19.66 175 -20.32 175 -21 175 C-21 176.32 -21 177.64 -21 179 C-21.66 179 -22.32 179 -23 179 C-23 179.66 -23 180.32 -23 181 C-23.99 181.495 -23.99 181.495 -25 182 C-24.67 182.66 -24.34 183.32 -24 184 C-24.66 184.33 -25.32 184.66 -26 185 C-22.04705697 185.34494623 -22.04705697 185.34494623 -19.3125 183.375 C-16.53383146 180.52123231 -16.58376144 178.83614659 -16 175 C-13.9375 173.625 -13.9375 173.625 -12 173 C-12 171.68 -12 170.36 -12 169 C-11.34 169 -10.68 169 -10 169 C-10 168.01 -10 167.02 -10 166 C-10.66 166 -11.32 166 -12 166 Z M166 166 C166 166.66 166 167.32 166 168 C165.34 168 164.68 168 164 168 C164 168.66 164 169.32 164 170 C163.34 170 162.68 170 162 170 C160.29209912 171.20747941 160.29209912 171.20747941 159 173 C159 174.32 159 175.64 159 177 C158.34 177 157.68 177 157 177 C157 177.66 157 178.32 157 179 C156.34 179 155.68 179 155 179 C154.67 181.31 154.34 183.62 154 186 C158.52841327 183.67110175 161.07612592 181.09342372 164 177 C164 175.68 164 174.36 164 173 C164.66 173 165.32 173 166 173 C167.4606285 170.35261084 168 169.10551666 168 166 C167.34 166 166.68 166 166 166 Z M348 177 C348.33 177.99 348.66 178.98 349 180 C349.33 179.01 349.66 178.02 350 177 C349.34 177 348.68 177 348 177 Z M394 192 C394.33 192.66 394.66 193.32 395 194 C395.66 193.67 396.32 193.34 397 193 C396.01 192.67 395.02 192.34 394 192 Z M417 192 C416.67 192.33 416.34 192.66 416 193 C414.65984779 193.15582303 413.31241097 193.25044142 411.96484375 193.31640625 C411.15595703 193.35830078 410.34707031 193.40019531 409.51367188 193.44335938 C408.2384668 193.50233398 408.2384668 193.50233398 406.9375 193.5625 C406.08349609 193.60568359 405.22949219 193.64886719 404.34960938 193.69335938 C402.23327963 193.79976702 400.11666187 193.90041731 398 194 C398 194.33 398 194.66 398 195 C403.64399358 197.44064587 408.97751478 197.19289099 415 197 C415 196.34 415 195.68 415 195 C416.65 194.67 418.3 194.34 420 194 C420 193.34 420 192.68 420 192 C419.01 192 418.02 192 417 192 Z " fill="#FFFFFF" transform="translate(306,324)"/>
<path d="M0 0 C1.47906892 -0.02689216 2.95827483 -0.04634621 4.4375 -0.0625 C5.26121094 -0.07410156 6.08492188 -0.08570313 6.93359375 -0.09765625 C9 0 9 0 10 1 C12.28988781 1.15888092 14.58443441 1.25138073 16.87890625 1.31640625 C17.5655687 1.33718735 18.25223114 1.35796844 18.95970154 1.37937927 C21.16052935 1.44494143 23.36147975 1.50379015 25.5625 1.5625 C27.05144514 1.60567892 28.54037773 1.649293 30.02929688 1.69335938 C33.68606553 1.8006293 37.34297318 1.90187772 41 2 C41 1.34 41 0.68 41 0 C66.11224195 -0.07001161 91.22446932 -0.12294964 116.33678913 -0.15543652 C127.99628774 -0.17092016 139.6557258 -0.19203824 151.31518555 -0.22631836 C161.47491549 -0.25617492 171.63460158 -0.2755641 181.79437417 -0.28226548 C187.17630355 -0.28618409 192.55810746 -0.29542438 197.93999672 -0.31719017 C203.00177751 -0.33749622 208.06338071 -0.34384575 213.12519836 -0.33932304 C214.98645173 -0.34015089 216.84771082 -0.34615143 218.70892906 -0.35761642 C221.24357686 -0.37246867 223.77754772 -0.36898048 226.31221008 -0.36076355 C227.05442458 -0.36950207 227.79663908 -0.3782406 228.56134492 -0.38724393 C231.52798688 -0.36111831 233.51393319 -0.34299725 235.98048687 1.39754772 C237 3 237 3 237 5 C237.99 5 238.98 5 240 5 C240 7.64 240 10.28 240 13 C240.66 13 241.32 13 242 13 C242 16.63 242 20.26 242 24 C243.11036621 24.01981934 244.22073242 24.03963867 245.36474609 24.06005859 C249.47614602 24.13601081 253.58718718 24.2247436 257.69824219 24.31738281 C259.47909473 24.35571565 261.26002584 24.39056089 263.04101562 24.421875 C265.59794234 24.46743271 268.1543261 24.52544107 270.7109375 24.5859375 C271.50994476 24.59748871 272.30895203 24.60903992 273.13217163 24.62094116 C278.77225659 24.77225659 278.77225659 24.77225659 281 27 C282.32 27 283.64 27 285 27 C285.33 26.34 285.66 25.68 286 25 C297.83555248 24.22841567 309.63842897 23.89274467 321.5 23.875 C322.76996826 23.87048828 324.03993652 23.86597656 325.34838867 23.86132812 C326.54310791 23.86326172 327.73782715 23.86519531 328.96875 23.8671875 C330.03544922 23.86831543 331.10214844 23.86944336 332.20117188 23.87060547 C334.68036274 23.98522263 336.67812947 24.1431807 339 25 C340.38232443 26.62626404 341.71937515 28.2925002 343 30 C343.66 30.33 344.32 30.66 345 31 C345 37.93 345 44.86 345 52 C343.68 52 342.36 52 341 52 C340.67 53.98 340.34 55.96 340 58 C335.07541417 59.59641649 330.98406799 60.24020659 325.75390625 60.1953125 C325.09792953 60.1924826 324.44195282 60.18965271 323.76609802 60.18673706 C321.69803591 60.17565984 319.63042827 60.15058063 317.5625 60.125 C316.14909485 60.11495402 314.73568283 60.10583102 313.32226562 60.09765625 C309.88136606 60.07576184 306.44072748 60.04132051 303 60 C303 59.34 303 58.68 303 58 C298.05 58 293.1 58 288 58 C288 57.34 288 56.68 288 56 C286.7934375 55.814375 286.7934375 55.814375 285.5625 55.625 C284.716875 55.41875 283.87125 55.2125 283 55 C282.67 54.34 282.34 53.68 282 53 C281.67 53.33 281.34 53.66 281 54 C278.9427083 54.31923492 276.88386479 54.51161352 274.8125 54.71875 C272.9832467 54.81998043 272.9832467 54.81998043 272 56 C269.6243148 56.0883967 267.27791326 56.11530305 264.90234375 56.09765625 C263.83905602 56.09553383 263.83905602 56.09553383 262.75428772 56.09336853 C260.48198288 56.08775443 258.20977525 56.07519963 255.9375 56.0625 C254.40039204 56.05748681 252.86328255 56.05292359 251.32617188 56.04882812 C247.55071333 56.0386297 243.77546596 56.01905732 240 56 C240 60.62 240 65.24 240 70 C238.35 70.66 236.7 71.32 235 72 C234.67 73.32 234.34 74.64 234 76 C155.46 76 76.92 76 -4 76 C-4.33 74.68 -4.66 73.36 -5 72 C-7.49034386 70.70339566 -7.49034386 70.70339566 -10 70 C-9.95875 69.071875 -9.9175 68.14375 -9.875 67.1875 C-9.72863661 63.84190281 -9.72863661 63.84190281 -12 61 C-11.67 58.03 -11.34 55.06 -11 52 C-27.5 52 -44 52 -61 52 C-61 52.66 -61 53.32 -61 54 C-64.17008997 56.11339331 -65.44151041 56.31013264 -69.125 56.5625 C-72.36920975 56.54484879 -72.36920975 56.54484879 -75 58 C-77.14558827 58.08775605 -79.29404421 58.10695219 -81.44140625 58.09765625 C-82.74658203 58.09443359 -84.05175781 58.09121094 -85.39648438 58.08789062 C-86.7851569 58.07953401 -88.17382877 58.07106905 -89.5625 58.0625 C-90.95507656 58.05748666 -92.34765481 58.05292347 -93.74023438 58.04882812 C-97.1601987 58.03699434 -100.58007844 58.0205088 -104 58 C-104 57.34 -104 56.68 -104 56 C-104.9590625 55.8453125 -104.9590625 55.8453125 -105.9375 55.6875 C-106.9584375 55.3471875 -106.9584375 55.3471875 -108 55 C-108.495 53.515 -108.495 53.515 -109 52 C-109.99 51.67 -110.98 51.34 -112 51 C-112.69937532 49.68352881 -113.36729133 48.34977849 -114 47 C-114.66 46.67 -115.32 46.34 -116 46 C-115.67 44.35 -115.34 42.7 -115 41 C-115.66 41 -116.32 41 -117 41 C-117 38.36 -117 35.72 -117 33 C-116.34 33 -115.68 33 -115 33 C-115.33 31.68 -115.66 30.36 -116 29 C-115.29875 28.5875 -114.5975 28.175 -113.875 27.75 C-108.11588173 24.69561763 -108.11588173 24.69561763 -104 20 C-96.08 20 -88.16 20 -80 20 C-80 20.66 -80 21.32 -80 22 C-79.39937744 21.99476318 -78.79875488 21.98952637 -78.17993164 21.98413086 C-75.47413162 21.96341986 -72.76834823 21.95035875 -70.0625 21.9375 C-69.11697266 21.92912109 -68.17144531 21.92074219 -67.19726562 21.91210938 C-65.84858398 21.90727539 -65.84858398 21.90727539 -64.47265625 21.90234375 C-63.22367554 21.89448853 -63.22367554 21.89448853 -61.94946289 21.88647461 C-60 22 -60 22 -59 23 C-52.9216696 24.03490302 -47.20066827 24.00419186 -41.0625 23.625 C-40.20076172 23.58117187 -39.33902344 23.53734375 -38.45117188 23.4921875 C-34.39725118 23.64234537 -34.39725118 23.64234537 -31 22 C-28.66702567 21.95907063 -26.33294775 21.95758277 -24 22 C-24 21.34 -24 20.68 -24 20 C-21.03 20 -18.06 20 -15 20 C-15 20.66 -15 21.32 -15 22 C-13.02 22.495 -13.02 22.495 -11 23 C-10.96261719 22.34773437 -10.92523438 21.69546875 -10.88671875 21.0234375 C-10.48506238 15.68377043 -9.83238391 11.6795908 -7 7 C-6.34 7 -5.68 7 -5 7 C-4.67 5.35 -4.34 3.7 -4 2 C-2.68 2 -1.36 2 0 2 C0 1.34 0 0.68 0 0 Z M34 9 C34.33 9.66 34.66 10.32 35 11 C35.99 10.67 36.98 10.34 38 10 C36.68 9.67 35.36 9.34 34 9 Z M8 9 C8 12.3 8 15.6 8 19 C6.68 19.33 5.36 19.66 4 20 C3.957279 21.66611905 3.95936168 23.33382885 4 25 C4.33 25.33 4.66 25.66 5 26 C5.36760731 28.32817964 5.70241581 30.6618385 6 33 C5.34 33 4.68 33 4 33 C3.68323157 41.68924582 3.68323157 41.68924582 6 50 C5.34 50 4.68 50 4 50 C4 50.66 4 51.32 4 52 C4.66 52 5.32 52 6 52 C6 52.99 6 53.98 6 55 C6.66 55 7.32 55 8 55 C8 58.3 8 61.6 8 65 C8.66 65 9.32 65 10 65 C9.67 65.99 9.34 66.98 9 68 C9.66 68 10.32 68 11 68 C11 68.66 11 69.32 11 70 C36.08 70 61.16 70 87 70 C87 69.34 87 68.68 87 68 C89.64 68.66 92.28 69.32 95 70 C95 69.34 95 68.68 95 68 C107.21 68 119.42 68 132 68 C132 67.34 132 66.68 132 66 C132.99 66 133.98 66 135 66 C135 65.01 135 64.02 135 63 C135.66 63 136.32 63 137 63 C137 62.34 137 61.68 137 61 C138.32 61 139.64 61 141 61 C141.99 60.01 141.99 60.01 143 59 C145.21484375 58.74121094 145.21484375 58.74121094 147.9375 58.734375 C149.40316406 58.73050781 149.40316406 58.73050781 150.8984375 58.7265625 C151.92195312 58.73429688 152.94546875 58.74203125 154 58.75 C155.02351562 58.74226562 156.04703125 58.73453125 157.1015625 58.7265625 C158.07867188 58.72914063 159.05578125 58.73171875 160.0625 58.734375 C160.96097656 58.73663086 161.85945312 58.73888672 162.78515625 58.74121094 C165 59 165 59 167 61 C170.08347826 61.16681109 170.08347826 61.16681109 173 61 C172.67 60.34 172.34 59.68 172 59 C171.34 59 170.68 59 170 59 C170.33 57.35 170.66 55.7 171 54 C174.4374823 53.97098606 177.87493312 53.95319665 181.3125 53.9375 C182.28896484 53.92912109 183.26542969 53.92074219 184.27148438 53.91210938 C185.20927734 53.90888672 186.14707031 53.90566406 187.11328125 53.90234375 C187.97735596 53.89710693 188.84143066 53.89187012 189.73168945 53.88647461 C192 54 192 54 195 55 C195 56.32 195 57.64 195 59 C204.57 59 214.14 59 224 59 C224 47.45 224 35.9 224 24 C223.34 24 222.68 24 222 24 C222 19.05 222 14.1 222 9 C215.4 9 208.8 9 202 9 C202 10.32 202 11.64 202 13 C201.34 13 200.68 13 200 13 C200 13.66 200 14.32 200 15 C194.72 15 189.44 15 184 15 C184 14.34 184 13.68 184 13 C183.01 12.505 183.01 12.505 182 12 C182 11.01 182 10.02 182 9 C168.8 9 155.6 9 142 9 C142.33 9.66 142.66 10.32 143 11 C144.98 11 146.96 11 149 11 C148 14 148 14 146 15 C146 15.66 146 16.32 146 17 C137.09 17 128.18 17 119 17 C119 16.34 119 15.68 119 15 C118.01 15 117.02 15 116 15 C116 13.68 116 12.36 116 11 C117.98 11 119.96 11 122 11 C122.33 10.34 122.66 9.68 123 9 C100.56 9 78.12 9 55 9 C55.495 9.99 55.495 9.99 56 11 C57.98 11 59.96 11 62 11 C62 12.32 62 13.64 62 15 C61.01 15 60.02 15 59 15 C59 15.66 59 16.32 59 17 C47.45 17 35.9 17 24 17 C24 17.66 24 18.32 24 19 C21.525 18.505 21.525 18.505 19 18 C19 17.67 19 17.34 19 17 C17.02 17 15.04 17 13 17 C13 15.02 13 13.04 13 11 C16.3 11 19.6 11 23 11 C22.67 10.34 22.34 9.68 22 9 C17.38 9 12.76 9 8 9 Z M-91 30 C-92.4606285 32.64738916 -93 33.89448334 -93 37 C-89.7 37 -86.4 37 -83 37 C-82.67 37.66 -82.34 38.32 -82 39 C-80.68 38.67 -79.36 38.34 -78 38 C-78 38.66 -78 39.32 -78 40 C-71.4 40 -64.8 40 -58 40 C-58 37.36 -58 34.72 -58 32 C-68.23 32 -78.46 32 -89 32 C-89 31.34 -89 30.68 -89 30 C-89.66 30 -90.32 30 -91 30 Z M-24 30 C-24 30.66 -24 31.32 -24 32 C-31.59 32 -39.18 32 -47 32 C-47.33 32.99 -47.66 33.98 -48 35 C-48.66 35 -49.32 35 -50 35 C-49.67 37.31 -49.34 39.62 -49 42 C-48.67 42 -48.34 42 -48 42 C-48 40.35 -48 38.7 -48 37 C-46.6696875 37.2784375 -46.6696875 37.2784375 -45.3125 37.5625 C-42.14821189 37.98042484 -40.05160358 37.80777742 -37 37 C-36.67 37.66 -36.34 38.32 -36 39 C-35.67 38.67 -35.34 38.34 -35 38 C-32.67182036 37.63239269 -30.3381615 37.29758419 -28 37 C-28 36.34 -28 35.68 -28 35 C-26.68 35 -25.36 35 -24 35 C-24 35.66 -24 36.32 -24 37 C-22.68 37 -21.36 37 -20 37 C-20 38.98 -20 40.96 -20 43 C-19.67 43 -19.34 43 -19 43 C-19 40.36 -19 37.72 -19 35 C-19.66 35 -20.32 35 -21 35 C-21 33.68 -21 32.36 -21 31 C-20.01 30.67 -19.02 30.34 -18 30 C-19.98 30 -21.96 30 -24 30 Z M308 32 C308 32.66 308 33.32 308 34 C301.4 34.33 294.8 34.66 288 35 C288 39.29 288 43.58 288 48 C288.66 47.67 289.32 47.34 290 47 C289.67 45.35 289.34 43.7 289 42 C289.66 42 290.32 42 291 42 C291 41.34 291 40.68 291 40 C292.32 40 293.64 40 295 40 C295 41.32 295 42.64 295 44 C300.61 44 306.22 44 312 44 C312 44.66 312 45.32 312 46 C312.99 46 313.98 46 315 46 C315 45.34 315 44.68 315 44 C316.98 44 318.96 44 321 44 C321 44.66 321 45.32 321 46 C322.65 46 324.3 46 326 46 C326 43.03 326 40.06 326 37 C325.34 37 324.68 37 324 37 C324 36.34 324 35.68 324 35 C323.34 35 322.68 35 322 35 C322 34.01 322 33.02 322 32 C317.38 32 312.76 32 308 32 Z M267 35 C267 35.66 267 36.32 267 37 C262.05 37 257.1 37 252 37 C252 39.97 252 42.94 252 46 C252.66 46 253.32 46 254 46 C254 44.02 254 42.04 254 40 C256.31 40 258.62 40 261 40 C261.66 41.32 262.32 42.64 263 44 C264.98 44 266.96 44 269 44 C269.66 42.68 270.32 41.36 271 40 C271.99 40 272.98 40 274 40 C274.33 40.66 274.66 41.32 275 42 C275 41.34 275 40.68 275 40 C277.475 40.495 277.475 40.495 280 41 C280 39.68 280 38.36 280 37 C275.49646738 35.24252386 271.82360189 34.80705592 267 35 Z M-57 44 C-57.33 44.66 -57.66 45.32 -58 46 C-57.34 46 -56.68 46 -56 46 C-56.33 45.34 -56.66 44.68 -57 44 Z M213 65 C213 65.33 213 65.66 213 66 C215.97 66 218.94 66 222 66 C222 65.67 222 65.34 222 65 C219.03 65 216.06 65 213 65 Z " fill="#FFFFFF" transform="translate(426,605)"/>
<path d="M0 0 C3.3 0 6.6 0 10 0 C10 4.95 10 9.9 10 15 C10.66 15 11.32 15 12 15 C12 14.34 12 13.68 12 13 C15.96 13 19.92 13 24 13 C24 13.66 24 14.32 24 15 C24.99 15.33 25.98 15.66 27 16 C27 16.99 27 17.98 27 19 C27.66 19 28.32 19 29 19 C29 21.64 29 24.28 29 27 C28.34 27 27.68 27 27 27 C26.67 28.32 26.34 29.64 26 31 C25.34 31 24.68 31 24 31 C23.67 32.65 23.34 34.3 23 36 C23.66 36 24.32 36 25 36 C25.33 37.65 25.66 39.3 26 41 C26.99 41 27.98 41 29 41 C29 42.98 29 44.96 29 47 C25.04 47 21.08 47 17 47 C17 46.01 17 45.02 17 44 C16.34 44 15.68 44 15 44 C14.67 42.02 14.34 40.04 14 38 C13.01 37.67 12.02 37.34 11 37 C10.505 35.515 10.505 35.515 10 34 C10 38.29 10 42.58 10 47 C6.7 47 3.4 47 0 47 C0 31.49 0 15.98 0 0 Z M15 21 C15 21.66 15 22.32 15 23 C13.68 23 12.36 23 11 23 C10.67 24.65 10.34 26.3 10 28 C10.66 28 11.32 28 12 28 C12 27.34 12 26.68 12 26 C13.65 25.67 15.3 25.34 17 25 C16.34 23.68 15.68 22.36 15 21 Z " fill="#FFFFFF" transform="translate(624,530)"/>
<path d="M0 0 C0 0.66 0 1.32 0 2 C1.98 2 3.96 2 6 2 C6 5.3 6 8.6 6 12 C3.03 12 0.06 12 -3 12 C-3 11.34 -3 10.68 -3 10 C-4.65 10.66 -6.3 11.32 -8 12 C-4.86378037 16.49029359 -4.86378037 16.49029359 -0.1875 18.875 C0.534375 18.91625 1.25625 18.9575 2 19 C2 19.66 2 20.32 2 21 C2.61875 21.309375 3.2375 21.61875 3.875 21.9375 C5.25 22.625 6.625 23.3125 8 24 C8 28.62 8 33.24 8 38 C7.34 38 6.68 38 6 38 C6 39.32 6 40.64 6 42 C1.23014947 44.84097681 -2.68426127 45.41150616 -8.125 45.25 C-8.82753906 45.24484375 -9.53007812 45.2396875 -10.25390625 45.234375 C-13.72016188 45.18195526 -16.61483271 44.84629182 -20 44 C-20 40.7 -20 37.4 -20 34 C-11.25 33.875 -11.25 33.875 -9 35 C-6.90178785 34.60061233 -6.90178785 34.60061233 -5 34 C-5 32.68 -5 31.36 -5 30 C-5.54269531 29.74605469 -6.08539063 29.49210938 -6.64453125 29.23046875 C-7.35996094 28.88628906 -8.07539063 28.54210937 -8.8125 28.1875 C-9.52019531 27.85105469 -10.22789062 27.51460937 -10.95703125 27.16796875 C-13.03804859 25.97824756 -14.46936202 24.83966269 -16 23 C-16 22.34 -16 21.68 -16 21 C-16.66 21 -17.32 21 -18 21 C-18 20.34 -18 19.68 -18 19 C-18.66 19 -19.32 19 -20 19 C-20 15.37 -20 11.74 -20 8 C-19.34 8 -18.68 8 -18 8 C-18 7.34 -18 6.68 -18 6 C-17.34 6 -16.68 6 -16 6 C-15.938125 5.38125 -15.87625 4.7625 -15.8125 4.125 C-15 2 -15 2 -13.0625 0.75 C-8.69900292 -0.31861153 -4.46932259 -0.15620933 0 0 Z " fill="#FFFFFF" transform="translate(383,532)"/>
<path d="M0 0 C0.70705078 -0.01611328 1.41410156 -0.03222656 2.14257812 -0.04882812 C5.10825571 -0.0516128 7.46022617 0.07005831 10.12719727 1.42480469 C12.73473729 4.14382013 12.51153242 6.15646055 12.6171875 9.87890625 C12.6584375 11.16861328 12.6996875 12.45832031 12.7421875 13.78710938 C12.75910645 14.79294067 12.75910645 14.79294067 12.77636719 15.8190918 C12.81245131 17.87222954 12.88037004 19.92247702 12.953125 21.97460938 C13.14490195 29.34695787 13.14490195 29.34695787 12.9375 32.3125 C10.9375 34.3125 10.9375 34.3125 8.69091797 34.53955078 C7.77971191 34.52907715 6.86850586 34.51860352 5.9296875 34.5078125 C4.94355469 34.50136719 3.95742188 34.49492188 2.94140625 34.48828125 C1.90886719 34.47152344 0.87632812 34.45476563 -0.1875 34.4375 C-1.22777344 34.42847656 -2.26804687 34.41945313 -3.33984375 34.41015625 C-5.91429092 34.38653747 -8.48828212 34.35360149 -11.0625 34.3125 C-11.0625 33.6525 -11.0625 32.9925 -11.0625 32.3125 C-11.68125 32.003125 -12.3 31.69375 -12.9375 31.375 C-14.3125 30.6875 -15.6875 30 -17.0625 29.3125 C-17.0625 26.6725 -17.0625 24.0325 -17.0625 21.3125 C-17.7225 21.3125 -18.3825 21.3125 -19.0625 21.3125 C-19.105221 19.64638095 -19.10313832 17.97867115 -19.0625 16.3125 C-18.7325 15.9825 -18.4025 15.6525 -18.0625 15.3125 C-17.69489269 12.98432036 -17.36008419 10.6506615 -17.0625 8.3125 C-16.4025 8.3125 -15.7425 8.3125 -15.0625 8.3125 C-15.0625 7.6525 -15.0625 6.9925 -15.0625 6.3125 C-14.4025 6.3125 -13.7425 6.3125 -13.0625 6.3125 C-13.0625 4.9925 -13.0625 3.6725 -13.0625 2.3125 C-8.73911012 0.18887797 -4.72888395 -0.02167225 0 0 Z M-2.0625 8.3125 C-2.0625 8.9725 -2.0625 9.6325 -2.0625 10.3125 C-3.0525 10.3125 -4.0425 10.3125 -5.0625 10.3125 C-5.0625 11.6325 -5.0625 12.9525 -5.0625 14.3125 C-5.7225 14.3125 -6.3825 14.3125 -7.0625 14.3125 C-7.0625 17.2825 -7.0625 20.2525 -7.0625 23.3125 C-6.4025 23.3125 -5.7425 23.3125 -5.0625 23.3125 C-4.7325 24.3025 -4.4025 25.2925 -4.0625 26.3125 C-3.4025 25.9825 -2.7425 25.6525 -2.0625 25.3125 C-2.0625 24.6525 -2.0625 23.9925 -2.0625 23.3125 C-1.4025 23.3125 -0.7425 23.3125 -0.0625 23.3125 C-0.0625 20.6725 -0.0625 18.0325 -0.0625 15.3125 C0.5975 15.3125 1.2575 15.3125 1.9375 15.3125 C1.9375 13.6625 1.9375 12.0125 1.9375 10.3125 C1.2775 10.3125 0.6175 10.3125 -0.0625 10.3125 C-0.0625 9.6525 -0.0625 8.9925 -0.0625 8.3125 C-0.7225 8.3125 -1.3825 8.3125 -2.0625 8.3125 Z " fill="#FFFFFF" transform="translate(513.0625,542.6875)"/>
<path d="M0 0 C0 1.32 0 2.64 0 4 C0.598125 3.34 1.19625 2.68 1.8125 2 C5.81771271 -0.51307464 8.64829262 -0.51828789 13.28125 -0.62890625 C17.11973316 0.25901873 18.52653665 1.97423472 21 5 C21.56762695 8.22973633 21.56762695 8.22973633 21.48828125 11.83203125 C21.47216797 13.12431641 21.45605469 14.41660156 21.43945312 15.74804688 C21.39768274 17.10288157 21.35535809 18.45769928 21.3125 19.8125 C21.28740069 21.18680866 21.26459036 22.56116116 21.24414062 23.93554688 C21.18526461 27.29147976 21.1030642 30.6451809 21 34 C17.7 34 14.4 34 11 34 C10.505 22.12 10.505 22.12 10 10 C8.35 10.66 6.7 11.32 5 12 C4.67 19.26 4.34 26.52 4 34 C0.04 34 -3.92 34 -8 34 C-8 25.75 -8 17.5 -8 9 C-8.66 8.67 -9.32 8.34 -10 8 C-10.25 5.6875 -10.25 5.6875 -10 3 C-7.00198322 -0.3439418 -4.3216814 -0.2946601 0 0 Z " fill="#FFFFFF" transform="translate(437,543)"/>
<path d="M0 0 C33.66 0 67.32 0 102 0 C102.495 1.98 102.495 1.98 103 4 C102.01 4 101.02 4 100 4 C100 4.66 100 5.32 100 6 C89.11 6 78.22 6 67 6 C67 7.32 67 8.64 67 10 C66.34 10 65.68 10 65 10 C65 10.66 65 11.32 65 12 C58.4 12 51.8 12 45 12 C44 9 44 9 45 6 C30.81 6 16.62 6 2 6 C2 5.34 2 4.68 2 4 C1.34 4 0.68 4 0 4 C0 2.68 0 1.36 0 0 Z " fill="#FFFFFF" transform="translate(485,636)"/>
<path d="M0 0 C1.1034375 0.01289062 2.206875 0.02578125 3.34375 0.0390625 C6.42685657 0.36721493 8.70458953 1.07117049 11.5 2.375 C11.5 4.355 11.5 6.335 11.5 8.375 C10.84 8.375 10.18 8.375 9.5 8.375 C9.5 9.035 9.5 9.695 9.5 10.375 C6.86 10.375 4.22 10.375 1.5 10.375 C1.5 11.035 1.5 11.695 1.5 12.375 C2.82 12.705 4.14 13.035 5.5 13.375 C5.5 14.035 5.5 14.695 5.5 15.375 C6.11875 15.519375 6.7375 15.66375 7.375 15.8125 C9.5 16.375 9.5 16.375 11.5 17.375 C11.60933663 19.08186635 11.68619084 20.79082604 11.75 22.5 C11.79640625 23.45132813 11.8428125 24.40265625 11.890625 25.3828125 C11.3600508 29.44701085 10.32602383 31.39586343 7.5 34.375 C4.59197539 35.12603941 1.85607256 34.99006389 -1.125 34.8125 C-1.90101563 34.79380859 -2.67703125 34.77511719 -3.4765625 34.75585938 C-9.0994753 34.57526235 -9.0994753 34.57526235 -11.5 33.375 C-11.5 30.735 -11.5 28.095 -11.5 25.375 C-10.84 25.375 -10.18 25.375 -9.5 25.375 C-9.5 24.715 -9.5 24.055 -9.5 23.375 C-6.53 23.705 -3.56 24.035 -0.5 24.375 C-0.83 24.045 -1.16 23.715 -1.5 23.375 C-1.5 22.715 -1.5 22.055 -1.5 21.375 C-2.82 21.705 -4.14 22.035 -5.5 22.375 C-6.11875 21.570625 -6.7375 20.76625 -7.375 19.9375 C-9.24164041 17.33625481 -9.24164041 17.33625481 -11.5 16.375 C-11.63547465 14.46029156 -11.73220869 12.54281519 -11.8125 10.625 C-11.87050781 9.55765625 -11.92851563 8.4903125 -11.98828125 7.390625 C-11.5 4.375 -11.5 4.375 -9.38671875 2.0078125 C-5.96732731 0.07370476 -3.90494079 -0.10036063 0 0 Z " fill="#FFFFFF" transform="translate(700.5,542.625)"/>
<path d="M0 0 C3.3 0 6.6 0 10 0 C10 0.66 10 1.32 10 2 C12.475 2.495 12.475 2.495 15 3 C15 4.65 15 6.3 15 8 C14.01 8 13.02 8 12 8 C12 8.66 12 9.32 12 10 C9.03 10 6.06 10 3 10 C1.95023036 13.14930893 1.89868405 15.38814456 1.9375 18.6875 C1.94652344 19.68136719 1.95554687 20.67523437 1.96484375 21.69921875 C1.97644531 22.45847656 1.98804688 23.21773437 2 24 C2.99 24 3.98 24 5 24 C5 24.66 5 25.32 5 26 C5.99 25.34 6.98 24.68 8 24 C9.32 24 10.64 24 12 24 C12 24.66 12 25.32 12 26 C12.99 26.33 13.98 26.66 15 27 C15.1875 29.375 15.1875 29.375 15 32 C11.32059741 34.45293506 9.43692571 34.2379918 5.0625 34.1875 C3.83660156 34.18105469 2.61070312 34.17460938 1.34765625 34.16796875 C-1.31068356 34.03458647 -3.48045374 33.78933154 -6 33 C-6 32.34 -6 31.68 -6 31 C-6.66 31 -7.32 31 -8 31 C-8 29.68 -8 28.36 -8 27 C-8.66 27 -9.32 27 -10 27 C-10 21.39 -10 15.78 -10 10 C-9.34 10 -8.68 10 -8 10 C-8 8.68 -8 7.36 -8 6 C-6.25 3.75 -6.25 3.75 -4 2 C-2.68 2 -1.36 2 0 2 C0 1.34 0 0.68 0 0 Z " fill="#FFFFFF" transform="translate(573,543)"/>
<path d="M0 0 C1.39120471 0.00015906 2.78241534 0.00585033 4.17358398 0.01586914 C4.90463852 0.01728409 5.63569305 0.01869904 6.38890076 0.02015686 C8.73253406 0.02577131 11.07607313 0.03832617 13.41967773 0.05102539 C15.00496282 0.05603853 16.59024939 0.06060176 18.17553711 0.06469727 C22.06945383 0.07574542 25.96329979 0.09301967 29.85717773 0.11352539 C29.85717773 0.77352539 29.85717773 1.43352539 29.85717773 2.11352539 C31.83717773 2.11352539 33.81717773 2.11352539 35.85717773 2.11352539 C35.85717773 2.77352539 35.85717773 3.43352539 35.85717773 4.11352539 C36.51717773 4.11352539 37.17717773 4.11352539 37.85717773 4.11352539 C37.85717773 5.43352539 37.85717773 6.75352539 37.85717773 8.11352539 C37.19717773 8.11352539 36.53717773 8.11352539 35.85717773 8.11352539 C35.85717773 8.77352539 35.85717773 9.43352539 35.85717773 10.11352539 C26.61717773 10.11352539 17.37717773 10.11352539 7.85717773 10.11352539 C7.85717773 9.45352539 7.85717773 8.79352539 7.85717773 8.11352539 C1.91717773 7.12352539 1.91717773 7.12352539 -4.14282227 6.11352539 C-4.14282227 0.14964751 -4.14282227 0.14964751 0 0 Z " fill="#FFFFFF" transform="translate(444.142822265625,663.886474609375)"/>
<path d="M0 0 C15.18 0 30.36 0 46 0 C46.495 1.98 46.495 1.98 47 4 C46.01 4.33 45.02 4.66 44 5 C44 5.66 44 6.32 44 7 C29.48 7 14.96 7 0 7 C0 4.69 0 2.38 0 0 Z " fill="#FFFFFF" transform="translate(452,643)"/>
<path d="M0 0 C5.28 0 10.56 0 16 0 C16 0.66 16 1.32 16 2 C16.99 2 17.98 2 19 2 C19 3.65 19 5.3 19 7 C12.21283273 8.80991127 4.82147102 8.43609916 -2 7 C-2 5.35 -2 3.7 -2 2 C-1.34 2 -0.68 2 0 2 C0 1.34 0 0.68 0 0 Z " fill="#FFFFFF" transform="translate(504,645)"/>
<path d="M0 0 C4.95 0 9.9 0 15 0 C15 2.31 15 4.62 15 7 C10.05 7 5.1 7 0 7 C0 4.69 0 2.38 0 0 Z " fill="#FFFFFF" transform="translate(630,617)"/>
<path d="" fill="#FFFFFF" transform="translate(0,0)"/>
<path d="" fill="#FFFFFF" transform="translate(0,0)"/>
<path d="" fill="#FFFFFF" transform="translate(0,0)"/>
<path d="" fill="#FFFFFF" transform="translate(0,0)"/>
<path d="" fill="#FFFFFF" transform="translate(0,0)"/>
<path d="" fill="#FFFFFF" transform="translate(0,0)"/>
<path d="" fill="#FFFFFF" transform="translate(0,0)"/>
</svg>
