<?xml version="1.0" encoding="UTF-8"?>
<svg version="1.1" xmlns="http://www.w3.org/2000/svg" width="1000" height="1000">
<path d="M0 0 C30.36 0 60.72 0 92 0 C92.04125 12.024375 92.0825 24.04875 92.125 36.4375 C92.14320801 40.21888428 92.16141602 44.00026855 92.18017578 47.89624023 C92.18920898 52.55285645 92.18920898 52.55285645 92.19088745 54.7403717 C92.19393662 56.25165488 92.20092459 57.76293353 92.21115112 59.27418518 C92.3525142 81.28572428 92.3525142 81.28572428 87.375 86.875 C86.92898438 87.40867187 86.48296875 87.94234375 86.0234375 88.4921875 C80.63711365 92.50593461 74.66560078 93.44406809 68.11523438 93.34057617 C67.36094398 93.34093778 66.60665359 93.34129938 65.82950592 93.34167194 C63.4173056 93.33945449 61.00582389 93.31671072 58.59375 93.29296875 C57.09277684 93.28855114 55.59179904 93.28549477 54.09082031 93.28381348 C48.56047583 93.26816315 43.03023066 93.22627934 37.5 93.1875 C25.125 93.125625 12.75 93.06375 0 93 C0 62.31 0 31.62 0 0 Z M29 24 C23.91439873 30.18519073 21.37480226 37.68295196 21.72265625 45.68359375 C22.74105079 54.18933968 25.74395933 61.03794621 32 67 C38.8246666 71.79787803 46.32716623 73.96956979 54.60546875 72.5546875 C60.30286347 71.05491945 64.42777111 68.67766236 69 65 C68.0919838 63.86800647 67.17316174 62.74467637 66.25 61.625 C65.73953125 60.99851562 65.2290625 60.37203125 64.703125 59.7265625 C62.91800519 57.91687682 61.32050356 56.99882545 59 56 C58.154375 56.66 57.30875 57.32 56.4375 58 C52.42117792 60.33676921 50.57221523 60.64171442 46 60 C40.58298898 57.79647009 37.96867085 55.53715264 35.66015625 50.140625 C34.05215054 44.92649998 34.42951413 40.7313545 36.625 35.75 C38.77036892 31.93934472 40.96335183 29.86306839 45 28 C50.18014551 27.11459202 53.66320339 28.10880226 58 31 C61.80399456 31.38548333 61.80399456 31.38548333 63.703125 29.79296875 C64.46882813 28.99826172 64.46882813 28.99826172 65.25 28.1875 C65.77078125 27.66542969 66.2915625 27.14335938 66.828125 26.60546875 C68.29478652 24.92742033 68.29478652 24.92742033 68 22 C62.78433474 17.4345995 56.44030861 15.31854709 49.625 14.6875 C41.4243955 15.39444866 35.03189389 18.40678931 29 24 Z " fill="#FFFFFF" transform="translate(296,504)"/>
<path d="M0 0 C0.77363262 -0.00012053 1.54726524 -0.00024107 2.34434128 -0.00036526 C4.84254607 0.00037968 7.34067578 0.00798884 9.83886719 0.01586914 C11.38362594 0.01733986 12.92838518 0.01835977 14.47314453 0.0189209 C20.19401803 0.02415876 25.91488085 0.03811999 31.63574219 0.05102539 C44.42324219 0.07165039 57.21074219 0.09227539 70.38574219 0.11352539 C70.38574219 30.47352539 70.38574219 60.83352539 70.38574219 92.11352539 C40.02574219 92.11352539 9.66574219 92.11352539 -21.61425781 92.11352539 C-21.67613281 79.20227539 -21.73800781 66.29102539 -21.80175781 52.98852539 C-21.82906982 48.91879395 -21.85638184 44.8490625 -21.88452148 40.65600586 C-21.89807129 35.66845703 -21.89807129 35.66845703 -21.90058899 33.33010864 C-21.90518166 31.70451389 -21.91570376 30.07892907 -21.9309845 28.45339966 C-21.95302557 25.98429741 -21.95597316 23.51581712 -21.95483398 21.04663086 C-21.97102547 19.96886289 -21.97102547 19.96886289 -21.98754406 18.86932182 C-21.95374213 13.37600784 -20.63107866 9.34559858 -16.93066406 5.25024414 C-16.351875 4.77200195 -15.77308594 4.29375977 -15.17675781 3.80102539 C-14.60054687 3.30989258 -14.02433594 2.81875977 -13.43066406 2.31274414 C-9.31913155 -0.40175152 -4.76764421 -0.02394743 0 0 Z M9.94824219 23.67602539 C6.78490838 28.61082612 6.92408016 33.43153117 7.38574219 39.11352539 C8.94516644 44.27911823 11.54815495 46.29943904 16.04589844 48.87915039 C20.12432718 51.03070879 24.23117654 53.11286366 28.38574219 55.11352539 C28.38574219 57.09352539 28.38574219 59.07352539 28.38574219 61.11352539 C22.38988683 62.25067037 19.83902212 62.15721652 14.38574219 59.11352539 C11.11791304 60.20280177 10.56636886 60.79700468 8.63574219 63.48852539 C8.18714844 64.09438477 7.73855469 64.70024414 7.27636719 65.32446289 C6.04553481 67.26935243 6.04553481 67.26935243 7.38574219 70.11352539 C13.91317889 74.85066999 21.64949776 74.94131376 29.38574219 74.11352539 C34.69319343 72.40755892 37.18541573 69.50254454 40.38574219 65.11352539 C41.4391073 61.95343006 41.58607107 59.55821179 41.63574219 56.23852539 C41.67441406 54.69551758 41.67441406 54.69551758 41.71386719 53.12133789 C41.21016223 48.5040424 39.44162103 46.09937145 36.08886719 42.96899414 C33.18996796 40.97914279 30.40756589 39.70332602 27.13574219 38.42602539 C21.46421301 36.19199622 21.46421301 36.19199622 20.38574219 35.11352539 C20.34510387 33.44735424 20.34302119 31.77964444 20.38574219 30.11352539 C23.45003995 28.58137651 26.00230639 28.88413991 29.38574219 29.11352539 C32.32324219 30.61352539 32.32324219 30.61352539 34.38574219 32.11352539 C37.35574219 27.65852539 37.35574219 27.65852539 40.38574219 23.11352539 C34.92731082 18.29726242 29.89746078 16.61491531 22.69433594 16.79711914 C17.42060639 17.51991456 13.57334196 19.86502306 9.94824219 23.67602539 Z " fill="#FFFFFF" transform="translate(216.6142578125,402.886474609375)"/>
<path d="M0 0 C30.36 0 60.72 0 92 0 C92 30.69 92 61.38 92 93 C79.46 93.061875 66.92 93.12375 54 93.1875 C50.05289063 93.21481201 46.10578125 93.24212402 42.0390625 93.27026367 C37.1875 93.28381348 37.1875 93.28381348 34.91015625 93.28633118 C33.33298192 93.29091231 31.75581754 93.3014101 30.17871094 93.31672668 C27.77781155 93.33886101 25.37754945 93.34171227 22.9765625 93.34057617 C22.28398346 93.3513705 21.59140442 93.36216482 20.87783813 93.37328625 C14.40909481 93.33263245 9.14422836 91.72470542 4.125 87.6875 C0.08023724 82.57206474 -0.29045539 77.39757796 -0.22705078 71.06689453 C-0.22729185 70.28310865 -0.22753292 69.49932278 -0.2277813 68.69178581 C-0.22629672 66.17200978 -0.21110355 63.65253513 -0.1953125 61.1328125 C-0.19236941 59.57023257 -0.19033061 58.00765066 -0.18920898 56.44506836 C-0.17875251 50.67168204 -0.15082996 44.89833801 -0.125 39.125 C-0.08375 26.21375 -0.0425 13.3025 0 0 Z M19 13 C19 32.14 19 51.28 19 71 C16.69 71 14.38 71 12 71 C12 71.66 12 72.32 12 73 C14.31 73 16.62 73 19 73 C19 75.31 19 77.62 19 80 C19.99 80 20.98 80 22 80 C22 77.69 22 75.38 22 73 C40.81 73.33 59.62 73.66 79 74 C79 73.01 79 72.02 79 71 C71.08 71 63.16 71 55 71 C54.67 60.44 54.34 49.88 54 39 C43.44 39 32.88 39 22 39 C22 30.42 22 21.84 22 13 C21.01 13 20.02 13 19 13 Z M52.21484375 29.21875 C50.46010742 29.28642578 50.46010742 29.28642578 48.66992188 29.35546875 C47.43822266 29.40316406 46.20652344 29.45085938 44.9375 29.5 C43.70193359 29.54769531 42.46636719 29.59539063 41.19335938 29.64453125 C38.12889962 29.76285016 35.06444687 29.88134775 32 30 C32 30.99 32 31.98 32 33 C40.91 33 49.82 33 59 33 C59.33 41.91 59.66 50.82 60 60 C61.32 59.67 62.64 59.34 64 59 C63.94818033 54.74900017 63.8531128 50.5000407 63.75 46.25 C63.73582031 45.0434375 63.72164063 43.836875 63.70703125 42.59375 C63.67480469 41.43359375 63.64257812 40.2734375 63.609375 39.078125 C63.58842773 38.00981445 63.56748047 36.94150391 63.54589844 35.84082031 C62.88210006 32.38645628 61.70977283 31.16860257 59 29 C56.73840224 29 54.47411271 29.13143526 52.21484375 29.21875 Z " fill="#FFFFFF" transform="translate(195,504)"/>
<path d="M0 0 C2.9375 1.5625 2.9375 1.5625 5 4 C6.59367269 9.94971137 6.59367269 9.94971137 5.01809692 12.73712158 C3.54769216 16.00532437 3.73808089 19.18973027 3.77294922 22.70605469 C3.77258761 23.8813719 3.77258761 23.8813719 3.7722187 25.08043289 C3.77370878 27.61103001 3.7889274 30.14133073 3.8046875 32.671875 C3.80762889 34.23648944 3.80966874 35.80110585 3.81079102 37.36572266 C3.82126728 43.16051183 3.84918976 48.95525884 3.875 54.75 C3.91625 67.7025 3.9575 80.655 4 94 C-26.36 94 -56.72 94 -88 94 C-88 63.64 -88 33.28 -88 2 C-49.125 1.5625 -49.125 1.5625 -36.84033203 1.43188477 C-33.21323366 1.38864175 -33.21323366 1.38864175 -29.58615112 1.34410095 C-27.967926 1.32485278 -26.34967721 1.30753716 -24.73141479 1.29173279 C-22.28326828 1.26745115 -19.83526643 1.2370794 -17.38720703 1.20532227 C-16.66367098 1.19955201 -15.94013493 1.19378176 -15.19467354 1.18783665 C-9.90853074 1.10927783 -5.3795172 -0.7213912 0 0 Z M-10.0625 4.625 C-11.32868536 7.83266959 -10.99549067 9.7291021 -10 13 C-6.50875983 15.32749345 -5.10777749 15.50299316 -1 15 C1.56338689 13.52006844 1.56338689 13.52006844 3 11 C2.85205998 7.3014996 2.64194427 5.64194427 0 3 C-5.44582616 2.31157225 -5.44582616 2.31157225 -10.0625 4.625 Z M-78 20 C-76.40188991 24.94010645 -74.80270728 29.87986412 -73.20263672 34.81933594 C-72.66134431 36.49079581 -72.12031775 38.1623418 -71.57958984 39.83398438 C-67.78087877 51.57674113 -63.92185208 63.29778458 -60 75 C-57.28544694 72.56091741 -55.65436836 69.91275758 -53.86328125 66.74609375 C-52.99799805 65.21758789 -52.99799805 65.21758789 -52.11523438 63.65820312 C-51.52033203 62.59537109 -50.92542969 61.53253906 -50.3125 60.4375 C-49.70599609 59.37080078 -49.09949219 58.30410156 -48.47460938 57.20507812 C-45.33443542 52.37803884 -45.33443542 52.37803884 -44 47 C-43.34 47 -42.68 47 -42 47 C-41.58331055 48.07459473 -41.58331055 48.07459473 -41.15820312 49.17089844 C-39.18814489 53.9830896 -36.81486575 58.59634223 -34.5 63.25 C-34.00113281 64.26835937 -33.50226563 65.28671875 -32.98828125 66.3359375 C-32.50746094 67.30273438 -32.02664063 68.26953125 -31.53125 69.265625 C-31.09361328 70.15024414 -30.65597656 71.03486328 -30.20507812 71.94628906 C-29.16635517 74.14394656 -29.16635517 74.14394656 -27 75 C-25.2565625 70.32744796 -23.51514272 65.6541501 -21.77539062 60.98022461 C-21.18639281 59.39865049 -20.59689481 57.81726254 -20.00683594 56.23608398 C-16.81552344 47.68325757 -13.65117434 39.12065483 -10.5703125 30.52734375 C-10.31071747 29.81349014 -10.05112244 29.09963654 -9.78366089 28.364151 C-8.74334095 25.43810366 -8 23.13091874 -8 20 C-12.29 20 -16.58 20 -21 20 C-22.17595499 23.39287014 -23.34100912 26.78883754 -24.5 30.1875 C-24.83386719 31.14720703 -25.16773438 32.10691406 -25.51171875 33.09570312 C-25.98544922 34.49272461 -25.98544922 34.49272461 -26.46875 35.91796875 C-26.76201172 36.77156982 -27.05527344 37.6251709 -27.35742188 38.50463867 C-28.02681173 41.10411957 -28.11719018 43.32764529 -28 46 C-30.69652927 43.61151876 -32.07485367 41.16288131 -33.62890625 37.9296875 C-34.10650391 36.95128906 -34.58410156 35.97289062 -35.07617188 34.96484375 C-35.56666016 33.94519531 -36.05714844 32.92554688 -36.5625 31.875 C-37.53742464 29.84888543 -38.5176242 27.82529781 -39.50390625 25.8046875 C-39.93517822 24.90733887 -40.3664502 24.00999023 -40.81079102 23.08544922 C-41.82673634 20.85519635 -41.82673634 20.85519635 -44 20 C-44.53109375 21.0621875 -45.0621875 22.124375 -45.609375 23.21875 C-47.734375 27.46875 -47.734375 27.46875 -49.859375 31.71875 C-50.20935547 32.42128906 -50.55933594 33.12382812 -50.91992188 33.84765625 C-51.65775139 35.31797836 -52.40425624 36.78397078 -53.15820312 38.24609375 C-55.24525985 41.93157653 -55.24525985 41.93157653 -56 46 C-56.66 46 -57.32 46 -58 46 C-58.10183594 45.04996094 -58.20367187 44.09992188 -58.30859375 43.12109375 C-59.00228535 38.26525253 -60.53877967 33.7114379 -62.0625 29.0625 C-62.48499023 27.75055664 -62.48499023 27.75055664 -62.91601562 26.41210938 C-63.6056388 24.27310866 -64.30212081 22.13632132 -65 20 C-69.29 20 -73.58 20 -78 20 Z " fill="#FFFFFF" transform="translate(384,401)"/>
<path d="M0 0 C210.21 0 420.42 0 637 0 C637 1.32 637 2.64 637 4 C426.79 4 216.58 4 0 4 C0 2.68 0 1.36 0 0 Z " fill="#FFFFFF" transform="translate(182,498)"/>
<path d="M0 0 C3.63 0 7.26 0 11 0 C12.71514746 4.64253012 14.42396827 9.28732072 16.12695312 13.93432617 C16.70724713 15.51504314 17.28926866 17.09512703 17.87304688 18.67456055 C18.71157911 20.94415928 19.54388408 23.21595792 20.375 25.48828125 C20.63748535 26.19463211 20.8999707 26.90098297 21.17041016 27.6287384 C22.23695003 30.56071715 23 32.85349781 23 36 C23.66 36 24.32 36 25 36 C25.31319144 34.60432165 25.62551788 33.20844918 25.9375 31.8125 C26.19853516 30.64654297 26.19853516 30.64654297 26.46484375 29.45703125 C26.64144531 28.64621094 26.81804688 27.83539063 27 27 C27.3084082 25.83476807 27.3084082 25.83476807 27.62304688 24.64599609 C28.05412871 21.62004729 27.62859735 20.05014844 26.56640625 17.20703125 C26.24736328 16.32982422 25.92832031 15.45261719 25.59960938 14.54882812 C25.08624023 13.1943457 25.08624023 13.1943457 24.5625 11.8125 C23.89466015 10.00742429 23.22917463 8.20147521 22.56640625 6.39453125 C22.26677979 5.59893799 21.96715332 4.80334473 21.65844727 3.98364258 C21 2 21 2 21 0 C24.63 0 28.26 0 32 0 C32.66 1.98 33.32 3.96 34 6 C34.99 4.02 35.98 2.04 37 0 C40.63 0 44.26 0 48 0 C46.45055232 5.34559448 44.81213845 10.51783346 42.75 15.6875 C40.53371447 21.72496747 41.00879788 25.87107158 43.55859375 31.703125 C44.03425781 32.79109375 44.50992188 33.8790625 45 35 C45.35827881 34.01080566 45.71655762 33.02161133 46.08569336 32.00244141 C47.41325098 28.33809921 48.74239429 24.67433388 50.07202148 21.01074219 C50.64765105 19.42398559 51.22284846 17.83707215 51.79760742 16.25 C52.62305387 13.97094164 53.45004462 11.69244888 54.27734375 9.4140625 C54.53466782 8.70255035 54.79199188 7.99103821 55.05711365 7.25796509 C56.88612829 2.22774341 56.88612829 2.22774341 58 0 C61.63 0 65.26 0 69 0 C66.75204773 6.80963771 64.41109412 13.58193369 62.0234375 20.34375 C61.65272125 21.39405396 61.282005 22.44435791 60.90005493 23.52648926 C60.12232099 25.72843913 59.34410549 27.93021896 58.56542969 30.13183594 C57.36911331 33.51665562 56.17674445 36.90285075 54.984375 40.2890625 C54.22680599 42.43237775 53.46900198 44.57560995 52.7109375 46.71875 C52.3536557 47.73529663 51.9963739 48.75184326 51.62826538 49.79919434 C51.2976712 50.73106567 50.96707703 51.66293701 50.62646484 52.62304688 C50.19036392 53.85806946 50.19036392 53.85806946 49.74545288 55.11804199 C49 57 49 57 48 58 C45.66702567 58.04092937 43.33294775 58.04241723 41 58 C40.57847656 56.78441406 40.15695312 55.56882812 39.72265625 54.31640625 C39.16942192 52.73171808 38.61602828 51.14708552 38.0625 49.5625 C37.78470703 48.76005859 37.50691406 47.95761719 37.22070312 47.13085938 C36.95322266 46.36708984 36.68574219 45.60332031 36.41015625 44.81640625 C36.04096069 43.75595093 36.04096069 43.75595093 35.66430664 42.67407227 C35.12532025 40.99317368 35.12532025 40.99317368 34 40 C33.57847656 41.21558594 33.15695312 42.43117188 32.72265625 43.68359375 C32.16942192 45.26828192 31.61602828 46.85291448 31.0625 48.4375 C30.64581055 49.64116211 30.64581055 49.64116211 30.22070312 50.86914062 C29.95322266 51.63291016 29.68574219 52.39667969 29.41015625 53.18359375 C29.16402588 53.89056396 28.91789551 54.59753418 28.66430664 55.32592773 C28 57 28 57 27 58 C25.00041636 58.04080783 22.99954746 58.04254356 21 58 C17.95383391 51.41641023 15.34753778 44.73324273 12.890625 37.91015625 C12.33311554 36.3715519 12.33311554 36.3715519 11.76434326 34.80186462 C10.98630033 32.65194068 10.20989418 30.50142375 9.43505859 28.3503418 C8.24413518 25.04622857 7.04623182 21.7447034 5.84765625 18.44335938 C5.09072931 16.34910883 4.33420434 14.25471295 3.578125 12.16015625 C3.21881897 11.17064468 2.85951294 10.18113312 2.48931885 9.16163635 C2.16187683 8.2498613 1.83443481 7.33808624 1.49707031 6.39868164 C1.20713196 5.59531876 0.9171936 4.79195587 0.61846924 3.96424866 C0 2 0 2 0 0 Z " fill="#FFFFFF" transform="translate(591,434)"/>
<path d="M0 0 C3.63 0 7.26 0 11 0 C11.03867187 2.63742187 11.03867187 2.63742187 11.078125 5.328125 C11.13440102 7.63544166 11.19174846 9.94273237 11.25 12.25 C11.26417969 13.40886719 11.27835937 14.56773437 11.29296875 15.76171875 C11.32519531 16.87675781 11.35742188 17.99179687 11.390625 19.140625 C11.41157227 20.16704102 11.43251953 21.19345703 11.45410156 22.25097656 C12.13110811 25.66023136 13.33814946 26.83639008 16 29 C18.82001327 30.41000664 20.87007255 30.24548451 24 30 C27.71156874 28.23526445 27.71156874 28.23526445 30 25 C30.15344209 23.11527141 30.24959571 21.22572126 30.31640625 19.3359375 C30.35830078 18.21445312 30.40019531 17.09296875 30.44335938 15.9375 C30.48267578 14.761875 30.52199219 13.58625 30.5625 12.375 C30.60568359 11.19164062 30.64886719 10.00828125 30.69335938 8.7890625 C30.79967338 5.85952093 30.90036217 2.92977623 31 0 C34.63 0 38.26 0 42 0 C42.07453648 5.55010083 42.12878399 11.09990586 42.16479492 16.65039062 C42.17981793 18.53585897 42.20024231 20.42129275 42.22631836 22.30664062 C42.26298863 25.0274309 42.27979146 27.74775641 42.29296875 30.46875 C42.30845261 31.30241089 42.32393646 32.13607178 42.33988953 32.99499512 C42.34232389 41.59208916 39.80524225 47.98520796 33.88671875 54.30078125 C29.56732428 58.19091913 24.82800183 59.61923271 19.0390625 59.33984375 C12.04514881 58.17419147 7.74355613 54.1281088 3.25 48.90234375 C2 47 2 47 2 44 C4.97 43.01 7.94 42.02 11 41 C11.515625 41.78375 12.03125 42.5675 12.5625 43.375 C15.5885795 46.63385485 17.63943018 47.31148898 22 48 C25.58306156 47.26710104 26.64630069 46.50528473 28.75 43.5 C29.1625 42.675 29.575 41.85 30 41 C30.33 40.34 30.66 39.68 31 39 C30.28457031 39.32097656 29.56914062 39.64195312 28.83203125 39.97265625 C23.63232738 41.85889365 17.95398089 42.08751009 12.71875 40.16015625 C7.41438927 37.13055022 2.33032659 32.172231 0.43554688 26.22973633 C-0.08571726 23.5611795 -0.11212088 21.07872472 -0.09765625 18.359375 C-0.09443359 17.28945313 -0.09121094 16.21953125 -0.08789062 15.1171875 C-0.07951172 14.00601563 -0.07113281 12.89484375 -0.0625 11.75 C-0.05798828 10.62335937 -0.05347656 9.49671875 -0.04882812 8.3359375 C-0.03705411 5.55726894 -0.019119 2.77862773 0 0 Z " fill="#FFFFFF" transform="translate(463,522)"/>
<path d="M0 0 C3.3 0 6.6 0 10 0 C10 19.14 10 38.28 10 58 C6.7 58 3.4 58 0 58 C0 57.34 0 56.68 0 56 C-0.94875 56.495 -1.8975 56.99 -2.875 57.5 C-8.19472471 59.74610599 -13.61614217 59.96768596 -19.171875 58.37890625 C-25.38952318 55.66772245 -30.1979346 50.67621341 -33.171875 44.609375 C-35.09254851 38.55744149 -35.0566805 31.45914025 -32.4375 25.625 C-29.10825969 19.95820798 -24.24437649 16.00482191 -18 14 C-15.0625 13.734375 -15.0625 13.734375 -12 13.75 C-10.4840625 13.74226563 -10.4840625 13.74226563 -8.9375 13.734375 C-6 14 -6 14 -1 16 C-0.67 10.72 -0.34 5.44 0 0 Z M-23 30 C-24.20643566 33.61930698 -24.32268559 36.19231005 -24 40 C-22.15996243 43.68007515 -20.57414699 45.60447652 -17.1875 47.9375 C-13.19980361 49.26673213 -11.03999845 49.15428527 -7 48 C-3.58940385 45.87411271 -1.30287612 43.90862837 0 40 C0.39308695 35.20433923 0.48270142 32.93092416 -1.75 28.625 C-5.1154125 24.69868542 -6.67735253 24.17346196 -11.8125 23.5 C-16.79541726 23.60264436 -19.88501214 26.28910142 -23 30 Z " fill="#FFFFFF" transform="translate(578,434)"/>
<path d="M0 0 C4.5154466 2.62771809 8.08353915 6.01196386 11.5 9.9375 C10.1581656 13.96300319 8.0772427 14.82035636 4.5 16.9375 C3.84 16.9375 3.18 16.9375 2.5 16.9375 C1.943125 16.174375 1.38625 15.41125 0.8125 14.625 C-2.43850211 10.84680836 -5.73241721 9.34566868 -10.671875 8.6171875 C-16.4072144 8.32053201 -20.79186924 9.64928169 -25.5 12.9375 C-29.8784635 17.43118622 -31.59026787 21.54283947 -31.875 27.75 C-31.73054483 34.21196115 -29.67614823 38.76135177 -25.125 43.3125 C-19.99938596 46.48549916 -15.5094352 47.46464344 -9.5 46.9375 C-4.28445337 45.22895886 -1.14298637 43.02206048 2.5 38.9375 C5.95925163 40.1866742 8.64693203 41.61277795 11.5 43.9375 C8.94281621 49.81385668 3.68126628 54.24716397 -2.125 56.875 C-9.91239563 59.31239351 -18.70046343 59.25297063 -26.0625 55.6875 C-27.5619767 54.80444766 -29.04485054 53.8918332 -30.5 52.9375 C-31.4075 52.380625 -32.315 51.82375 -33.25 51.25 C-39.66444999 44.65737084 -43.42537362 36.67519575 -43.52734375 27.46875 C-43.0185857 19.01553934 -39.99466069 11.77507422 -34.28125 5.5078125 C-25.10350846 -2.58309122 -11.24804719 -5.28606224 0 0 Z " fill="#FFFFFF" transform="translate(446.5,509.0625)"/>
<path d="M0 0 C4.92703548 3.50838906 8.0159729 7.91846584 9.640625 13.73828125 C10.265625 17.61328125 10.265625 17.61328125 10.265625 23.61328125 C-6.069375 24.10828125 -6.069375 24.10828125 -22.734375 24.61328125 C-19.41755464 29.68736097 -19.41755464 29.68736097 -15.734375 30.61328125 C-9.90778688 30.95012941 -9.90778688 30.95012941 -4.734375 28.61328125 C-4.404375 27.95328125 -4.074375 27.29328125 -3.734375 26.61328125 C-0.06556345 27.31882193 2.97013034 28.89063631 6.265625 30.61328125 C4.85690175 33.97815906 3.26907028 35.67037582 0.328125 37.80078125 C-0.36152344 38.30996094 -1.05117188 38.81914063 -1.76171875 39.34375 C-6.88794744 42.64280807 -12.87064663 42.12738196 -18.734375 41.61328125 C-26.32094908 39.63800408 -30.00310109 34.14046129 -33.875 27.72265625 C-35.91476338 22.71596431 -35.49065535 16.45172585 -34.1171875 11.296875 C-31.33264761 5.00085781 -26.15643397 0.68452747 -20.359375 -2.82421875 C-12.81972973 -4.43985702 -6.77647861 -3.78246841 0 0 Z M-20.734375 9.61328125 C-21.394375 10.93328125 -22.054375 12.25328125 -22.734375 13.61328125 C-15.804375 13.94328125 -8.874375 14.27328125 -1.734375 14.61328125 C-3.95809975 10.16583174 -5.45146037 8.96468536 -9.734375 6.61328125 C-14.09094897 5.85088081 -17.0404198 7.31482023 -20.734375 9.61328125 Z " fill="#FFFFFF" transform="translate(752.734375,524.38671875)"/>
<path d="M0 0 C4.94166197 3.82484636 8.248184 7.920168 10 14 C10 17.3 10 20.6 10 24 C-0.89 24 -11.78 24 -23 24 C-20.37261102 29.02979589 -20.37261102 29.02979589 -16 31 C-11.68317857 31.41833115 -7.65902437 31.63449755 -4 29 C-3.67 28.34 -3.34 27.68 -3 27 C0.48670834 28.1094072 3.77484237 29.26337666 7 31 C5.19413353 35.87583947 1.45484865 38.79564756 -3.078125 41.01953125 C-8.53846952 43.1101177 -13.34343254 43.63769182 -19 42 C-25.26462045 39.16681129 -30.0909334 34.95979539 -33.10546875 28.70703125 C-34.98466202 23.02021493 -35.17742482 16.24843097 -33.125 10.5859375 C-29.79031281 4.90380603 -25.02166217 0.41439506 -19.0625 -2.375 C-12.17258503 -3.7811051 -6.16682364 -3.49042218 0 0 Z M-22 12 C-22.33 12.99 -22.66 13.98 -23 15 C-15.74 15 -8.48 15 -1 15 C-3.50056593 10.02378257 -3.50056593 10.02378257 -7 8 C-13.01178426 7.12370602 -17.76662151 7.22037913 -22 12 Z " fill="#FFFFFF" transform="translate(529,450)"/>
<path d="M0 0 C3.92489012 3.57418701 7.86453982 7.70118584 9 13 C9 16.3 9 19.6 9 23 C-1.89 23 -12.78 23 -24 23 C-21.37261102 28.02979589 -21.37261102 28.02979589 -17 30 C-12.68317857 30.41833115 -8.65902437 30.63449755 -5 28 C-4.67 27.34 -4.34 26.68 -4 26 C-0.9168649 27.19899698 2.06279492 28.47700477 5 30 C4.45059727 33.62605799 3.29817142 34.96930216 0.375 37.125 C-5.48718644 41.23790168 -10.73683651 42.58664412 -17.80078125 41.53125 C-24.60913619 39.88660298 -29.02561918 35.61089057 -33 30 C-36.41902785 23.93628858 -36.50762653 17.7668159 -34.78125 11.16796875 C-32.28468491 4.24000062 -27.54592025 0.14932943 -21 -3 C-13.37896825 -5.3188023 -6.64576371 -4.27567952 0 0 Z M-24 12 C-24 12.66 -24 13.32 -24 14 C-16.74 14 -9.48 14 -2 14 C-4.50056593 9.02378257 -4.50056593 9.02378257 -8 7 C-14.98031748 5.85864 -19.24532352 6.74483125 -24 12 Z " fill="#FFFFFF" transform="translate(481,451)"/>
<path d="M0 0 C3.79720108 2.6619554 7.14877426 5.78958795 8.484375 10.3359375 C8.76953125 12.265625 8.76953125 12.265625 8.89453125 15.328125 C5.26453125 15.328125 1.63453125 15.328125 -2.10546875 15.328125 C-2.76546875 13.678125 -3.42546875 12.028125 -4.10546875 10.328125 C-7.23253834 8.7645902 -10.68529318 8.92854013 -14.10546875 9.328125 C-15.09546875 9.988125 -16.08546875 10.648125 -17.10546875 11.328125 C-17.35562748 14.91169741 -17.35562748 14.91169741 -17.10546875 18.328125 C-13.36606987 20.34942169 -9.70979677 21.81005076 -5.66796875 23.140625 C0.408792 25.30971399 5.00848729 28.13005047 8.33203125 33.765625 C9.61263008 39.59946414 9.24305847 44.19817914 6.3359375 49.39453125 C2.8624047 54.05414842 -1.33611274 56.78309217 -7.04296875 57.90625 C-13.65218776 58.27717556 -18.09017127 57.0227178 -23.328125 52.96875 C-27.73706364 48.89896049 -28.52886728 45.20945997 -29.10546875 39.328125 C-25.47546875 39.328125 -21.84546875 39.328125 -18.10546875 39.328125 C-17.44546875 40.978125 -16.78546875 42.628125 -16.10546875 44.328125 C-12.61678224 46.65391601 -11.20828356 46.74677957 -7.10546875 46.328125 C-4.62441681 45.42576665 -4.62441681 45.42576665 -3.10546875 43.328125 C-2.77166061 39.70248686 -2.77166061 39.70248686 -3.10546875 36.328125 C-3.72292969 36.08578125 -4.34039062 35.8434375 -4.9765625 35.59375 C-7.6919795 34.51915575 -10.39899618 33.42503798 -13.10546875 32.328125 C-13.92789062 32.00457031 -14.7503125 31.68101562 -15.59765625 31.34765625 C-21.26618534 29.00962658 -25.13665419 26.46032999 -28.48046875 21.140625 C-29.66396285 15.81490153 -29.56960552 10.77797638 -26.71875 6.0078125 C-19.62115912 -2.63689369 -9.95288577 -5.57518651 0 0 Z " fill="#FFFFFF" transform="translate(432.10546875,435.671875)"/>
<path d="M0 0 C3.63 0 7.26 0 11 0 C11 9.24 11 18.48 11 28 C15.95017102 22.38532008 15.95017102 22.38532008 20.5625 16.5 C22.88224841 14.13551815 24.10237114 13.98922409 27.48828125 13.6328125 C31.01301726 13.6257276 34.48558965 13.74002992 38 14 C38 14.66 38 15.32 38 16 C36.671875 17.26953125 36.671875 17.26953125 34.75 18.8125 C28.61412897 23.99929745 23.37199727 30.04603636 18 36 C20.97885605 38.99060696 23.9760255 41.96098374 26.98828125 44.91796875 C28.42978738 46.34104467 29.87119148 47.76422394 31.3125 49.1875 C32.05306641 49.91130859 32.79363281 50.63511719 33.55664062 51.38085938 C34.60561523 52.42016602 34.60561523 52.42016602 35.67578125 53.48046875 C36.6335144 54.42249146 36.6335144 54.42249146 37.6105957 55.38354492 C39 57 39 57 39 59 C32.09748643 59.49034249 25.81786275 59.9258043 20.33203125 55.26171875 C17.33061908 52.35808382 14.62694311 49.24332083 12 46 C11.67 49.96 11.34 53.92 11 58 C7.37 58 3.74 58 0 58 C0 38.86 0 19.72 0 0 Z " fill="#FFFFFF" transform="translate(740,434)"/>
<path d="M0 0 C4.8475957 4.41444551 8.54172435 8.96479365 9.30078125 15.6484375 C9.33764009 24.22426193 7.43654646 30.11656548 1.58984375 36.4921875 C-3.35703003 41.18381717 -9.39505647 42.14358573 -16 42 C-22.62716963 40.86322273 -27.50573016 36.81528911 -32 32 C-35.12389342 27.36454524 -36.15548964 22.54274817 -36 17 C-34.75608311 10.77013524 -32.28082242 4.49613087 -27.10546875 0.55859375 C-18.2065226 -5.23645282 -9.11781902 -5.86612371 0 0 Z M-24 12 C-25.72447196 15.44894392 -25.36671096 19.22156745 -25 23 C-23.40784408 26.66195861 -21.59590196 29.20204902 -18 31 C-13.73763657 31.58377585 -10.14418038 31.44772276 -6.125 29.875 C-3.31014381 27.39130336 -2.19380014 25.58140041 -1 22 C-0.6987037 16.97544109 -1.23920377 13.91295548 -4.5 10 C-5.7375 9.01 -5.7375 9.01 -7 8 C-7.33 7.67 -7.66 7.34 -8 7 C-15.1040079 6.06350178 -19.09484103 6.7175211 -24 12 Z " fill="#FFFFFF" transform="translate(696,451)"/>
<path d="M0 0 C4.50334071 3.23992499 7.52260466 7.39203273 9.26953125 12.6328125 C9.90960104 20.30315705 10.16596391 27.34762555 5.26953125 33.6328125 C0.9914306 38.16435514 -3.23507388 41.21818635 -9.5625 41.96875 C-17.2337976 42.06929125 -22.77325865 41.36036308 -28.48046875 35.984375 C-34.14836382 29.74424052 -35.25638722 24.21648527 -35.10546875 15.859375 C-34.35153786 9.37242794 -30.91951991 5.53644343 -26.23046875 1.2578125 C-17.99833007 -5.22918329 -9.05139141 -4.98895589 0 0 Z M-20.73046875 9.6328125 C-23.55704107 12.90568571 -24.639265 14.8901534 -25.16796875 19.1953125 C-24.54450395 24.09396447 -22.5174998 27.47695329 -18.73046875 30.6328125 C-14.22487234 32.13467797 -10.38833538 32.34870945 -5.98046875 30.4453125 C-2.86549608 27.93602896 -1.04522436 25.75849083 -0.4453125 21.70703125 C-0.24995376 17.19679245 -0.83305529 14.25457933 -3.73046875 10.6328125 C-8.80738343 5.55589782 -15.02359473 5.70141039 -20.73046875 9.6328125 Z " fill="#FFFFFF" transform="translate(593.73046875,524.3671875)"/>
<path d="M0 0 C5.61220646 3.22645068 8.87663265 7.89170021 10.90625 13.953125 C12.23402197 19.73505403 11.96282006 25.60254509 11.875 31.5 C11.86597656 32.65628906 11.85695313 33.81257812 11.84765625 35.00390625 C11.82425029 37.83602786 11.78838498 40.6680418 11.75 43.5 C8.12 43.5 4.49 43.5 0.75 43.5 C0.73018066 42.67274414 0.71036133 41.84548828 0.68994141 40.99316406 C0.59468788 37.24512194 0.48500891 33.49763683 0.375 29.75 C0.3440625 28.44804688 0.313125 27.14609375 0.28125 25.8046875 C0.24257813 24.55429687 0.20390625 23.30390625 0.1640625 22.015625 C0.11693115 20.28747559 0.11693115 20.28747559 0.06884766 18.52441406 C-0.23689715 15.62428644 -0.67790326 13.92438713 -2.25 11.5 C-6.0873845 8.75901107 -9.99429146 9.31202429 -14.5 9.6875 C-16.4668633 10.38136725 -16.4668633 10.38136725 -17.33349609 12.63745117 C-18.37933129 15.90394497 -18.57016592 18.68605608 -18.6640625 22.11328125 C-18.72207031 23.9840332 -18.72207031 23.9840332 -18.78125 25.89257812 C-18.82765625 27.83293945 -18.82765625 27.83293945 -18.875 29.8125 C-18.93300781 31.78186523 -18.93300781 31.78186523 -18.9921875 33.79101562 C-19.08633117 37.02720437 -19.17196352 40.26338935 -19.25 43.5 C-22.88 43.5 -26.51 43.5 -30.25 43.5 C-30.25 28.98 -30.25 14.46 -30.25 -0.5 C-25.96 -0.5 -21.67 -0.5 -17.25 -0.5 C-11.59165621 -2.3861146 -5.51345061 -2.41147069 0 0 Z " fill="#FFFFFF" transform="translate(541.25,522.5)"/>
<path d="M0 0 C3.3 0 6.6 0 10 0 C10.01458252 0.75619629 10.02916504 1.51239258 10.04418945 2.29150391 C10.11892 5.73650277 10.21549928 9.18055921 10.3125 12.625 C10.33505859 13.81480469 10.35761719 15.00460937 10.38085938 16.23046875 C10.52887889 24.61218417 10.52887889 24.61218417 14 32 C17.13400885 33.56700442 20.63155095 33.85164561 24 33 C27.73664718 29.2131877 28.51326657 26.6486551 28.609375 21.38671875 C28.64160156 20.13955078 28.67382812 18.89238281 28.70703125 17.60742188 C28.72121094 16.31384766 28.73539063 15.02027344 28.75 13.6875 C28.79447266 11.71813477 28.79447266 11.71813477 28.83984375 9.70898438 C28.91045589 6.47259465 28.96319877 3.23692189 29 0 C32.63 0 36.26 0 40 0 C40 14.52 40 29.04 40 44 C35.33333333 44 30.66666667 44 26 44 C24.783125 44.226875 23.56625 44.45375 22.3125 44.6875 C16.44582787 45.44240266 12.12364944 43.35141328 7.25 40.25 C2.70114739 35.70114739 0.13634763 30.52216708 -0.11352539 24.06738281 C-0.10828857 22.95717773 -0.10305176 21.84697266 -0.09765625 20.703125 C-0.09443359 19.49785156 -0.09121094 18.29257812 -0.08789062 17.05078125 C-0.07951172 15.79652344 -0.07113281 14.54226563 -0.0625 13.25 C-0.05798828 11.98027344 -0.05347656 10.71054687 -0.04882812 9.40234375 C-0.03704556 6.26818164 -0.02059416 3.13411459 0 0 Z " fill="#FFFFFF" transform="translate(643,522)"/>
<path d="M0 0 C3.30661311 2.13230191 6.22256749 4.44513498 8 8 C8.039992 9.99960012 8.04346799 12.00047242 8 14 C4.7 14 1.4 14 -2 14 C-2.33 13.01 -2.66 12.02 -3 11 C-4.98 11 -6.96 11 -9 11 C-9 12.32 -9 13.64 -9 15 C-8.26394531 15.23074219 -7.52789063 15.46148437 -6.76953125 15.69921875 C-0.27910018 17.8684117 4.79255321 19.58510641 8 26 C8.60422062 30.79923809 9.00428242 35.44565535 5.9375 39.4375 C2.25336375 42.65132098 -0.99577396 44.86026856 -6.015625 45.09375 C-10.89140048 44.7215534 -14.24279375 43.23294492 -18 40 C-20.34512613 36.24779819 -21 34.47038145 -21 30 C-19.37581255 29.91909029 -17.75048255 29.86085005 -16.125 29.8125 C-15.22007812 29.77769531 -14.31515625 29.74289062 -13.3828125 29.70703125 C-12.20332031 29.85205078 -12.20332031 29.85205078 -11 30 C-10.34 30.99 -9.68 31.98 -9 33 C-5.41642759 33.25015873 -5.41642759 33.25015873 -2 33 C-2.0092323 31.04932787 -2.0092323 31.04932787 -3 29 C-6.19389342 27.5077346 -9.44656707 26.51941238 -12.80078125 25.44140625 C-16.99069291 23.55364385 -18.97027691 21.05944618 -21 17 C-21.46981237 12.20791378 -21.03723106 8.70195039 -18.38671875 4.58203125 C-13.56376314 -0.92021388 -6.82200712 -2.35536203 0 0 Z " fill="#FFFFFF" transform="translate(800,448)"/>
<path d="M0 0 C4.31742567 2.24174025 7.43176517 4.85131296 10 9 C10.25 12.3125 10.25 12.3125 10 15 C6.96554716 15.23341945 4.02688868 15.36259604 1 15 C-1.25 12.9375 -1.25 12.9375 -3 11 C-5.70705512 11.14025199 -5.70705512 11.14025199 -8 12 C-7.90791853 13.96390732 -7.90791853 13.96390732 -7 16 C-4.62411023 17.18545012 -4.62411023 17.18545012 -1.75 17.9375 C3.1667062 19.55298918 5.80572068 20.95391286 9 25 C10.73704155 28.4740831 10.46041616 32.20156669 10 36 C7.80850458 40.38299083 5.59809038 43.20074724 1 45 C-3.60491678 45.54711883 -7.58734622 45.6141973 -11.875 43.75 C-12.926875 42.88375 -12.926875 42.88375 -14 42 C-15.11375 41.13375 -15.11375 41.13375 -16.25 40.25 C-18.57397652 37.26203019 -18.71410921 34.71658029 -19 31 C-17.37581255 30.91909029 -15.75048255 30.86085005 -14.125 30.8125 C-13.22007812 30.77769531 -12.31515625 30.74289062 -11.3828125 30.70703125 C-10.20332031 30.85205078 -10.20332031 30.85205078 -9 31 C-8.34 31.99 -7.68 32.98 -7 34 C-4.41619823 34.25030977 -4.41619823 34.25030977 -2 34 C-1.67 32.68 -1.34 31.36 -1 30 C-2.21236328 29.54560547 -2.21236328 29.54560547 -3.44921875 29.08203125 C-15.89947487 24.20105026 -15.89947487 24.20105026 -19 18 C-19.50890436 11.89314771 -19.0775461 8.87040228 -15 4 C-10.53273471 0.07422141 -5.85490155 -0.79991065 0 0 Z " fill="#FFFFFF" transform="translate(627,521)"/>
<path d="M0 0 C1.98 0.99 1.98 0.99 4 2 C4.75 5.125 4.75 5.125 5 8 C5.66 8 6.32 8 7 8 C7.185625 6.8553125 7.185625 6.8553125 7.375 5.6875 C8 3 8 3 10 0 C10.66 0 11.32 0 12 0 C12.33 3.3 12.66 6.6 13 10 C14.65 6.7 16.3 3.4 18 0 C21.08089673 2.77280706 22.68775452 5.06326356 24 9 C24.33 6.03 24.66 3.06 25 0 C30.625 -0.25 30.625 -0.25 34 2 C34.3125 4.5 34.3125 4.5 34 7 C33.34 7.66 32.68 8.32 32 9 C32.66 9.99 33.32 10.98 34 12 C34.33 8.04 34.66 4.08 35 0 C35.99 0 36.98 0 38 0 C38.495 1.485 38.495 1.485 39 3 C39.37616455 2.51104248 39.7523291 2.02208496 40.13989258 1.51831055 C42.72837959 -0.594539 44.45199055 -0.3433707 47.76171875 -0.29296875 C48.87998047 -0.28330078 49.99824219 -0.27363281 51.15039062 -0.26367188 C52.90125977 -0.2259668 52.90125977 -0.2259668 54.6875 -0.1875 C55.86634766 -0.17396484 57.04519531 -0.16042969 58.25976562 -0.14648438 C61.17337133 -0.11109645 64.08674264 -0.05728911 67 0 C67 4.62 67 9.24 67 14 C65.68 14 64.36 14 63 14 C63 10.7 63 7.4 63 4 C62.01 4 61.02 4 60 4 C60 7.3 60 10.6 60 14 C59.01 14 58.02 14 57 14 C57 10.7 57 7.4 57 4 C54.03 4 51.06 4 48 4 C48 4.66 48 5.32 48 6 C49.98 6 51.96 6 54 6 C54 6.99 54 7.98 54 9 C52.02 9 50.04 9 48 9 C48 9.66 48 10.32 48 11 C49.98 11 51.96 11 54 11 C54 11.99 54 12.98 54 14 C52.25285767 14.25002209 50.50200859 14.47423194 48.75 14.6875 C47.77546875 14.81511719 46.8009375 14.94273437 45.796875 15.07421875 C42.51727269 14.9871902 41.36689329 14.19219402 39 12 C38.67 12.66 38.34 13.32 38 14 C35.6875 14.875 35.6875 14.875 33 15 C30.6875 13.0625 30.6875 13.0625 29 11 C28.67 11.99 28.34 12.98 28 14 C26.125 14.8125 26.125 14.8125 24 15 C23.01 14.34 22.02 13.68 21 13 C21 12.34 21 11.68 21 11 C19.35 11 17.7 11 16 11 C15.67 11.99 15.34 12.98 15 14 C14.01 14.33 13.02 14.66 12 15 C11.38125 14.67 10.7625 14.34 10.125 14 C7.35398029 12.69599073 5.91182051 13.25337936 3 14 C2.01 14 1.02 14 0 14 C0 9.38 0 4.76 0 0 Z M44 2 C42.30911778 3.97956942 40.64169528 5.97945196 39 8 C40.98 9.65 42.96 11.3 45 13 C45 9.37 45 5.74 45 2 C44.67 2 44.34 2 44 2 Z M28 4 C28 4.66 28 5.32 28 6 C28.99 6 29.98 6 31 6 C31 5.34 31 4.68 31 4 C30.01 4 29.02 4 28 4 Z M18 6 C18 6.66 18 7.32 18 8 C18.66 7.67 19.32 7.34 20 7 C19.34 6.67 18.68 6.34 18 6 Z " fill="#FFFFFF" transform="translate(496,582)"/>
<path d="M0 0 C3.3 0 6.6 0 10 0 C10.33 0.66 10.66 1.32 11 2 C11.61875 1.67 12.2375 1.34 12.875 1 C17.33783382 -0.42810682 21.32175185 -0.12475328 26 0 C26 3.3 26 6.6 26 10 C25.24074219 10.09796875 24.48148438 10.1959375 23.69921875 10.296875 C22.70535156 10.44640625 21.71148438 10.5959375 20.6875 10.75 C19.70136719 10.88921875 18.71523438 11.0284375 17.69921875 11.171875 C14.47834143 12.16004576 13.64974136 13.11695685 12 16 C10.96285478 19.11143567 10.79968139 21.49468096 10.68359375 24.76171875 C10.64169922 25.87998047 10.59980469 26.99824219 10.55664062 28.15039062 C10.51732422 29.31763672 10.47800781 30.48488281 10.4375 31.6875 C10.39431641 32.86634766 10.35113281 34.04519531 10.30664062 35.25976562 C10.20048824 38.17305883 10.09843758 41.08643757 10 44 C6.7 44 3.4 44 0 44 C0 29.48 0 14.96 0 0 Z " fill="#FFFFFF" transform="translate(711,448)"/>
<path d="M0 0 C3.3 0 6.6 0 10 0 C10.33 0.66 10.66 1.32 11 2 C11.55171875 1.67257812 12.1034375 1.34515625 12.671875 1.0078125 C15.38780923 -0.16787715 17.30551759 -0.20248638 20.25 -0.125 C22.60125 -0.063125 22.60125 -0.063125 25 0 C25 3.3 25 6.6 25 10 C22.49348958 10.42317708 19.98697917 10.84635417 17.48046875 11.26953125 C14.76353184 12.06963708 13.70779042 12.77502384 12 15 C10.94163339 18.17509982 10.79756211 20.64282383 10.68359375 23.98046875 C10.64169922 25.14384766 10.59980469 26.30722656 10.55664062 27.50585938 C10.51732422 28.72080078 10.47800781 29.93574219 10.4375 31.1875 C10.39431641 32.41404297 10.35113281 33.64058594 10.30664062 34.90429688 C10.2004691 37.93608381 10.09842048 40.96795315 10 44 C6.7 44 3.4 44 0 44 C0 29.48 0 14.96 0 0 Z " fill="#FFFFFF" transform="translate(690,522)"/>
<path d="M0 0 C6.27 0 12.54 0 19 0 C19.33 6.27 19.66 12.54 20 19 C13.4 19 6.8 19 0 19 C0 12.73 0 6.46 0 0 Z " fill="#FFFFFF" transform="translate(217,556)"/>
<path d="M0 0 C1.8125 0.75 1.8125 0.75 2.8125 1.75 C3.1425 1.09 3.4725 0.43 3.8125 -0.25 C6.08307377 -0.30398987 8.35401288 -0.34278742 10.625 -0.375 C11.88957031 -0.39820313 13.15414062 -0.42140625 14.45703125 -0.4453125 C17.8125 -0.25 17.8125 -0.25 20.8125 1.75 C21 4.125 21 4.125 20.8125 6.75 C20.8125 8.07 20.8125 9.39 20.8125 10.75 C22.7925 7.12 24.7725 3.49 26.8125 -0.25 C27.4725 -0.25 28.1325 -0.25 28.8125 -0.25 C29.68096831 1.49294678 30.53180627 3.24468663 31.375 5 C31.85066406 5.97453125 32.32632813 6.9490625 32.81640625 7.953125 C33.84760273 10.84856297 33.92596788 11.94966161 32.8125 14.75 C32.2246875 14.0384375 32.2246875 14.0384375 31.625 13.3125 C29.40441626 11.39820367 27.67874291 11.13733012 24.8125 10.75 C24.8125 11.74 24.8125 12.73 24.8125 13.75 C22.5 14.4375 22.5 14.4375 19.8125 14.75 C18 13.3125 18 13.3125 16.8125 11.75 C16.4825 12.41 16.1525 13.07 15.8125 13.75 C14.8225 13.75 13.8325 13.75 12.8125 13.75 C12.3175 8.8 12.3175 8.8 11.8125 3.75 C11.1525 3.75 10.4925 3.75 9.8125 3.75 C9.8125 7.05 9.8125 10.35 9.8125 13.75 C8.8225 13.75 7.8325 13.75 6.8125 13.75 C6.8125 10.45 6.8125 7.15 6.8125 3.75 C2.3575 4.245 2.3575 4.245 -2.1875 4.75 C-1.383125 4.976875 -0.57875 5.20375 0.25 5.4375 C1.095625 5.870625 1.94125 6.30375 2.8125 6.75 C3.625 9.375 3.625 9.375 3.8125 11.75 C2.125 13.375 2.125 13.375 -0.1875 14.75 C-2.875 14.125 -2.875 14.125 -5.1875 12.75 C-5.5175 11.76 -5.8475 10.77 -6.1875 9.75 C-4.2075 9.75 -2.2275 9.75 -0.1875 9.75 C-0.991875 9.3375 -1.79625 8.925 -2.625 8.5 C-5.1875 6.75 -5.1875 6.75 -6 4.5625 C-6.061875 3.964375 -6.12375 3.36625 -6.1875 2.75 C-2.75487589 -0.31484296 -2.75487589 -0.31484296 0 0 Z M15.8125 3.75 C15.8125 4.41 15.8125 5.07 15.8125 5.75 C16.4725 5.75 17.1325 5.75 17.8125 5.75 C17.8125 5.09 17.8125 4.43 17.8125 3.75 C17.1525 3.75 16.4925 3.75 15.8125 3.75 Z M26.8125 5.75 C26.8125 6.41 26.8125 7.07 26.8125 7.75 C27.4725 7.42 28.1325 7.09 28.8125 6.75 C28.1525 6.42 27.4925 6.09 26.8125 5.75 Z " fill="#FFFFFF" transform="translate(619.1875,582.25)"/>
<path d="M0 0 C2.31 0.33 4.62 0.66 7 1 C8.0625 3.375 8.0625 3.375 9 6 C8.67 6.66 8.34 7.32 8 8 C7.34 8 6.68 8 6 8 C6.99 9.485 6.99 9.485 8 11 C9.65 7.7 11.3 4.4 13 1 C13.99 1 14.98 1 16 1 C17.32 3.97 18.64 6.94 20 10 C20.33 6.7 20.66 3.4 21 0 C24 1 24 1 26 4 C26.33 2.68 26.66 1.36 27 0 C27.99 0 28.98 0 30 0 C30 4.95 30 9.9 30 15 C27 14 27 14 25.8125 11.9375 C25.544375 11.298125 25.27625 10.65875 25 10 C24.67 11.32 24.34 12.64 24 14 C22.1875 14.625 22.1875 14.625 20 15 C19.01 14.34 18.02 13.68 17 13 C17 12.34 17 11.68 17 11 C15.35 11 13.7 11 12 11 C11.67 11.99 11.34 12.98 11 14 C9.125 14.875 9.125 14.875 7 15 C5.25 13.5625 5.25 13.5625 4 12 C3.67 12.66 3.34 13.32 3 14 C2.01 14 1.02 14 0 14 C0 9.38 0 4.76 0 0 Z M3 4 C3 4.66 3 5.32 3 6 C3.66 6 4.32 6 5 6 C5 5.34 5 4.68 5 4 C4.34 4 3.68 4 3 4 Z M14 6 C15 8 15 8 15 8 Z " fill="#FFFFFF" transform="translate(414,582)"/>
<path d="M0 0 C4 2 4 2 6 5 C6.33 3.35 6.66 1.7 7 0 C7.99 0 8.98 0 10 0 C10.33 0.99 10.66 1.98 11 3 C11.53625 2.484375 12.0725 1.96875 12.625 1.4375 C15 0 15 0 18.0625 0.1875 C21 1 21 1 24 3 C24.9375 5.8125 24.9375 5.8125 25 9 C23.05935151 12.49316729 21.80377801 13.732074 18 15 C14.55029609 15 13.44455675 14.35053534 11 12 C10.67 12.66 10.34 13.32 10 14 C8.0625 13.625 8.0625 13.625 6 13 C5.67 12.34 5.34 11.68 5 11 C4.67 11.99 4.34 12.98 4 14 C2.68 14 1.36 14 0 14 C0 9.38 0 4.76 0 0 Z M17 3 C15.68 4.32 14.36 5.64 13 7 C13.79117904 8.99983534 13.79117904 8.99983534 15 11 C15.99 11.33 16.98 11.66 18 12 C18.99 11.01 19.98 10.02 21 9 C19.68 9 18.36 9 17 9 C17 8.01 17 7.02 17 6 C18.32 5.67 19.64 5.34 21 5 C19.68 4.34 18.36 3.68 17 3 Z " fill="#FFFFFF" transform="translate(461,582)"/>
<path d="M0 0 C5.94 0 11.88 0 18 0 C18 1.32 18 2.64 18 4 C16.02 4 14.04 4 12 4 C12 4.66 12 5.32 12 6 C13.65 6 15.3 6 17 6 C17 6.99 17 7.98 17 9 C15.35 9.33 13.7 9.66 12 10 C14.97 10.495 14.97 10.495 18 11 C18 11.99 18 12.98 18 14 C14.7 14 11.4 14 8 14 C8 10.7 8 7.4 8 4 C7.34 4 6.68 4 6 4 C6 7.3 6 10.6 6 14 C4.68 14 3.36 14 2 14 C2 11.03 2 8.06 2 5 C1.34 4.67 0.68 4.34 0 4 C0 2.68 0 1.36 0 0 Z " fill="#FFFFFF" transform="translate(652,582)"/>
<path d="M0 0 C2.875 0.9375 2.875 0.9375 5.875 2.9375 C6.8125 5.75 6.8125 5.75 6.875 8.9375 C5.04705985 12.10124258 3.81360759 13.58552215 0.375 14.875 C-2.48755343 14.94656384 -3.77967614 14.55496473 -6.125 12.9375 C-8.30538095 9.66692857 -8.75746755 8.73230531 -8.125 4.9375 C-4.41034704 -0.08820694 -4.41034704 -0.08820694 0 0 Z M-1.125 2.9375 C-2.445 4.2575 -3.765 5.5775 -5.125 6.9375 C-4.33382096 8.93733534 -4.33382096 8.93733534 -3.125 10.9375 C-2.135 11.2675 -1.145 11.5975 -0.125 11.9375 C0.865 10.9475 1.855 9.9575 2.875 8.9375 C1.555 8.9375 0.235 8.9375 -1.125 8.9375 C-1.125 7.9475 -1.125 6.9575 -1.125 5.9375 C0.195 5.6075 1.515 5.2775 2.875 4.9375 C1.555 4.2775 0.235 3.6175 -1.125 2.9375 Z " fill="#FFFFFF" transform="translate(678.125,582.0625)"/>
<path d="M0 0 C2.51029235 2.83420104 3.01329687 4.33515665 2.9375 8.125 C2 11 2 11 0.3125 12.9375 C-2.87297124 14.40109489 -4.67881323 13.98928968 -8 13 C-9.875 11.875 -9.875 11.875 -11 10 C-11.65439093 3.89235127 -11.65439093 3.89235127 -9.625 1.125 C-6.1023139 -1.31378268 -4.1380175 -1.18229072 0 0 Z M-5 2 C-5.99 2.66 -6.98 3.32 -8 4 C-8.25030977 6.58380177 -8.25030977 6.58380177 -8 9 C-6.02 9.99 -6.02 9.99 -4 11 C-3.01 10.01 -2.02 9.02 -1 8 C-2.32 8 -3.64 8 -5 8 C-5 7.01 -5 6.02 -5 5 C-3.68 4.67 -2.36 4.34 -1 4 C-2.32 3.34 -3.64 2.68 -5 2 Z " fill="#FFFFFF" transform="translate(585,583)"/>
<path d="M0 0 C2.875 1.0625 2.875 1.0625 4.8125 3.25 C6.13034582 6.73841542 6.02710349 8.52938262 4.875 12.0625 C3.1875 14 3.1875 14 0.875 15.0625 C-2.23532079 14.93554813 -4.32578043 14.54203174 -7 12.9375 C-8.84809221 9.85734632 -8.61560718 7.55807617 -8.125 4.0625 C-5.46834042 0.93701814 -4.11787106 0.08235742 0 0 Z M-5.125 5.0625 C-5.37530977 7.64630177 -5.37530977 7.64630177 -5.125 10.0625 C-3.145 11.0525 -3.145 11.0525 -1.125 12.0625 C-0.135 11.0725 0.855 10.0825 1.875 9.0625 C0.555 9.0625 -0.765 9.0625 -2.125 9.0625 C-2.125 8.0725 -2.125 7.0825 -2.125 6.0625 C-0.475 6.0625 1.175 6.0625 2.875 6.0625 C2.0705029 3.89986927 2.0705029 3.89986927 0 3.3125 C-2.42509243 2.79447594 -2.42509243 2.79447594 -5.125 5.0625 Z " fill="#FFFFFF" transform="translate(803.125,581.9375)"/>
<path d="M0 0 C1.65 0 3.3 0 5 0 C5.33 0.99 5.66 1.98 6 3 C8.00016466 4.20882096 8.00016466 4.20882096 10 5 C8.28571429 12.71428571 8.28571429 12.71428571 6 15 C3.19048514 15.29573841 1.58371024 15.38243085 -0.8125 13.8125 C-2.39032321 11.40424352 -2.28999379 9.82743944 -2 7 C-1.67 6.34 -1.34 5.68 -1 5 C-0.64386903 3.33805547 -0.30791692 1.671549 0 0 Z M2 2 C2.66 3.32 3.32 4.64 4 6 C4.66 5.01 5.32 4.02 6 3 C4.68 2.67 3.36 2.34 2 2 Z " fill="#FFFFFF" transform="translate(597,582)"/>
<path d="M0 0 C1.875 1.125 1.875 1.125 3 3 C3.5 6.4375 3.5 6.4375 3 10 C0.875 12.5 0.875 12.5 -2 14 C-5.50732933 14 -7.2434698 13.6345092 -9.9375 11.375 C-11.49800943 7.88680246 -10.99154664 5.63567102 -10 2 C-6.93558602 -1.63189805 -4.37003477 -1.30171248 0 0 Z M-8 5 C-7.59471099 7.78237655 -7.59471099 7.78237655 -6 10 C-3.5 10.16666667 -3.5 10.16666667 -1 10 C0.28322547 8.9404123 0.28322547 8.9404123 0.125 6.5 C0.28322547 4.0595877 0.28322547 4.0595877 -1 3 C-4.961168 2.60909667 -4.961168 2.60909667 -8 5 Z " fill="#FFFFFF" transform="translate(729,583)"/>
<path d="M0 0 C7.28358209 0.59701493 7.28358209 0.59701493 10 2.125 C11.61516686 5.15343786 11.3593084 7.64645493 11 11 C10 12.9375 10 12.9375 8 14 C5.28117977 14.23595284 2.74042978 14.13477523 0 14 C0 9.38 0 4.76 0 0 Z M3 4 C3 6.31 3 8.62 3 11 C4.65 10.67 6.3 10.34 8 10 C8 8.35 8 6.7 8 5 C6.35 4.67 4.7 4.34 3 4 Z " fill="#FFFFFF" transform="translate(445,582)"/>
<path d="M0 0 C3 1 3 1 5 4 C5.33 2.68 5.66 1.36 6 0 C6.99 0 7.98 0 9 0 C9 4.95 9 9.9 9 15 C6 14 6 14 4 11 C3.67 11.99 3.34 12.98 3 14 C2.01 14 1.02 14 0 14 C0 9.38 0 4.76 0 0 Z " fill="#FFFFFF" transform="translate(785,582)"/>
<path d="M0 0 C3 1 3 1 5 4 C5.33 2.68 5.66 1.36 6 0 C6.99 0 7.98 0 9 0 C9 4.95 9 9.9 9 15 C6 14 6 14 4 11 C3.67 11.99 3.34 12.98 3 14 C2.01 14 1.02 14 0 14 C0 9.38 0 4.76 0 0 Z " fill="#FFFFFF" transform="translate(733,582)"/>
<path d="M0 0 C2.31 0.33 4.62 0.66 7 1 C8.4617773 5.3853319 9.44935236 8.52018362 8 13 C7.67 13.33 7.34 13.66 7 14 C4.69 14 2.38 14 0 14 C0 9.38 0 4.76 0 0 Z M3 8 C3 8.99 3 9.98 3 11 C3.99 11 4.98 11 6 11 C6 10.34 6 9.68 6 9 C5.01 8.67 4.02 8.34 3 8 Z " fill="#FFFFFF" transform="translate(404,582)"/>
<path d="M0 0 C3 1 3 1 4.1875 3.0625 C4.455625 3.701875 4.72375 4.34125 5 5 C5.33 3.35 5.66 1.7 6 0 C6.99 0 7.98 0 9 0 C9 4.62 9 9.24 9 14 C7.68 13.67 6.36 13.34 5 13 C4.67 12.34 4.34 11.68 4 11 C3.67 11.99 3.34 12.98 3 14 C2.01 14 1.02 14 0 14 C0 9.38 0 4.76 0 0 Z " fill="#FFFFFF" transform="translate(564,582)"/>
<path d="M0 0 C2.8125 1 2.8125 1 4.1875 3.0625 C4.39375 3.701875 4.6 4.34125 4.8125 5 C3.69875 4.814375 2.585 4.62875 1.4375 4.4375 C-2.01318861 3.68319343 -2.01318861 3.68319343 -4.1875 5 C-4.1875 6.65 -4.1875 8.3 -4.1875 10 C-0.70926885 11.15941038 1.27145578 10.70820884 4.8125 10 C4.1875 11.9375 4.1875 11.9375 2.8125 14 C0 15 0 15 -3.1875 15 C-6.0625 13.5 -6.0625 13.5 -8.1875 11 C-8.8125 7.5 -8.8125 7.5 -8.1875 4 C-5.49592568 0.83344197 -4.17665726 0 0 0 Z " fill="#FFFFFF" transform="translate(713.1875,582)"/>
<path d="M0 0 C0.99 0 1.98 0 3 0 C3 3.63 3 7.26 3 11 C3.99 11 4.98 11 6 11 C6 7.37 6 3.74 6 0 C6.99 0 7.98 0 9 0 C9.08107583 1.93681161 9.13922475 3.8745934 9.1875 5.8125 C9.22230469 6.89144531 9.25710938 7.97039063 9.29296875 9.08203125 C9 12 9 12 7.65625 13.90625 C6 15 6 15 3.3125 14.6875 C2.549375 14.460625 1.78625 14.23375 1 14 C-0.75417412 9.50492881 -1.28362108 5.8215583 -1 1 C-0.67 0.67 -0.34 0.34 0 0 Z " fill="#FFFFFF" transform="translate(753,582)"/>
<path d="M0 0 C1.1446875 0.3403125 1.1446875 0.3403125 2.3125 0.6875 C2.6425 2.0075 2.9725 3.3275 3.3125 4.6875 C1.6625 4.6875 0.0125 4.6875 -1.6875 4.6875 C-0.8625 5.079375 -0.0375 5.47125 0.8125 5.875 C3.3125 7.6875 3.3125 7.6875 3.8125 10.25 C3.3125 12.6875 3.3125 12.6875 0.3125 14.6875 C-1.75 14.5625 -1.75 14.5625 -3.6875 13.6875 C-4.9375 11.625 -4.9375 11.625 -5.6875 9.6875 C-2.7175 10.1825 -2.7175 10.1825 0.3125 10.6875 C0.3125 10.0275 0.3125 9.3675 0.3125 8.6875 C-1.3375 8.3575 -2.9875 8.0275 -4.6875 7.6875 C-5.375 5.375 -5.375 5.375 -5.6875 2.6875 C-4.0011022 -0.12316299 -3.27764429 -0.38112143 0 0 Z " fill="#FFFFFF" transform="translate(748.6875,582.3125)"/>
<path d="M0 0 C1.875 0.3125 1.875 0.3125 4 1 C4.66 1.99 5.32 2.98 6 4 C6.66 2.68 7.32 1.36 8 0 C8.99 0 9.98 0 11 0 C10.24964259 3.11799003 9.36636589 6.18070403 8.4375 9.25 C8.16808594 10.14203125 7.89867187 11.0340625 7.62109375 11.953125 C7.41613281 12.62859375 7.21117187 13.3040625 7 14 C6.01 14 5.02 14 4 14 C3.54427083 12.01432292 3.08854167 10.02864583 2.6328125 8.04296875 C2.01992277 5.72257026 2.01992277 5.72257026 0 3 C0 2.01 0 1.02 0 0 Z " fill="#FFFFFF" transform="translate(684,582)"/>
<path d="M0 0 C2.97 0 5.94 0 9 0 C9 1.32 9 2.64 9 4 C8.01 4 7.02 4 6 4 C6 7.3 6 10.6 6 14 C5.01 14 4.02 14 3 14 C3 10.7 3 7.4 3 4 C2.01 4 1.02 4 0 4 C0 2.68 0 1.36 0 0 Z " fill="#FFFFFF" transform="translate(771,582)"/>
<path d="M0 0 C0.99 0 1.98 0 3 0 C3 3.63 3 7.26 3 11 C4.98 11 6.96 11 9 11 C9 11.99 9 12.98 9 14 C6.03 14 3.06 14 0 14 C0 9.38 0 4.76 0 0 Z " fill="#FFFFFF" transform="translate(763,582)"/>
<path d="M0 0 C0.99 0 1.98 0 3 0 C3 4.62 3 9.24 3 14 C2.01 14 1.02 14 0 14 C0 9.38 0 4.76 0 0 Z " fill="#FFFFFF" transform="translate(781,582)"/>
<path d="M0 0 C0.99 0 1.98 0 3 0 C3 4.62 3 9.24 3 14 C2.01 14 1.02 14 0 14 C0 9.38 0 4.76 0 0 Z " fill="#FFFFFF" transform="translate(457,582)"/>
<path d="M0 0 C1.32 0 2.64 0 4 0 C3.67 1.65 3.34 3.3 3 5 C2.34 5 1.68 5 1 5 C0.67 3.35 0.34 1.7 0 0 Z " fill="#FFFFFF" transform="translate(694,593)"/>
<path d="M0 0 C1.32 0.33 2.64 0.66 4 1 C3.67 2.32 3.34 3.64 3 5 C2.01 4.67 1.02 4.34 0 4 C0 2.68 0 1.36 0 0 Z " fill="#FFFFFF" transform="translate(486,593)"/>
</svg>
