<?xml version="1.0" encoding="UTF-8"?>
<svg version="1.1" xmlns="http://www.w3.org/2000/svg" width="1000" height="1000">
<path d="M0 0 C4.50229474 -0.09889302 9.00395727 -0.17147709 13.50708008 -0.21972656 C15.03876762 -0.2398398 16.57037839 -0.2671345 18.10180664 -0.30175781 C20.30374073 -0.35029315 22.50465982 -0.37296996 24.70703125 -0.390625 C25.39150833 -0.41127014 26.07598541 -0.43191528 26.78120422 -0.45318604 C29.77987014 -0.45460064 31.55521445 -0.37280542 33.89331055 1.58691406 C36.30810708 6.85226791 36.12218232 12.72650196 36.10247803 18.42489624 C36.10080938 19.49627506 36.10080938 19.49627506 36.09910703 20.58929789 C36.09409784 22.96501017 36.08175215 25.34062436 36.06933594 27.71630859 C36.06409861 29.42685327 36.05927228 31.13739925 36.05482483 32.84794617 C36.04121385 37.48231597 36.02076603 42.11663033 35.99825954 46.75096464 C35.98437156 49.64915474 35.97174307 52.54734767 35.9595108 55.4455452 C35.92093278 64.52194438 35.87834675 73.59831086 35.82973552 82.67466199 C35.77370561 93.13673995 35.73067979 103.59876337 35.69905448 114.06094301 C35.67381172 122.15973431 35.63719625 130.25842458 35.59196877 138.35712874 C35.56522258 143.18912753 35.54319695 148.02103546 35.53295135 152.85309982 C35.52298318 157.39881527 35.49884513 161.94424109 35.46401787 166.48983192 C35.45366542 168.15341763 35.44830925 169.81704348 35.44845009 171.48066139 C35.44575969 181.7736812 34.94418226 190.48496259 29.5625 199.625 C29.13710938 200.35847656 28.71171875 201.09195313 28.2734375 201.84765625 C27.64308594 202.91306641 27.64308594 202.91306641 27 204 C26.22745883 205.35319309 25.45646321 206.70727051 24.6875 208.0625 C24.130625 209.031875 23.57375 210.00125 23 211 C22.34 211 21.68 211 21 211 C20.87818359 212.08667969 20.87818359 212.08667969 20.75390625 213.1953125 C18.6498566 221.02281326 9.35017445 228.21357301 3 233 C1.68415591 233.70055447 0.35472874 234.3779612 -1 235 C-1 235.66 -1 236.32 -1 237 C-2.72526042 237.94401042 -4.45052083 238.88802083 -6.17578125 239.83203125 C-8.04925851 240.92772147 -8.04925851 240.92772147 -9.453125 242.5390625 C-11.34903018 244.32963962 -12.94812714 244.82786214 -15.4375 245.5625 C-17.71915156 246.24583727 -19.8034802 246.89854466 -21.921875 247.9921875 C-39.81528683 256.66981955 -63.70098618 253.79082716 -82 248 C-83.35687935 247.03219 -84.69473502 246.03636919 -86 245 C-87.010625 244.773125 -88.02125 244.54625 -89.0625 244.3125 C-94.86193939 242.83152728 -99.34225534 238.57564237 -104 235 C-104.73863281 234.47921875 -105.47726563 233.9584375 -106.23828125 233.421875 C-111.83779052 229.4641636 -117.77907458 224.66277627 -120 218 C-120.66 218 -121.32 218 -122 218 C-123.59881133 215.80720303 -124.8721946 213.48432265 -126.20288086 211.11987305 C-127.36668634 209.09945867 -128.57671145 207.10469643 -129.83935547 205.14453125 C-135.1718765 196.39517861 -135.89018981 189.25527264 -135.4375 179.1875 C-135.40226992 177.80151291 -135.37035186 176.41543755 -135.34179688 175.02929688 C-135.26020103 171.68386711 -135.1457719 168.34314231 -135 165 C-134.01 165 -133.02 165 -132 165 C-132 164.34 -132 163.68 -132 163 C-132.99 163 -133.98 163 -135 163 C-135 152.11 -135 141.22 -135 130 C-134.34 130 -133.68 130 -133 130 C-132.81824219 129.13955078 -132.81824219 129.13955078 -132.6328125 128.26171875 C-130.47314028 120.54289025 -124.99440287 114.08307046 -120 108 C-119.30970703 107.10667969 -119.30970703 107.10667969 -118.60546875 106.1953125 C-114.14545399 100.61708078 -108.60043097 96.3815605 -103 92 C-102.24847656 91.39414062 -101.49695313 90.78828125 -100.72265625 90.1640625 C-96.90724316 87.16153012 -93.71831059 85.38096895 -89 84 C-88.67 83.34 -88.34 82.68 -88 82 C-86.08227539 81.23803711 -86.08227539 81.23803711 -83.59765625 80.52734375 C-82.70755859 80.26759766 -81.81746094 80.00785156 -80.90039062 79.74023438 C-79.96388672 79.47533203 -79.02738281 79.21042969 -78.0625 78.9375 C-76.21962817 78.40641669 -74.3771596 77.87393149 -72.53515625 77.33984375 C-71.714104 77.10644287 -70.89305176 76.87304199 -70.04711914 76.63256836 C-67.96333734 76.04967584 -67.96333734 76.04967584 -66 75 C-61.77201619 74.76521083 -57.54012203 74.7715903 -53.30639648 74.75976562 C-51.20581089 74.75008439 -49.10621425 74.71907316 -47.00585938 74.6875 C-45.6640683 74.68096714 -44.32227023 74.67571778 -42.98046875 74.671875 C-41.76254639 74.6625293 -40.54462402 74.65318359 -39.28979492 74.64355469 C-35.71467252 75.03091489 -33.92897869 75.98971532 -31 78 C-29.22619531 78.54155984 -27.43218342 79.02065683 -25.625 79.4375 C-22.1391408 80.32302068 -19.20138606 81.2562304 -16.125 83.125 C-13.25054351 84.8496739 -11.28584733 85.60171548 -8 86 C-7.67 86.99 -7.34 87.98 -7 89 C-4.99983534 90.20882096 -4.99983534 90.20882096 -3 91 C-3.00999275 89.42265579 -3.00999275 89.42265579 -3.02018738 87.81344604 C-3.08103952 77.89666674 -3.12599238 67.97992538 -3.15543652 58.06300163 C-3.171083 52.9647734 -3.19230283 47.86669608 -3.22631836 42.76855469 C-3.25894789 37.84726608 -3.27686067 32.92612249 -3.28463173 28.00473404 C-3.29016877 26.1284774 -3.30098128 24.25222857 -3.31719017 22.37603378 C-3.33901221 19.74514449 -3.34196493 17.11485216 -3.34057617 14.48388672 C-3.351362 13.7106456 -3.36214783 12.93740448 -3.3732605 12.14073181 C-3.34592608 7.34559363 -2.46135352 4.1109676 0 0 Z M-72 120 C-72.78375 120.309375 -73.5675 120.61875 -74.375 120.9375 C-77.5918915 122.23957513 -80.22014616 123.93127156 -83 126 C-83 126.66 -83 127.32 -83 128 C-83.5775 128.2475 -84.155 128.495 -84.75 128.75 C-87.32939979 130.18299988 -89.06121592 131.78424676 -91 134 C-91 134.66 -91 135.32 -91 136 C-91.99 136.33 -92.98 136.66 -94 137 C-96.57016849 139.09199761 -97.66903676 140.05434105 -99 143 C-99.42834538 147.69612801 -99.28985346 152.29793273 -99 157 C-100.485 157.495 -100.485 157.495 -102 158 C-102.165 158.66 -102.33 159.32 -102.5 160 C-102.665 160.66 -102.83 161.32 -103 162 C-104.485 162.495 -104.485 162.495 -106 163 C-106 163.66 -106 164.32 -106 165 C-104.68 165.33 -103.36 165.66 -102 166 C-101.7834375 166.9590625 -101.7834375 166.9590625 -101.5625 167.9375 C-101.18992819 169.97545146 -101.18992819 169.97545146 -100 171 C-99.7012973 172.68279043 -99.43636398 174.37162045 -99.1875 176.0625 C-97.76501456 184.1267373 -95.12485233 189.47269424 -89 195 C-87.7934375 196.2375 -87.7934375 196.2375 -86.5625 197.5 C-79.06907581 204.81065775 -71.88216645 208.9932168 -62 212 C-61.01 212.33 -60.02 212.66 -59 213 C-50.94509757 213.53221719 -44.35612704 213.35542637 -37 210 C-35.329375 209.5978125 -35.329375 209.5978125 -33.625 209.1875 C-28.66390538 207.56231383 -24.17668136 205.14451297 -20 202 C-19.505 200.515 -19.505 200.515 -19 199 C-18.40445313 198.71125 -17.80890625 198.4225 -17.1953125 198.125 C-11.9103572 195.4166955 -7.90551695 188.78406745 -6.109375 183.26171875 C-5.80527306 181.64556409 -5.54564007 180.01974287 -5.3515625 178.38671875 C-5 176 -5 176 -3.98046875 173.11328125 C-2.04076381 166.95413847 -1.81143882 159.6871818 -4.4375 153.75 C-4.953125 152.8425 -5.46875 151.935 -6 151 C-6.12424798 149.58633408 -6.20321434 148.1683441 -6.25 146.75 C-7.05809274 137.96382805 -13.9006341 131.78718987 -20 126 C-20.72860229 125.29641357 -20.72860229 125.29641357 -21.47192383 124.57861328 C-25.08371728 121.30435375 -28.32849984 120.16787504 -33 119 C-33.99 118.01 -33.99 118.01 -35 117 C-37.9452606 116.65718121 -40.7940935 116.43469917 -43.75 116.3125 C-44.60021729 116.27415039 -45.45043457 116.23580078 -46.32641602 116.19628906 C-60.00821004 115.06680588 -60.00821004 115.06680588 -72 120 Z " fill="#FFFFFF" transform="translate(328,351)"/>
<path d="M0 0 C2.25428711 -0.00966675 4.50764739 -0.04065726 6.76171875 -0.07226562 C8.19921334 -0.07879951 9.63671445 -0.08404847 11.07421875 -0.08789062 C13.03633301 -0.10190918 13.03633301 -0.10190918 15.03808594 -0.11621094 C18.74133849 0.26209502 20.51428353 1.14446873 23.52734375 3.24023438 C25.30114844 3.78179421 27.09516033 4.26089121 28.90234375 4.67773438 C32.37878116 5.55967621 35.28537296 6.48085039 38.33984375 8.36523438 C41.54508798 10.25067216 43.86047845 10.88249142 47.52734375 11.24023438 C47.85734375 12.23023438 48.18734375 13.22023438 48.52734375 14.24023438 C50.22055972 15.51590221 50.22055972 15.51590221 52.27734375 16.61523438 C55.90714601 18.77629312 58.6433721 21.12242719 61.52734375 24.24023438 C62.26984375 24.96210938 63.01234375 25.68398438 63.77734375 26.42773438 C66.29369338 29.00127377 68.76950308 31.59926646 71.21484375 34.24023438 C71.98183594 35.06523437 72.74882813 35.89023437 73.5390625 36.74023438 C75.49634346 39.20125563 76.42086987 41.3300565 77.52734375 44.24023438 C78.18734375 44.57023437 78.84734375 44.90023437 79.52734375 45.24023438 C86.58129797 59.5742311 88.91501717 74.14716319 88.83984375 89.99023438 C88.83247192 91.83077393 88.83247192 91.83077393 88.82495117 93.70849609 C88.65527749 106.88039451 87.48738179 118.73115186 80.52734375 130.24023438 C79.99109375 131.16835938 79.45484375 132.09648438 78.90234375 133.05273438 C78.44859375 133.77460937 77.99484375 134.49648438 77.52734375 135.24023438 C76.75390625 136.60148437 76.75390625 136.60148437 75.96484375 137.99023438 C74.52734375 140.24023438 74.52734375 140.24023438 72.52734375 141.24023438 C72.15609375 142.10648438 71.78484375 142.97273437 71.40234375 143.86523438 C68.88922568 148.3888469 65.48891228 150.99697223 61.52734375 154.24023438 C59.67302745 155.88170114 57.82192977 157.5266845 55.97265625 159.17382812 C54.52734375 160.24023438 54.52734375 160.24023438 52.52734375 160.24023438 C52.52734375 160.90023437 52.52734375 161.56023437 52.52734375 162.24023438 C50.80208333 163.18424479 49.07682292 164.12825521 47.3515625 165.07226562 C45.47808524 166.16795584 45.47808524 166.16795584 44.07421875 167.77929688 C42.17831357 169.56987399 40.57921661 170.06809652 38.08984375 170.80273438 C35.77807859 171.49509044 33.67921876 172.16206779 31.53125 173.26757812 C29.30918128 174.3461261 27.32942719 174.79750906 24.90234375 175.24023438 C22.28989124 175.72077309 19.69496177 176.20069927 17.109375 176.81054688 C6.13077805 179.35371289 -4.52353836 178.50267965 -15.47265625 176.24023438 C-16.62765625 176.01078125 -17.78265625 175.78132812 -18.97265625 175.54492188 C-28.39186048 173.54754598 -28.39186048 173.54754598 -32.47265625 170.24023438 C-33.35953125 169.97210937 -34.24640625 169.70398438 -35.16015625 169.42773438 C-43.38914706 166.4777188 -51.11362494 160.1346183 -57.47265625 154.24023438 C-57.47265625 153.58023438 -57.47265625 152.92023438 -57.47265625 152.24023438 C-58.32150391 151.90958984 -58.32150391 151.90958984 -59.1875 151.57226562 C-62.18913956 149.82259197 -63.86911719 147.63619946 -66.03515625 144.92773438 C-67.18177734 143.51041016 -67.18177734 143.51041016 -68.3515625 142.06445312 C-70.25797338 139.52608283 -71.88340857 136.98325791 -73.47265625 134.24023438 C-74.32636802 132.94826701 -75.18050861 131.65658285 -76.03515625 130.36523438 C-78.3444784 126.71456943 -79.39154363 123.39835983 -80.47265625 119.24023438 C-81.13265625 118.58023438 -81.79265625 117.92023438 -82.47265625 117.24023438 C-83.65544641 112.24962301 -83.72270994 107.21917952 -83.78515625 102.11523438 C-83.81416016 101.31730469 -83.84316406 100.519375 -83.87304688 99.69726562 C-83.93674432 93.82730129 -83.93674432 93.82730129 -81.453125 90.68554688 C-80.79957031 90.20859375 -80.14601563 89.73164062 -79.47265625 89.24023438 C-79.94703125 88.80710937 -80.42140625 88.37398437 -80.91015625 87.92773438 C-83.78725327 84.82046959 -83.59161527 81.72348889 -83.5703125 77.69726562 C-83.56708984 76.62412109 -83.56386719 75.55097656 -83.56054688 74.4453125 C-83.55216797 73.32576172 -83.54378906 72.20621094 -83.53515625 71.05273438 C-83.53064453 69.92158203 -83.52613281 68.79042969 -83.52148438 67.625 C-83.50969123 64.83002511 -83.49323275 62.03515617 -83.47265625 59.24023438 C-81.98765625 58.74523437 -81.98765625 58.74523437 -80.47265625 58.24023438 C-79.33772296 56.28144999 -79.33772296 56.28144999 -78.47265625 53.92773438 C-77.10696327 50.62817844 -75.68379972 48.05441698 -73.47265625 45.24023438 C-73.07433594 44.12841797 -73.07433594 44.12841797 -72.66796875 42.99414062 C-71.21824335 39.65408702 -69.28666304 37.23384326 -66.97265625 34.42773438 C-65.7815625 32.96400391 -65.7815625 32.96400391 -64.56640625 31.47070312 C-63.87546875 30.73464844 -63.18453125 29.99859375 -62.47265625 29.24023438 C-61.81265625 29.24023438 -61.15265625 29.24023438 -60.47265625 29.24023438 C-60.47265625 28.25023437 -60.47265625 27.26023437 -60.47265625 26.24023438 C-59.046875 24.95898438 -59.046875 24.95898438 -57.16015625 23.74023438 C-55.26389948 22.49991548 -53.59794649 21.3671907 -52.00390625 19.75195312 C-50.24246514 18.01297938 -48.39914797 16.83499165 -46.28515625 15.55273438 C-45.56972656 15.11574219 -44.85429687 14.67875 -44.1171875 14.22851562 C-43.57449219 13.90238281 -43.03179687 13.57625 -42.47265625 13.24023438 C-42.96765625 12.25023437 -42.96765625 12.25023437 -43.47265625 11.24023438 C-42.51552734 11.05847656 -42.51552734 11.05847656 -41.5390625 10.87304688 C-40.29962891 10.62167969 -40.29962891 10.62167969 -39.03515625 10.36523438 C-38.21144531 10.2028125 -37.38773437 10.04039062 -36.5390625 9.87304688 C-35.85714844 9.66421875 -35.17523438 9.45539063 -34.47265625 9.24023438 C-34.14265625 8.58023437 -33.81265625 7.92023438 -33.47265625 7.24023438 C-31.63085938 6.47827148 -31.63085938 6.47827148 -29.25390625 5.76757812 C-28.40441406 5.50783203 -27.55492187 5.24808594 -26.6796875 4.98046875 C-25.78636719 4.71556641 -24.89304687 4.45066406 -23.97265625 4.17773438 C-22.21143668 3.64784364 -20.45097505 3.11542493 -18.69140625 2.58007812 C-17.90701172 2.34667725 -17.12261719 2.11327637 -16.31445312 1.87280273 C-10.96933514 0.03701261 -5.92021112 0.0153905 0 0 Z M-16.47265625 43.24023438 C-16.47265625 43.90023437 -16.47265625 44.56023437 -16.47265625 45.24023438 C-17.03855469 45.36140625 -17.60445312 45.48257813 -18.1875 45.60742188 C-18.92097656 45.775 -19.65445313 45.94257813 -20.41015625 46.11523438 C-21.14105469 46.27765625 -21.87195313 46.44007813 -22.625 46.60742188 C-24.67965919 47.0698496 -24.67965919 47.0698496 -25.47265625 49.24023438 C-26.23578125 49.67335938 -26.99890625 50.10648437 -27.78515625 50.55273438 C-30.79796132 52.4444957 -32.32604764 54.42281057 -34.47265625 57.24023438 C-35.29765625 58.02398437 -36.12265625 58.80773437 -36.97265625 59.61523438 C-41.80987808 64.69431729 -43.61690507 69.2550911 -44.9140625 75.95898438 C-46.17364213 81.10300189 -48.04007949 85.2851832 -52.47265625 88.24023438 C-52.47265625 88.90023437 -52.47265625 89.56023437 -52.47265625 90.24023438 C-51.84746094 90.47613281 -51.22226562 90.71203125 -50.578125 90.95507812 C-47.87860998 92.60283404 -47.61848409 93.80179078 -46.78515625 96.80273438 C-46.09784376 99.78797437 -46.09784376 99.78797437 -44.47265625 102.24023438 C-44.36953125 103.47773437 -44.26640625 104.71523438 -44.16015625 105.99023438 C-43.70466507 110.07496172 -42.4762635 112.32764553 -39.47265625 115.24023438 C-38.81265625 115.24023438 -38.15265625 115.24023438 -37.47265625 115.24023438 C-37.39015625 115.79710937 -37.30765625 116.35398437 -37.22265625 116.92773438 C-34.52680031 125.23995686 -24.68701813 130.18286813 -17.47265625 134.24023438 C-15.94961352 134.83224766 -14.40723456 135.37753119 -12.84765625 135.86523438 C-12.09226562 136.105 -11.336875 136.34476563 -10.55859375 136.59179688 C-9.87023437 136.80578125 -9.181875 137.01976562 -8.47265625 137.24023438 C-7.48265625 137.57023437 -6.49265625 137.90023437 -5.47265625 138.24023438 C8.6113339 139.60194613 21.4174424 136.09202569 32.52734375 127.24023438 C33.1615625 126.75554687 33.79578125 126.27085937 34.44921875 125.77148438 C44.49645113 117.69934895 48.61041233 107.06154977 50.28125 94.47851562 C50.65101961 89.61281715 50.29318892 85.04885835 49.52734375 80.24023438 C49.41390625 79.47066406 49.30046875 78.70109375 49.18359375 77.90820312 C47.45099952 68.39559441 42.73165438 59.73681676 35.52734375 53.24023438 C34.86734375 53.24023438 34.20734375 53.24023438 33.52734375 53.24023438 C33.03234375 51.75523437 33.03234375 51.75523437 32.52734375 50.24023438 C30.46840751 48.71642039 30.46840751 48.71642039 27.52734375 47.24023438 C26.90472656 46.82257813 26.28210938 46.40492188 25.640625 45.97460938 C15.9113364 40.06572206 -5.99163796 37.99972523 -16.47265625 43.24023438 Z " fill="#FFFFFF" transform="translate(452.47265625,425.759765625)"/>
<path d="M0 0 C4.97249409 2.21121972 8.89432004 4.49105309 12 9 C13.53546266 18.00788717 13.09490455 27.38169636 12.98346901 36.4964447 C12.95629361 38.84499855 12.93876497 41.19345109 12.92399597 43.54211426 C12.88176846 50.20973411 12.83377495 56.87715387 12.75317383 63.54443359 C12.70422691 67.65079532 12.67554357 71.75689401 12.65942955 75.86351013 C12.64964545 77.41025723 12.63261318 78.95697879 12.60764503 80.5035553 C12.45251917 90.32335451 13.53631913 98.70169687 17 108 C17.67203427 109.99820279 18.34020494 111.99772257 19 114 C19.66 114 20.32 114 21 114 C21.59167969 115.33804688 21.59167969 115.33804688 22.1953125 116.703125 C24.08024265 120.14659048 25.94471055 122.16707009 28.875 124.75 C30.13957031 125.88695312 30.13957031 125.88695312 31.4296875 127.046875 C33.93222705 128.9485008 36.06835783 129.93570746 39 131 C40.485 131.99 40.485 131.99 42 133 C44.64017635 133.81779841 47.30270591 134.3809489 50 135 C50 135.66 50 136.32 50 137 C52.70860665 137.05429278 55.41610901 137.09381211 58.125 137.125 C58.88554688 137.14175781 59.64609375 137.15851563 60.4296875 137.17578125 C65.06476412 137.21573881 68.61641157 136.67384861 73 135 C74.41347214 134.75189053 75.83016508 134.52113986 77.25 134.3125 C83.14425077 133.04449311 87.34572757 129.68431905 92 126 C92.72574219 125.45085937 93.45148438 124.90171875 94.19921875 124.3359375 C100.24424393 119.47688869 104.53850444 113.38448668 107 106 C107.66 106 108.32 106 109 106 C109.18059685 100.72954999 109.34488125 95.45875032 109.5 90.1875 C109.52434113 89.36831085 109.54868225 88.5491217 109.57376099 87.70510864 C109.8938703 76.56715195 110.03403501 65.43952382 109.99609375 54.296875 C109.9925589 53.14580765 109.98902405 51.9947403 109.98538208 50.80879211 C109.96445183 45.08933647 109.92821242 39.37036645 109.875 33.65112305 C109.86306748 31.53694781 109.85133905 29.42277141 109.83984375 27.30859375 C109.82634384 26.33931946 109.81284393 25.37004517 109.79893494 24.37139893 C109.78191665 19.7870887 109.81658968 16.14950513 112 12 C112.53625 10.845 113.0725 9.69 113.625 8.5 C116.21586483 4.21005353 119.24267329 1.64648673 124 0 C135.9176595 -1.53515614 135.9176595 -1.53515614 140.67578125 1.97265625 C141.82626953 2.97619141 141.82626953 2.97619141 143 4 C145.08276784 4.64163524 145.08276784 4.64163524 147 5 C147.11703808 19.57782977 147.20508794 34.15559697 147.25906086 48.73380184 C147.28479272 55.50344021 147.31984602 62.27278589 147.37719727 69.04223633 C147.43254202 75.57799232 147.46144222 82.11355875 147.47438622 88.64953804 C147.48360796 91.14017071 147.50161596 93.63078719 147.52865028 96.12129021 C147.56507158 99.61629725 147.56993961 103.11005761 147.56762695 106.60522461 C147.59459152 108.14163857 147.59459152 108.14163857 147.62210083 109.70909119 C147.57845561 115.82517799 146.56011492 119.84946654 143.22638226 125.01070499 C141.95494864 127.07307709 141.20185471 129.01915493 140.4375 131.3125 C139.00258356 134.99337261 137.89943216 136.45201416 135 139 C133.66104368 140.66215268 132.32869858 142.32963607 131 144 C129.80178058 145.44594119 128.59274951 146.88296797 127.375 148.3125 C126.48941406 149.35857422 126.48941406 149.35857422 125.5859375 150.42578125 C124 152 124 152 122 152 C122 152.66 122 153.32 122 154 C116.06423983 159.53104925 116.06423983 159.53104925 112 160 C112 160.66 112 161.32 112 162 C106.42332036 166.84531182 101.18478368 169.58870321 94 171 C93.34 171.66 92.68 172.32 92 173 C80.86866274 176.74285721 68.70770391 178.94971584 57 178 C55.66388672 177.94972656 55.66388672 177.94972656 54.30078125 177.8984375 C44.6002418 177.36030538 34.25974842 175.2059682 26 170 C25.13375 169.835 24.2675 169.67 23.375 169.5 C20.57340797 168.91019115 19.93842719 168.01919499 18 166 C15.40084462 164.80972016 15.40084462 164.80972016 13 164 C13 163.34 13 162.68 13 162 C12.34 162 11.68 162 11 162 C11 161.34 11 160.68 11 160 C10.278125 159.773125 9.55625 159.54625 8.8125 159.3125 C5.40139354 157.72065032 3.56319395 155.75074472 1 153 C-0.10295865 151.93624604 -1.20713546 150.87375375 -2.3125 149.8125 C-5 147 -5 147 -5 145 C-5.99 144.67 -6.98 144.34 -8 144 C-8.70151152 142.6846659 -9.36525925 141.34882408 -10 140 C-10.45375 139.56042969 -10.9075 139.12085938 -11.375 138.66796875 C-20.26971468 129.53805728 -23.7068844 116.65496835 -25.53515625 104.4765625 C-25.74651891 102.06530552 -25.74651891 102.06530552 -27 101 C-27.10578991 98.30237538 -27.14677939 95.63021879 -27.14526367 92.93188477 C-27.14862228 92.08639069 -27.1519809 91.24089661 -27.15544128 90.36978149 C-27.16498082 87.56030835 -27.16689589 84.75089461 -27.16796875 81.94140625 C-27.17117922 79.99706497 -27.17454313 78.05272394 -27.17805481 76.10838318 C-27.18405359 72.02692098 -27.18589394 67.94547997 -27.18530273 63.86401367 C-27.18520106 58.62349492 -27.19885502 53.38311151 -27.21607494 48.14262486 C-27.22717101 44.12529369 -27.22922268 40.10799549 -27.22869301 36.09065056 C-27.22987668 34.15807567 -27.23431997 32.22550003 -27.24202538 30.29294014 C-27.25177725 27.59436579 -27.24896638 24.89608847 -27.24291992 22.19750977 C-27.24853943 21.39275711 -27.25415894 20.58800446 -27.25994873 19.75886536 C-27.22831542 14.22831542 -27.22831542 14.22831542 -25 12 C-24.814375 11.0925 -24.62875 10.185 -24.4375 9.25 C-20.13923706 -0.46781187 -9.54113304 -2.01193458 0 0 Z " fill="#FFFFFF" transform="translate(658,426)"/>
<path d="M0 0 C1.36133659 -0.01271381 2.72312275 0.0026322 4.08398438 0.04077148 C5.1656488 0.04426857 5.1656488 0.04426857 6.26916504 0.0478363 C7.79235681 0.05757103 9.31551249 0.07935265 10.83837891 0.11230469 C13.16949054 0.16169058 15.49849077 0.17378297 17.83007812 0.17944336 C19.31056932 0.19353097 20.79104219 0.20973598 22.27148438 0.22827148 C22.96842407 0.23363419 23.66536377 0.23899689 24.38342285 0.24452209 C28.01657173 0.33377656 29.57098037 0.5281959 32.67773438 2.59936523 C33.0541153 5.55171013 33.0541153 5.55171013 33.05627441 9.41867065 C33.06080454 10.12809535 33.06533467 10.83752005 33.07000208 11.56844246 C33.08167648 13.95767736 33.07195914 16.3463578 33.0625 18.7355957 C33.06660284 20.44366824 33.07206199 22.15173799 33.07878113 23.85980225 C33.09053023 27.54413123 33.0929819 31.22831033 33.08842468 34.91265488 C33.08163389 40.73604779 33.09745069 46.55924231 33.11682129 52.38259888 C33.1547372 64.74651025 33.16748397 77.11040463 33.17773438 89.47436523 C33.18879802 102.81383383 33.20410391 116.15321168 33.24844694 129.49261773 C33.26683559 135.28371142 33.27068385 141.07457975 33.26351166 146.86569571 C33.26199213 150.46706846 33.27275917 154.06832802 33.28689003 157.6696701 C33.29090022 159.34182179 33.28975485 161.01399484 33.28311729 162.68613815 C33.2747601 164.96640088 33.28469746 167.24587741 33.29919434 169.52609253 C33.29990685 170.80294355 33.30061935 172.07979458 33.30135345 173.39533806 C33.70566645 176.8371433 34.43061975 178.05867218 36.67773438 180.59936523 C37.18945312 182.95874023 37.18945312 182.95874023 37.36523438 185.34936523 C37.43097656 186.14858398 37.49671875 186.94780273 37.56445312 187.77124023 C37.60183594 188.37452148 37.63921875 188.97780273 37.67773438 189.59936523 C38.33773437 189.59936523 38.99773438 189.59936523 39.67773438 189.59936523 C41.11523438 191.42749023 41.11523438 191.42749023 42.67773438 193.84936523 C43.19335938 194.63827148 43.70898438 195.42717773 44.24023438 196.23999023 C45.67773438 198.59936523 45.67773438 198.59936523 46.75195312 200.83374023 C47.98495521 203.18528851 49.28655184 203.50625322 51.67773438 204.59936523 C52.44085937 205.25936523 53.20398438 205.91936523 53.99023438 206.59936523 C57.23838176 209.01659119 59.76521123 209.67877155 63.67773438 210.59936523 C63.67773438 211.25936523 63.67773438 211.91936523 63.67773438 212.59936523 C69.12273437 213.58936523 69.12273437 213.58936523 74.67773438 214.59936523 C74.67773438 215.25936523 74.67773438 215.91936523 74.67773438 216.59936523 C75.39960937 216.78499023 76.12148438 216.97061523 76.86523438 217.16186523 C80.89729629 219.22269688 83.08597929 221.41532329 84.67773438 225.59936523 C85.80264246 234.13066818 85.7250788 241.81776354 80.77148438 249.19311523 C80.41054688 249.65717773 80.04960938 250.12124023 79.67773438 250.59936523 C79.01773438 250.59936523 78.35773438 250.59936523 77.67773438 250.59936523 C77.67773438 251.25936523 77.67773438 251.91936523 77.67773438 252.59936523 C75.69773437 253.25936523 73.71773437 253.91936523 71.67773438 254.59936523 C71.67773438 255.25936523 71.67773438 255.91936523 71.67773438 256.59936523 C70.68773437 256.59936523 69.69773437 256.59936523 68.67773438 256.59936523 C68.67773438 255.93936523 68.67773438 255.27936523 68.67773438 254.59936523 C67.58460938 254.70249023 66.49148438 254.80561523 65.36523438 254.91186523 C60.40732088 254.93833096 56.66975536 253.05561875 52.29101562 250.88842773 C49.69772809 249.55960969 49.69772809 249.55960969 46.97070312 248.56030273 C44.67773438 247.59936523 44.67773438 247.59936523 42.67773438 245.59936523 C41.37835937 245.22811523 41.37835937 245.22811523 40.05273438 244.84936523 C33.11006129 242.27800483 27.91142507 237.01205923 22.49023438 232.09936523 C21.74169189 231.42369507 21.74169189 231.42369507 20.97802734 230.734375 C15.1574624 225.36772508 10.71913518 219.3308687 6.32617188 212.77124023 C4.69254265 210.37277407 4.69254265 210.37277407 1.67773438 208.59936523 C0.94726562 206.43530273 0.94726562 206.43530273 0.49023438 203.97436523 C0.33167969 203.15709961 0.173125 202.33983398 0.00976562 201.49780273 C-0.09980469 200.87131836 -0.209375 200.24483398 -0.32226562 199.59936523 C-0.98226562 199.59936523 -1.64226563 199.59936523 -2.32226562 199.59936523 C-2.81827482 195.33032659 -3.2904299 191.05891177 -3.75976562 186.78686523 C-3.89447266 185.62993164 -4.02917969 184.47299805 -4.16796875 183.28100586 C-6.68404076 160.02268163 -6.49284316 136.52789419 -6.52245426 113.16017199 C-6.52543546 110.91719746 -6.529547 108.67422748 -6.53395844 106.43125534 C-6.54749766 99.37857747 -6.55724302 92.32591057 -6.56116033 85.27322066 C-6.56568108 77.18779669 -6.58346856 69.10253839 -6.61216092 61.01716483 C-6.63375472 54.71085859 -6.64386251 48.40459928 -6.64520144 42.09825647 C-6.64624628 38.35203516 -6.65209205 34.60597261 -6.67002106 30.8597908 C-6.68952397 26.708587 -6.68522237 22.55773861 -6.67871094 18.40649414 C-6.68792572 17.17648682 -6.6971405 15.94647949 -6.70663452 14.67919922 C-6.70106537 13.55019196 -6.69549622 12.42118469 -6.6897583 11.25796509 C-6.69122486 10.2799827 -6.69269142 9.30200031 -6.69420242 8.2943821 C-6.03867997 3.5445319 -4.83669192 0.87258074 0 0 Z " fill="#FFFFFF" transform="translate(547.322265625,350.400634765625)"/>
<path d="M0 0 C4.63238094 3.05497536 7.49968696 4.9804976 9.21875 10.41796875 C9.87875 10.41796875 10.53875 10.41796875 11.21875 10.41796875 C14.90652524 13.36116461 15.80740935 15.61168786 16.40625 20.23046875 C16.54933594 21.29136719 16.69242188 22.35226562 16.83984375 23.4453125 C16.96488281 24.42628906 17.08992187 25.40726562 17.21875 26.41796875 C17.59 28.33609375 17.59 28.33609375 17.96875 30.29296875 C18.2576065 33.90367494 17.48209102 36.04905936 16.21875 39.41796875 C15.84343554 41.74491839 15.49957798 44.0777356 15.21875 46.41796875 C13.73375 46.91296875 13.73375 46.91296875 12.21875 47.41796875 C12.033125 48.28421875 12.033125 48.28421875 11.84375 49.16796875 C10.90158407 52.5597661 8.79879918 54.06227167 6.21875 56.41796875 C5.40664063 57.20107422 5.40664063 57.20107422 4.578125 58 C0.65019844 61.63598607 -2.47122624 63.19257865 -7.78125 64.41796875 C-8.77125 65.07796875 -9.76125 65.73796875 -10.78125 66.41796875 C-13.7421875 66.71875 -13.7421875 66.71875 -17.15625 66.73046875 C-18.27773438 66.74722656 -19.39921875 66.76398438 -20.5546875 66.78125 C-24.09981626 66.38210112 -25.84729165 65.36900166 -28.78125 63.41796875 C-30.01875 63.08796875 -31.25625 62.75796875 -32.53125 62.41796875 C-33.60375 62.08796875 -34.67625 61.75796875 -35.78125 61.41796875 C-36.11125 60.42796875 -36.44125 59.43796875 -36.78125 58.41796875 C-37.35875 58.12921875 -37.93625 57.84046875 -38.53125 57.54296875 C-43.61769773 54.99974489 -47.06382734 50.29058869 -49.78125 45.41796875 C-50.41075147 43.1097967 -50.88986817 40.8272553 -51.2890625 38.46875 C-51.72651101 36.12610473 -51.72651101 36.12610473 -53.78125 33.41796875 C-53.9765625 31.15625 -53.9765625 31.15625 -53.90625 28.73046875 C-53.88820313 27.92222656 -53.87015625 27.11398437 -53.8515625 26.28125 C-53.82835937 25.66636719 -53.80515625 25.05148437 -53.78125 24.41796875 C-53.12125 24.74796875 -52.46125 25.07796875 -51.78125 25.41796875 C-51.5646875 23.56171875 -51.5646875 23.56171875 -51.34375 21.66796875 C-49.70828482 14.09191683 -43.60106934 6.42607644 -37.78125 1.41796875 C-34.87574272 -0.13716943 -31.83250426 -1.3414694 -28.78125 -2.58203125 C-27.811875 -2.99453125 -26.8425 -3.40703125 -25.84375 -3.83203125 C-16.82902293 -6.03971951 -8.02599289 -4.56534708 0 0 Z " fill="#FFFFFF" transform="translate(508.78125,357.58203125)"/>
<path d="M0 0 C1.18078125 -0.03738281 2.3615625 -0.07476563 3.578125 -0.11328125 C13.34633443 -0.21228337 13.34633443 -0.21228337 16.953125 2.5859375 C20.56000587 6.96572141 21.53162923 10.24499757 21.5 15.875 C21.50773438 17.25171875 21.50773438 17.25171875 21.515625 18.65625 C21.23262598 21.5528282 20.45350245 23.73875653 19.25 26.375 C18.59 26.375 17.93 26.375 17.25 26.375 C17.25 27.035 17.25 27.695 17.25 28.375 C18.24 28.705 19.23 29.035 20.25 29.375 C21.25 31.375 21.25 31.375 21.25 37.375 C9.37 37.375 -2.51 37.375 -14.75 37.375 C-14.75 25.495 -14.75 13.615 -14.75 1.375 C-10.43268226 -0.78365887 -4.74204364 0.05620957 0 0 Z M3.25 15.375 C3.25 16.035 3.25 16.695 3.25 17.375 C3.91 17.375 4.57 17.375 5.25 17.375 C5.25 16.715 5.25 16.055 5.25 15.375 C4.59 15.375 3.93 15.375 3.25 15.375 Z " fill="#FFFFFF" transform="translate(540.75,611.625)"/>
<path d="M0 0 C0.66 0.99 1.32 1.98 2 3 C2.86625 3.515625 3.7325 4.03125 4.625 4.5625 C5.40875 5.036875 6.1925 5.51125 7 6 C7 6.66 7 7.32 7 8 C7.66 8 8.32 8 9 8 C12.05503762 13.12809886 14.36004803 17.90835628 13 24 C11.57990747 27.17031727 9.82816873 30.05277041 8 33 C7.34 34.32 6.68 35.64 6 37 C-3.57 37 -13.14 37 -23 37 C-23 36.01 -23 35.02 -23 34 C-23.99 33.67 -24.98 33.34 -26 33 C-30.19233554 27.41021929 -29.70810174 20.64964504 -29 14 C-27.59844679 8.56126835 -24.35365344 4.27638726 -19.76171875 1.06640625 C-13.61634268 -1.30656075 -6.44118398 -0.89345455 0 0 Z M-10 16 C-11.35618499 17.12534105 -11.35618499 17.12534105 -11.0625 20.0625 C-11.041875 21.031875 -11.02125 22.00125 -11 23 C-9.05396726 23.59070014 -9.05396726 23.59070014 -7 24 C-5.64381501 22.87465895 -5.64381501 22.87465895 -5.9375 19.9375 C-5.958125 18.968125 -5.97875 17.99875 -6 17 C-7.94603274 16.40929986 -7.94603274 16.40929986 -10 16 Z " fill="#FFFFFF" transform="translate(354,612)"/>
<path d="M0 0 C1.93166016 0.07541016 1.93166016 0.07541016 3.90234375 0.15234375 C4.56669434 0.18634277 5.23104492 0.2203418 5.91552734 0.25537109 C7.96023782 0.35973806 10.00490756 0.44161654 12.05078125 0.51953125 C22.04520089 0.95145089 22.04520089 0.95145089 23.203125 2.109375 C23.27539002 3.96225002 23.2869372 5.81771378 23.265625 7.671875 C23.25660156 8.68378906 23.24757813 9.69570313 23.23828125 10.73828125 C23.22667969 11.52074219 23.21507812 12.30320312 23.203125 13.109375 C24.193125 13.109375 25.183125 13.109375 26.203125 13.109375 C26.203125 13.769375 26.203125 14.429375 26.203125 15.109375 C24.883125 15.109375 23.563125 15.109375 22.203125 15.109375 C22.698125 18.079375 22.698125 18.079375 23.203125 21.109375 C23.203125 26.719375 23.203125 32.329375 23.203125 38.109375 C11.983125 38.109375 0.763125 38.109375 -10.796875 38.109375 C-10.734375 26.234375 -10.734375 26.234375 -10.70678711 22.55517578 C-10.69027143 16.00750625 -10.98161976 9.60751995 -11.796875 3.109375 C-7.70583526 0.16575158 -4.9930637 -0.2163797 0 0 Z " fill="#FFFFFF" transform="translate(717.796875,610.890625)"/>
<path d="M0 0 C3.3875486 4.34301102 5.31258183 8.73014597 6.4375 14.125 C5.74302342 18.01406885 4.62081565 19.85002652 2.4375 23.125 C2.72024138 26.43586259 2.72024138 26.43586259 4.4375 29.125 C4.4375 31.105 4.4375 33.085 4.4375 35.125 C-6.7825 35.125 -18.0025 35.125 -29.5625 35.125 C-29.5625 24.565 -29.5625 14.005 -29.5625 3.125 C-30.2225 3.125 -30.8825 3.125 -31.5625 3.125 C-31.5625 2.135 -31.5625 1.145 -31.5625 0.125 C-24.40943137 -4.64371242 -7.23761439 -5.03169162 0 0 Z M-13.5625 13.125 C-13.5625 13.785 -13.5625 14.445 -13.5625 15.125 C-12.9025 15.125 -12.2425 15.125 -11.5625 15.125 C-11.5625 14.465 -11.5625 13.805 -11.5625 13.125 C-12.2225 13.125 -12.8825 13.125 -13.5625 13.125 Z " fill="#FFFFFF" transform="translate(289.5625,613.875)"/>
<path d="M0 0 C0.66305145 0.02361099 1.32610291 0.04722198 2.00924683 0.07154846 C4.12877879 0.14817441 6.24794435 0.23220268 8.3671875 0.31640625 C9.80336744 0.36962806 11.2395653 0.42236845 12.67578125 0.47460938 C16.19814186 0.60378769 19.72021102 0.73960655 23.2421875 0.87890625 C23.23058594 2.00167969 23.21898437 3.12445312 23.20703125 4.28125 C22.72599362 16.63276465 22.72599362 16.63276465 24.83984375 28.671875 C25.2421875 30.87890625 25.2421875 30.87890625 24.2421875 37.87890625 C13.0221875 37.87890625 1.8021875 37.87890625 -9.7578125 37.87890625 C-9.4278125 25.66890625 -9.0978125 13.45890625 -8.7578125 0.87890625 C-5.81164712 -0.59417644 -3.28018656 -0.12404067 0 0 Z " fill="#FFFFFF" transform="translate(471.7578125,611.12109375)"/>
<path d="M0 0 C1.07443359 0.01804687 2.14886719 0.03609375 3.25585938 0.0546875 C5.90065465 0.10170608 8.54361589 0.1674084 11.1875 0.25 C11.1875 12.58333333 11.1875 24.91666667 11.1875 37.25 C0.6275 37.25 -9.9325 37.25 -20.8125 37.25 C-21.1425 32.96 -21.4725 28.67 -21.8125 24.25 C-20.1625 23.92 -18.5125 23.59 -16.8125 23.25 C-17.4725 22.610625 -18.1325 21.97125 -18.8125 21.3125 C-21.48282623 17.22356296 -21.67164725 14.014362 -20.8125 9.25 C-19.125 6.4375 -19.125 6.4375 -16.8125 4.25 C-16.1834375 3.55003906 -15.554375 2.85007812 -14.90625 2.12890625 C-10.12010872 -0.77782854 -5.47915522 -0.17404769 0 0 Z " fill="#FFFFFF" transform="translate(793.8125,611.75)"/>
<path d="M0 0 C1.3515625 1.48828125 1.3515625 1.48828125 2.625 3.3125 C3.05039062 3.90675781 3.47578125 4.50101563 3.9140625 5.11328125 C6.38784739 9.41126004 6.48204262 14.14319321 6 19 C4.48236251 24.26709483 2.42375117 27.19300564 -2.08203125 30.1328125 C-5.08001274 31.48831533 -7.78350354 31.32821392 -11 31 C-10.67 32.65 -10.34 34.3 -10 36 C-16.27 36 -22.54 36 -29 36 C-29.02290896 30.89130189 -29.04283601 25.78278074 -29.05493164 20.67407227 C-29.05997204 18.93480832 -29.0668043 17.19554864 -29.07543945 15.45629883 C-29.08751792 12.96174063 -29.09323108 10.46723827 -29.09765625 7.97265625 C-29.10281754 7.19036148 -29.10797882 6.40806671 -29.11329651 5.60206604 C-29.11349226 3.73432886 -29.06199694 1.86670796 -29 0 C-23.97214955 -5.02785045 -6.14603869 -2.04867956 0 0 Z M-12 14 C-12 14.66 -12 15.32 -12 16 C-11.34 15.67 -10.68 15.34 -10 15 C-10.66 14.67 -11.32 14.34 -12 14 Z " fill="#FFFFFF" transform="translate(425,613)"/>
<path d="M0 0 C3.87460078 -0.14584726 7.74849117 -0.23425444 11.625 -0.3125 C12.71941406 -0.35439453 13.81382812 -0.39628906 14.94140625 -0.43945312 C24.05783479 -0.57758083 24.05783479 -0.57758083 27.65625 2.38671875 C32.3600866 7.63149656 33.65856172 11.13098978 33.49609375 18.203125 C32.51780169 23.71853534 28.83040459 27.16959541 25 31 C22.6171875 31.4140625 22.6171875 31.4140625 19.875 31.625 C18.96492188 31.69976563 18.05484375 31.77453125 17.1171875 31.8515625 C16.41851562 31.90054688 15.71984375 31.94953125 15 32 C15 33.65 15 35.3 15 37 C9.06 37 3.12 37 -3 37 C-3.06911525 32.69437588 -3.12876967 28.39069913 -3.16479492 24.08496094 C-3.17982196 22.62232925 -3.20024955 21.15974218 -3.22631836 19.69726562 C-3.26297267 17.5871272 -3.27978676 15.47758774 -3.29296875 13.3671875 C-3.3086792 12.09987793 -3.32438965 10.83256836 -3.34057617 9.52685547 C-2.97214463 5.7115422 -1.91835145 3.2879703 0 0 Z M14 15 C14 15.66 14 16.32 14 17 C14.99 17 15.98 17 17 17 C17 16.34 17 15.68 17 15 C16.01 15 15.02 15 14 15 Z " fill="#FFFFFF" transform="translate(196,612)"/>
<path d="M0 0 C11.22 0 22.44 0 34 0 C35.36538938 2.73077876 35.13231826 4.95560367 35.125 8 C35.12886719 9.60875 35.12886719 9.60875 35.1328125 11.25 C35 14 35 14 34 16 C31.03 16 28.06 16 25 16 C25.33 16.99 25.66 17.98 26 19 C26.08021999 20.40824893 26.10765977 21.81997231 26.09765625 23.23046875 C26.09515869 23.95387451 26.09266113 24.67728027 26.09008789 25.42260742 C26.08098389 26.33502197 26.07187988 27.24743652 26.0625 28.1875 C26.041875 31.095625 26.02125 34.00375 26 37 C20.06 37 14.12 37 8 37 C7.979375 34.091875 7.95875 31.18375 7.9375 28.1875 C7.928396 27.27508545 7.91929199 26.3626709 7.90991211 25.42260742 C7.90741455 24.69920166 7.90491699 23.9757959 7.90234375 23.23046875 C7.89710693 22.49207764 7.89187012 21.75368652 7.88647461 20.99291992 C8 19 8 19 9 16 C6.03 16 3.06 16 0 16 C-0.19787356 14.45963043 -0.38275863 12.91759048 -0.5625 11.375 C-0.66691406 10.51648438 -0.77132812 9.65796875 -0.87890625 8.7734375 C-1 6 -1 6 0 0 Z " fill="#FFFFFF" transform="translate(593,612)"/>
<path d="M0 0 C2.43922361 0.08700798 4.87478414 0.19386002 7.3125 0.3125 C8.00279297 0.33505859 8.69308594 0.35761719 9.40429688 0.38085938 C14.44654653 0.64880501 14.44654653 0.64880501 16.70288086 2.08056641 C18.71422204 5.05688193 18.35342347 7.67061957 18.328125 11.22265625 C18.32625183 11.9239415 18.32437866 12.62522675 18.32244873 13.34776306 C18.31573428 14.82800054 18.30183164 16.30822046 18.28125 17.78833008 C18.25006704 20.0576216 18.24027551 22.32621848 18.234375 24.59570312 C18.16375295 35.6724941 18.16375295 35.6724941 17 38 C11.06 38 5.12 38 -1 38 C-2.44011609 32.23953564 -2.18438138 26.6035195 -2.1875 20.6875 C-2.19974609 19.47642578 -2.21199219 18.26535156 -2.22460938 17.01757812 C-2.23454432 10.96719946 -2.12786386 5.69392819 0 0 Z " fill="#FFFFFF" transform="translate(659,611)"/>
<path d="M0 0 C0.99 0 1.98 0 3 0 C3 0.66 3 1.32 3 2 C4.98 2 6.96 2 9 2 C10.50934217 5.01868434 10.17510672 7.67297229 10 11 C9.01 12.485 9.01 12.485 8 14 C8.66 14 9.32 14 10 14 C10 14.66 10 15.32 10 16 C8.68 16 7.36 16 6 16 C6 15.01 6 14.02 6 13 C5.34 13 4.68 13 4 13 C4 13.99 4 14.98 4 16 C3.01 16 2.02 16 1 16 C1 14.68 1 13.36 1 12 C0.34 12 -0.32 12 -1 12 C-1 9.36 -1 6.72 -1 4 C-0.34 4 0.32 4 1 4 C0.67 2.68 0.34 1.36 0 0 Z " fill="#FFFFFF" transform="translate(311,622)"/>
<path d="M0 0 C1.32 0 2.64 0 4 0 C4 0.66 4 1.32 4 2 C5.98 2 7.96 2 10 2 C10.33 5.3 10.66 8.6 11 12 C8.69 12.33 6.38 12.66 4 13 C4 13.99 4 14.98 4 16 C2.68 16 1.36 16 0 16 C0 10.72 0 5.44 0 0 Z " fill="#FFFFFF" transform="translate(382,622)"/>
<path d="M0 0 C0.99 0 1.98 0 3 0 C2.67 0.99 2.34 1.98 2 3 C1.34 2.67 0.68 2.34 0 2 C0 1.34 0 0.68 0 0 Z " fill="#FFFFFF" transform="translate(598,551)"/>
<path d="M0 0 C0.99 0 1.98 0 3 0 C3 0.66 3 1.32 3 2 C2.01 2 1.02 2 0 2 C0 1.34 0 0.68 0 0 Z " fill="#FFFFFF" transform="translate(362,538)"/>
<path d="M0 0 C0.66 0 1.32 0 2 0 C2 0.99 2 1.98 2 3 C1.34 3 0.68 3 0 3 C0 2.01 0 1.02 0 0 Z " fill="#FFFFFF" transform="translate(528,381)"/>
<path d="M0 0 C0.66 0 1.32 0 2 0 C2 0.66 2 1.32 2 2 C1.34 2 0.68 2 0 2 C0 1.34 0 0.68 0 0 Z " fill="#FFFFFF" transform="translate(214,647)"/>
<path d="M0 0 C1 4 1 4 1 4 Z " fill="#FFFFFF" transform="translate(565,626)"/>
<path d="M0 0 C1 4 1 4 1 4 Z " fill="#FFFFFF" transform="translate(589,618)"/>
<path d="M0 0 C0.66 0 1.32 0 2 0 C2 0.66 2 1.32 2 2 C1.34 2 0.68 2 0 2 C0 1.34 0 0.68 0 0 Z " fill="#FFFFFF" transform="translate(200,565)"/>
<path d="M0 0 C0.66 0 1.32 0 2 0 C2 0.66 2 1.32 2 2 C1.34 2 0.68 2 0 2 C0 1.34 0 0.68 0 0 Z " fill="#FFFFFF" transform="translate(249,551)"/>
<path d="M0 0 C0.66 0 1.32 0 2 0 C2 0.66 2 1.32 2 2 C1.34 2 0.68 2 0 2 C0 1.34 0 0.68 0 0 Z " fill="#FFFFFF" transform="translate(587,536)"/>
<path d="M0 0 C1.485 0.99 1.485 0.99 3 2 C2.01 2 1.02 2 0 2 C0 1.34 0 0.68 0 0 Z " fill="#FFFFFF" transform="translate(292,471)"/>
<path d="M0 0 C3 1 3 1 3 1 Z " fill="#FFFFFF" transform="translate(728,559)"/>
<path d="M0 0 C3 1 3 1 3 1 Z " fill="#FFFFFF" transform="translate(707,559)"/>
<path d="M0 0 C0.99 0.495 0.99 0.495 2 1 C1.01 1.495 1.01 1.495 0 2 C0 1.34 0 0.68 0 0 Z " fill="#FFFFFF" transform="translate(778,425)"/>
<path d="M0 0 C0.66 0 1.32 0 2 0 C1.67 0.66 1.34 1.32 1 2 C0.67 1.34 0.34 0.68 0 0 Z " fill="#FFFFFF" transform="translate(660,425)"/>
<path d="" fill="#FFFFFF" transform="translate(0,0)"/>
<path d="M0 0 C2 1 2 1 2 1 Z " fill="#FFFFFF" transform="translate(608,606)"/>
<path d="M0 0 C2 1 2 1 2 1 Z " fill="#FFFFFF" transform="translate(459,606)"/>
<path d="M0 0 C2 1 2 1 2 1 Z " fill="#FFFFFF" transform="translate(449,606)"/>
<path d="M0 0 C2 1 2 1 2 1 Z " fill="#FFFFFF" transform="translate(283,606)"/>
<path d="M0 0 C2 1 2 1 2 1 Z " fill="#FFFFFF" transform="translate(273,606)"/>
<path d="M0 0 C2 1 2 1 2 1 Z " fill="#FFFFFF" transform="translate(610,559)"/>
<path d="M0 0 C2 1 2 1 2 1 Z " fill="#FFFFFF" transform="translate(464,559)"/>
<path d="M0 0 C2 1 2 1 2 1 Z " fill="#FFFFFF" transform="translate(287,559)"/>
<path d="" fill="#FFFFFF" transform="translate(0,0)"/>
<path d="" fill="#FFFFFF" transform="translate(0,0)"/>
<path d="" fill="#FFFFFF" transform="translate(0,0)"/>
<path d="" fill="#FFFFFF" transform="translate(0,0)"/>
<path d="" fill="#FFFFFF" transform="translate(0,0)"/>
<path d="M0 0 C2 1 2 1 2 1 Z " fill="#FFFFFF" transform="translate(294,425)"/>
<path d="M0 0 C2 1 2 1 2 1 Z " fill="#FFFFFF" transform="translate(256,425)"/>
<path d="M0 0 C2 1 2 1 2 1 Z " fill="#FFFFFF" transform="translate(474,355)"/>
<path d="" fill="#FFFFFF" transform="translate(0,0)"/>
<path d="" fill="#FFFFFF" transform="translate(0,0)"/>
<path d="" fill="#FFFFFF" transform="translate(0,0)"/>
<path d="" fill="#FFFFFF" transform="translate(0,0)"/>
<path d="" fill="#FFFFFF" transform="translate(0,0)"/>
</svg>
