<?xml version="1.0" standalone="no"?>
<!DOCTYPE svg PUBLIC "-//W3C//DTD SVG 20010904//EN" "http://www.w3.org/TR/2001/REC-SVG-20010904/DTD/svg10.dtd">
<svg xmlns="http://www.w3.org/2000/svg" version="1.0" width="1024.000000pt" height="1024.000000pt" viewBox="0 0 1024.000000 1024.000000" preserveAspectRatio="xMidYMid meet">
<metadata>
Created by potrace 1.16, written by Peter Selinger 2001-2019
<meta name="Producer" content="Online-Convert"/></metadata>
<g transform="translate(0.000000,1024.000000) scale(0.100000,-0.100000)" fill="#000000" stroke="none">
<path d="M2281 6285 c-30 -38 -57 -63 -63 -59 -7 5 -8 2 -3 -5 9 -15 -33 -63 -48 -54 -6 3 -7 1 -3 -6 9 -14 -12 -43 -25 -35 -5 3 -8 0 -7 -8 2 -7 -4 -12 -12 -10 -8 2 -12 0 -7 -4 7 -8 -10 -38 -43 -77 -62 -72 -278 -340 -395 -488 l-136 -174 58 -7 c32 -3 98 -7 147 -9 88 -2 90 -1 114 27 161 190 352 405 417 469 44 44 120 124 168 177 49 54 94 97 100 95 7 -1 11 4 9 11 -1 8 41 60 94 118 l96 104 -204 0 -204 0 -53 -65z"/>
<path d="M3665 6264 c-49 -14 -101 -26 -114 -26 -16 0 -20 -3 -11 -8 9 -6 6 -10 -11 -15 -13 -4 -46 -20 -72 -36 -26 -16 -52 -27 -58 -24 -5 4 -8 3 -7 -2 2 -4 -38 -49 -87 -98 -59 -60 -105 -116 -133 -166 -138 -246 -168 -569 -77 -844 19 -54 31 -104 28 -110 -4 -5 -3 -7 2 -3 4 4 23 -18 42 -50 19 -31 54 -81 79 -110 24 -30 41 -59 37 -66 -3 -6 -3 -8 1 -4 5 4 38 -16 74 -44 36 -27 90 -62 119 -76 28 -14 50 -29 48 -33 -3 -4 1 -6 8 -6 6 1 44 -8 82 -20 167 -52 354 -51 522 2 140 44 279 145 369 267 23 31 43 55 46 53 2 -2 4 4 5 13 1 17 63 172 73 182 6 6 8 31 17 253 8 186 8 201 -9 191 -5 -3 -174 -6 -374 -5 l-364 1 0 -138 0 -137 202 5 c112 3 205 4 207 3 10 -6 -23 -135 -49 -189 -122 -252 -488 -301 -698 -93 -32 31 -51 58 -48 66 3 8 1 11 -4 8 -11 -7 -63 92 -55 105 3 4 1 10 -5 12 -41 14 -60 351 -26 476 21 78 36 113 47 106 5 -3 6 2 3 10 -16 43 162 232 198 210 6 -4 8 -3 5 3 -9 14 48 37 64 27 7 -4 10 -3 6 3 -15 23 123 39 209 24 99 -18 217 -75 211 -104 -1 -7 6 -11 17 -9 14 3 17 -1 12 -13 -3 -9 -2 -14 3 -11 17 11 64 -56 95 -136 l15 -38 165 0 c115 0 166 3 166 11 0 28 -34 138 -57 183 -39 78 -104 165 -169 226 -32 30 -58 58 -57 61 1 3 -3 6 -10 6 -20 1 -140 70 -131 75 5 3 3 3 -4 2 -7 -2 -47 8 -90 23 -67 23 -96 27 -222 30 -132 3 -153 1 -235 -23z"/>
<path d="M4853 6267 c-5 -12 -6 -37 -2 -55 9 -45 0 -114 -15 -105 -6 4 -6 0 1 -9 16 -19 15 57 14 -803 -1 -674 0 -741 15 -755 9 -8 14 -9 10 -2 -6 9 28 12 154 12 l160 0 0 850 c0 467 -3 855 -5 862 -4 10 -40 13 -148 12 -78 -1 -149 2 -158 7 -12 6 -19 2 -26 -14z"/>
<path d="M2536 5810 c-45 -41 -71 -58 -83 -54 -12 4 -14 3 -6 -3 14 -10 -71 -98 -192 -198 -38 -32 -112 -95 -163 -139 l-93 -81 38 -6 c21 -4 106 -9 188 -13 l151 -7 66 68 c136 138 170 211 174 375 2 59 -1 110 -6 113 -4 3 -38 -22 -74 -55z"/>
<path d="M7127 5849 c-73 -10 -184 -49 -229 -81 -16 -11 -33 -16 -38 -13 -6 4 -9 3 -8 -2 3 -10 -103 -118 -117 -118 -5 0 -10 -9 -10 -20 0 -11 -6 -19 -13 -17 -8 1 -11 -2 -8 -7 3 -5 -10 -42 -29 -83 -47 -98 -65 -189 -65 -331 0 -210 57 -382 167 -502 18 -20 30 -41 27 -47 -4 -7 -2 -8 4 -4 6 3 35 -12 64 -34 51 -38 162 -90 193 -90 8 0 15 -4 15 -9 0 -5 81 -9 180 -8 98 0 177 4 175 8 -3 4 9 10 27 14 105 22 271 152 321 251 31 62 67 154 67 172 0 11 -33 12 -162 8 -90 -2 -164 -5 -165 -5 -2 -1 -3 -7 -3 -15 0 -7 -15 -33 -34 -58 -41 -53 -112 -88 -197 -95 -67 -6 -169 14 -148 29 11 7 9 8 -4 4 -23 -7 -60 11 -51 26 4 6 3 8 -3 5 -12 -8 -55 37 -78 82 -14 28 -15 35 -3 43 10 8 9 9 -4 5 -17 -6 -20 0 -33 89 l-6 40 437 1 c356 1 438 3 446 14 5 8 6 63 2 134 -4 66 -7 135 -7 153 0 18 -4 27 -7 21 -4 -6 -10 5 -14 24 -11 61 -75 175 -132 236 -29 32 -50 61 -46 65 4 4 0 6 -8 4 -8 -2 -14 3 -12 10 1 8 -2 11 -6 8 -13 -8 -114 49 -105 59 5 4 3 5 -4 2 -6 -4 -24 -2 -40 4 -76 29 -234 42 -336 28z m160 -259 c67 -11 137 -45 126 -63 -3 -5 -1 -7 5 -3 24 15 80 -87 96 -176 l7 -38 -281 0 -282 0 7 43 c20 126 98 215 208 237 23 4 44 8 47 9 3 0 33 -4 67 -9z"/>
<path d="M8645 5849 c-33 -4 -80 -15 -104 -23 -24 -9 -48 -13 -55 -9 -6 3 -8 3 -4 -2 9 -10 -73 -66 -86 -58 -5 3 -6 2 -3 -4 4 -6 -7 -22 -24 -37 l-31 -28 2 24 c1 13 2 47 1 76 l-1 52 -157 0 c-87 0 -165 -5 -173 -10 -10 -7 -11 -10 -2 -10 9 0 12 -27 11 -110 -1 -61 -6 -113 -11 -116 -12 -8 -10 -68 4 -82 9 -9 9 -17 0 -34 -13 -25 -12 -231 1 -244 4 -4 7 -14 7 -23 0 -14 -2 -14 -10 -1 -5 8 -10 10 -10 5 0 -6 5 -16 12 -23 9 -9 9 -12 0 -12 -9 0 -10 -5 -2 -19 5 -11 10 -62 9 -113 0 -61 -3 -86 -9 -73 -7 16 -9 17 -9 3 -1 -9 4 -20 9 -23 6 -3 10 -23 10 -43 0 -28 -3 -33 -10 -22 -7 11 -10 6 -10 -20 0 -25 3 -31 10 -20 6 10 9 6 8 -18 -1 -17 -4 -30 -7 -27 -4 2 -8 -6 -8 -18 -2 -17 0 -19 7 -7 7 10 10 -11 10 -65 0 -55 -3 -75 -10 -65 -6 9 -10 10 -10 3 0 -6 5 -15 10 -18 6 -3 10 -13 10 -21 0 -9 -5 -12 -11 -8 -8 4 -8 0 0 -15 8 -14 8 -21 1 -21 -5 0 -10 -4 -10 -10 0 -6 63 -10 169 -10 l170 0 3 413 c3 409 3 412 27 464 47 106 146 161 270 150 81 -7 108 -16 89 -29 -9 -6 -6 -7 9 -3 26 7 79 -37 67 -57 -5 -7 -3 -8 6 -3 10 6 12 4 7 -8 -4 -10 -2 -16 5 -14 30 6 60 -240 32 -267 -9 -9 -10 -16 -3 -18 10 -3 11 -14 9 -70 0 -10 0 -29 0 -43 0 -14 0 -31 -1 -37 0 -7 1 -78 2 -158 0 -80 0 -149 -1 -155 -1 -5 -2 -46 -1 -90 l1 -80 177 3 178 3 -7 452 c-8 511 -8 518 -20 511 -4 -3 -8 1 -8 9 0 8 -15 45 -34 83 -19 37 -32 72 -29 78 3 5 2 6 -4 3 -5 -3 -24 9 -42 27 -20 20 -28 36 -22 39 7 3 6 4 -1 3 -7 -2 -30 8 -51 21 -57 36 -124 60 -204 72 -39 6 -75 10 -80 10 -4 -1 -35 -5 -68 -10z"/>
<path d="M5307 5834 c-3 -3 -1 -14 4 -23 18 -31 138 -365 133 -372 -2 -4 0 -9 5 -11 15 -6 114 -282 102 -286 -6 -2 -11 -8 -11 -14 0 -6 6 -8 14 -5 10 4 25 -26 55 -109 23 -63 39 -119 35 -126 -4 -6 -3 -8 3 -5 6 4 22 -25 38 -71 15 -42 42 -117 60 -167 18 -49 36 -101 40 -115 7 -24 7 -24 -8 -5 -16 20 -16 20 -10 -2 3 -13 12 -23 19 -23 22 0 18 -66 -5 -89 -11 -11 -17 -21 -15 -24 3 -3 -11 -18 -32 -35 -36 -30 -114 -58 -114 -41 0 5 -5 9 -11 9 -5 0 -7 -4 -4 -10 4 -6 -7 -10 -27 -10 -25 0 -29 3 -18 10 11 7 2 9 -29 7 -39 -3 -45 -6 -48 -27 -2 -14 -11 -68 -21 -121 l-19 -97 38 -12 c21 -7 37 -16 35 -19 -2 -3 46 -7 107 -9 127 -4 205 15 289 68 50 31 117 108 150 173 17 33 271 720 363 979 15 43 31 75 36 72 5 -3 6 1 3 9 -4 10 115 351 171 490 7 16 -3 17 -165 15 l-173 -3 -22 -59 c-12 -33 -24 -55 -27 -50 -3 5 -3 3 -1 -5 6 -24 -88 -292 -99 -285 -7 4 -8 2 -4 -5 9 -14 -65 -242 -76 -235 -4 3 -5 -1 -3 -9 3 -7 -11 -58 -30 -113 -20 -54 -41 -117 -47 -138 -13 -47 -1 -76 -114 254 -47 135 -105 306 -131 380 -26 74 -56 164 -69 200 l-22 65 -169 3 c-93 1 -172 0 -176 -4z"/>
</g>
</svg>
