<?xml version="1.0" encoding="UTF-8"?>
<svg version="1.1" xmlns="http://www.w3.org/2000/svg" width="1024" height="1024">
<path d="M0 0 C337.92 0 675.84 0 1024 0 C1024 337.92 1024 675.84 1024 1024 C686.08 1024 348.16 1024 0 1024 C0 916.42 0 808.84 0 698 C1.32 697.67 2.64 697.34 4 697 C3.34 696.67 2.68 696.34 2 696 C3.47831221 695.80587819 4.95769316 695.61987869 6.4375 695.4375 C7.26121094 695.33308594 8.08492187 695.22867188 8.93359375 695.12109375 C9.61550781 695.08113281 10.29742187 695.04117188 11 695 C11.33 695.33 11.66 695.66 12 696 C12.99 695.67 13.98 695.34 15 695 C15.33 694.34 15.66 693.68 16 693 C16 694.32 16 695.64 16 697 C16.99 697.33 17.98 697.66 19 698 C19.66 698.66 20.32 699.32 21 700 C21.33 699.01 21.66 698.02 22 697 C22.99 696.67 23.98 696.34 25 696 C27.02054804 697.64169528 29.02043058 699.30911778 31 701 C31.99 701 32.98 701 34 701 C34.33 700.34 34.66 699.68 35 699 C36.32 699.66 37.64 700.32 39 701 C38.34 701.66 37.68 702.32 37 703 C38.32 703 39.64 703 41 703 C42.5490641 703.2246936 44.09182052 703.49714703 45.625 703.8125 C46.40101562 703.96332031 47.17703125 704.11414063 47.9765625 704.26953125 C50 705 50 705 52 708 C55.06556598 708.73343428 55.06556598 708.73343428 58 709 C58 708.34 58 707.68 58 707 C59.32 707.33 60.64 707.66 62 708 C62.33 707.34 62.66 706.68 63 706 C63.391875 706.78375 63.78375 707.5675 64.1875 708.375 C66.28241917 711.40902086 67.62070572 711.78692 71 713 C71.99 714.485 71.99 714.485 73 716 C73.66 715.01 74.32 714.02 75 713 C74.34 712.67 73.68 712.34 73 712 C73.66 711.34 74.32 710.68 75 710 C77.4375 710.75 77.4375 710.75 80 712 C80.8125 714.125 80.8125 714.125 81 716 C81.66 715.67 82.32 715.34 83 715 C83.99 715.99 84.98 716.98 86 718 C86.66 717.34 87.32 716.68 88 716 C88.33 717.32 88.66 718.64 89 720 C90.0725 720 91.145 720 92.25 720 C100 720 100 720 103 721 C103 721.99 103 722.98 103 724 C103.66 724 104.32 724 105 724 C104.505 722.515 104.505 722.515 104 721 C105.8125 720.3125 105.8125 720.3125 108 720 C108.59361328 720.68449219 108.59361328 720.68449219 109.19921875 721.3828125 C111.85590809 723.76864631 114.52317748 723.92870423 118 724.5625 C124.69546436 725.79697624 124.69546436 725.79697624 128 728 C128.33 727.34 128.66 726.68 129 726 C129.5775 726.20625 130.155 726.4125 130.75 726.625 C133.51967567 727.08661261 134.64561267 726.42944945 137 725 C137.33 726.32 137.66 727.64 138 729 C137.34 729 136.68 729 136 729 C136.99 730.485 136.99 730.485 138 732 C138.433125 731.505 138.86625 731.01 139.3125 730.5 C141 729 141 729 144 729 C146.1875 731 146.1875 731 148 733 C149.32 732.01 150.64 731.02 152 730 C152.33 730.66 152.66 731.32 153 732 C154.32 731.01 155.64 730.02 157 729 C160.96 731.475 160.96 731.475 165 734 C167.1490712 730.4472136 167.1490712 730.4472136 167 728 C167.66 727.01 168.32 726.02 169 725 C169.4125 725.639375 169.825 726.27875 170.25 726.9375 C172.17810487 729.20990931 173.11424181 729.60196439 176 730 C175.34 730 174.68 730 174 730 C174 730.66 174 731.32 174 732 C173.67 732.33 173.34 732.66 173 733 C173.66 733 174.32 733 175 733 C175.33 732.34 175.66 731.68 176 731 C177.32 731.66 178.64 732.32 180 733 C180.33 731.35 180.66 729.7 181 728 C184.23655184 728 185.78752639 728.6550847 188.6875 730 C189.49574219 730.37125 190.30398437 730.7425 191.13671875 731.125 C191.75160156 731.41375 192.36648437 731.7025 193 732 C193.33 731.34 193.66 730.68 194 730 C195.33333333 729.33333333 196.66666667 728.66666667 198 728 C198.33 727.34 198.66 726.68 199 726 C200.32 726.33 201.64 726.66 203 727 C203 726.34 203 725.68 203 725 C203.78375 725.020625 204.5675 725.04125 205.375 725.0625 C207.98114961 725.18684063 207.98114961 725.18684063 210 724 C210 724.66 210 725.32 210 726 C213.24983135 724.91215032 213.24983135 724.91215032 216 723 C215.01 722.34 214.02 721.68 213 721 C213.99 719.68 214.98 718.36 216 717 C216.33 717.66 216.66 718.32 217 719 C216.67 719.66 216.34 720.32 216 721 C217.32 720.67 218.64 720.34 220 720 C220.33 721.32 220.66 722.64 221 724 C222.94074861 723.72382467 222.94074861 723.72382467 225 723 C225.66 722.01 226.32 721.02 227 720 C228.32 720 229.64 720 231 720 C229.02 719.01 227.04 718.02 225 717 C225.33 715.35 225.66 713.7 226 712 C226.99 712 227.98 712 229 712 C231.18777466 710.0624994 231.18777466 710.0624994 233 708 C231.02 706.515 231.02 706.515 229 705 C229.309375 704.443125 229.61875 703.88625 229.9375 703.3125 C232.57127842 697.58015874 231.6971998 693.89028167 230 688 C230.66 688 231.32 688 232 688 C232.33 685.36 232.66 682.72 233 680 C232.34 681.32 231.68 682.64 231 684 C230.67 683.34 230.34 682.68 230 682 C228.68 682 227.36 682 226 682 C226 680.68 226 679.36 226 678 C226.99 678 227.98 678 229 678 C229.33 677.34 229.66 676.68 230 676 C227.77810176 673.77810176 225.91517292 673.07401108 223 672 C223 671.01 223 670.02 223 669 C223.66 668.67 224.32 668.34 225 668 C223.68 668 222.36 668 221 668 C220.34 667.34 219.68 666.68 219 666 C218.34 666.33 217.68 666.66 217 667 C217.33 665.68 217.66 664.36 218 663 C217.34 662.67 216.68 662.34 216 662 C216.66 661.01 217.32 660.02 218 659 C217.01 659.33 216.02 659.66 215 660 C212.80363095 660 211.088639 659.67375452 209 659 C208.67 658.34 208.34 657.68 208 657 C207.67 657.99 207.34 658.98 207 660 C206.67 659.34 206.34 658.68 206 658 C205.360625 657.87625 204.72125 657.7525 204.0625 657.625 C202 657 202 657 200.75 654.9375 C200.5025 654.298125 200.255 653.65875 200 653 C199.34 653 198.68 653 198 653 C198 652.34 198 651.68 198 651 C196.68 651.99 195.36 652.98 194 654 C193.01 652.515 193.01 652.515 192 651 C191.34 650.67 190.68 650.34 190 650 C190 649.34 190 648.68 190 648 C188.68 648.66 187.36 649.32 186 650 C184 647 184 647 184 644 C182.35 644 180.7 644 179 644 C179 644.66 179 645.32 179 646 C177.68 645.67 176.36 645.34 175 645 C175 644.34 175 643.68 175 643 C171.95086772 641.98888907 171.95086772 641.98888907 169 643 C169 642.34 169 641.68 169 641 C168.34 640.67 167.68 640.34 167 640 C167.99 639.34 168.98 638.68 170 638 C168.35 638 166.7 638 165 638 C165 637.34 165 636.68 165 636 C163.02 636.99 161.04 637.98 159 639 C159.33 637.68 159.66 636.36 160 635 C159.236875 635.37125 158.47375 635.7425 157.6875 636.125 C156.800625 636.41375 155.91375 636.7025 155 637 C154.01 636.34 153.02 635.68 152 635 C152 634.34 152 633.68 152 633 C149.69 632.67 147.38 632.34 145 632 C145 631.01 145 630.02 145 629 C144.13375 628.814375 144.13375 628.814375 143.25 628.625 C141 628 141 628 139.0625 626.875 C136.37796466 625.73610622 134.79584297 626.41140148 132 627 C131.34 626.34 130.68 625.68 130 625 C130 623.68 130 622.36 130 621 C129.01 621 128.02 621 127 621 C126.67 620.34 126.34 619.68 126 619 C124.35 619.33 122.7 619.66 121 620 C120.505 618.515 120.505 618.515 120 617 C118.68352881 616.30062468 117.34977849 615.63270867 116 615 C115.67 614.34 115.34 613.68 115 613 C114.01 613 113.02 613 112 613 C111.34 611.68 110.68 610.36 110 609 C109.67 609.66 109.34 610.32 109 611 C107 610 107 610 106 608 C105.34 608 104.68 608 104 608 C104 606.02 104 604.04 104 602 C102.68 601.67 101.36 601.34 100 601 C100 600.34 100 599.68 100 599 C98.68 599.33 97.36 599.66 96 600 C95.01 598.515 95.01 598.515 94 597 C93.34 596.67 92.68 596.34 92 596 C92 595.01 92 594.02 92 593 C88.535 591.515 88.535 591.515 85 590 C85.99 589.34 86.98 588.68 88 588 C87.34 587.67 86.68 587.34 86 587 C86 585.68 86 584.36 86 583 C84.02 583 82.04 583 80 583 C80 581.35 80 579.7 80 578 C78.68 577.67 77.36 577.34 76 577 C76.99 577 77.98 577 79 577 C77.86695008 573.60085025 76.87481525 572.94745549 74 571 C74.33 570.34 74.66 569.68 75 569 C74.34 569 73.68 569 73 569 C72.7525 568.29875 72.505 567.5975 72.25 566.875 C70.4565595 562.75008686 68.1843812 559.1843812 65 556 C64.855625 555.175 64.71125 554.35 64.5625 553.5 C64.2234444 550.65063471 64.2234444 550.65063471 61 549 C61.495 546.525 61.495 546.525 62 544 C61.34 543.67 60.68 543.34 60 543 C59.27306096 541.02111039 58.60183749 539.02045442 58 537 C58 537.66 58 538.32 58 539 C57.34 538.67 56.68 538.34 56 538 C55.7834375 536.2984375 55.7834375 536.2984375 55.5625 534.5625 C55.376875 533.386875 55.19125 532.21125 55 531 C54.01 530.34 53.02 529.68 52 529 C52.66 528.67 53.32 528.34 54 528 C54.1066974 526.72125304 54.1066974 526.72125304 52.4375 525.125 C51.963125 524.42375 51.48875 523.7225 51 523 C52 520 52 520 54 518 C53.16666667 515.83333333 53.16666667 515.83333333 51 515 C50.4375 513.125 50.4375 513.125 50 511 C49.505 509.515 49.505 509.515 49 508 C49.33 507.34 49.66 506.68 50 506 C49.34 505.67 48.68 505.34 48 505 C48.99 505 49.98 505 51 505 C50.67 504.401875 50.34 503.80375 50 503.1875 C49 501 49 501 49 498 C47.68 497.67 46.36 497.34 45 497 C45.66 496.01 46.32 495.02 47 494 C46.70740515 491.99363529 46.37366113 489.99285937 46 488 C46.33 487.01 46.66 486.02 47 485 C45.62831762 482.80961577 45.62831762 482.80961577 44 481 C44.66 481 45.32 481 46 481 C45.16666667 478.83333333 45.16666667 478.83333333 43 478 C43.66 477.01 44.32 476.02 45 475 C44.34 474.67 43.68 474.34 43 474 C43.66 472.68 44.32 471.36 45 470 C45.66 470 46.32 470 47 470 C46.34 469.01 45.68 468.02 45 467 C44.34 467.33 43.68 467.66 43 468 C44.20381448 465.50638429 45.45428722 463.31856917 47 461 C46.525625 460.67 46.05125 460.34 45.5625 460 C43.14966799 456.91157502 43.3689428 453.87389935 43 450 C42.67 449.34 42.34 448.68 42 448 C42.99 447.67 43.98 447.34 45 447 C45 446.34 45 445.68 45 445 C45.66 445 46.32 445 47 445 C47 444.01 47 443.02 47 442 C46.34 442 45.68 442 45 442 C44.67 442.66 44.34 443.32 44 444 C44.2784375 443.1646875 44.2784375 443.1646875 44.5625 442.3125 C45.15591602 439.96712418 45.15591602 439.96712418 44.5 437.5 C43.97375295 434.86876477 43.94655475 433.45803892 45 431 C45.99 430.67 46.98 430.34 48 430 C47.34 429.34 46.68 428.68 46 428 C46 426.68 46 425.36 46 424 C45.34 423.67 44.68 423.34 44 423 C44.185625 422.38125 44.37125 421.7625 44.5625 421.125 C45.23686176 418.95839822 45.23686176 418.95839822 44 417 C44.33 416.34 44.66 415.68 45 415 C45.66 415 46.32 415 47 415 C47.33 414.01 47.66 413.02 48 412 C47.34 411.67 46.68 411.34 46 411 C44.64697836 408.05518821 43.75809095 405.14066251 43 402 C42.67 401.34 42.34 400.68 42 400 C41.67 399.34 41.34 398.68 41 398 C42.32 397.67 43.64 397.34 45 397 C44.67 396.34 44.34 395.68 44 395 C44 394.67 44 394.34 44 394 C43.34 393.01 42.68 392.02 42 391 C42 391.99 42 392.98 42 394 C40.35 394 38.7 394 37 394 C37.33 395.32 37.66 396.64 38 398 C37.34 397.67 36.68 397.34 36 397 C36 396.01 36 395.02 36 394 C35.01 393.67 34.02 393.34 33 393 C34.65 392.34 36.3 391.68 38 391 C38 390.01 38 389.02 38 388 C37.01 387.34 36.02 386.68 35 386 C35.33 385.67 35.66 385.34 36 385 C35.34 385 34.68 385 34 385 C34 385.66 34 386.32 34 387 C33.67 387.33 33.34 387.66 33 388 C33 388.99 33 389.98 33 391 C29.125 388.375 29.125 388.375 28 385 C29.4375 382.3125 29.4375 382.3125 31 380 C29.68 380.33 28.36 380.66 27 381 C27.33 381.66 27.66 382.32 28 383 C26.02 383 24.04 383 22 383 C22 382.01 22 381.02 22 380 C19.21885944 377.66608797 19.21885944 377.66608797 16.3125 378.375 C15.549375 378.58125 14.78625 378.7875 14 379 C14.495 380.485 14.495 380.485 15 382 C14.34 382 13.68 382 13 382 C13 382.99 13 383.98 13 385 C12.34 384.67 11.68 384.34 11 384 C11 383.67 11 383.34 11 383 C10.01 383.33 9.02 383.66 8 384 C5.40354757 382.9451912 3.34536388 381.56357592 1 380 C-19.82394383 255.05633702 0 126.66710526 0 0 Z M5 374 C5.33 374.66 5.66 375.32 6 376 C6.33 375.34 6.66 374.68 7 374 C6.34 374 5.68 374 5 374 Z M4 376 C5 378 5 378 5 378 Z M7 378 C7.99 379.485 7.99 379.485 9 381 C9 380.01 9 379.02 9 378 C8.34 378 7.68 378 7 378 Z M32 379 C33 381 33 381 33 381 Z M34 381 C34 381.99 34 382.98 34 384 C34.33 383.34 34.66 382.68 35 382 C35.66 381.67 36.32 381.34 37 381 C36.01 381 35.02 381 34 381 Z M40 381 C41 383 41 383 41 383 Z M43 387 C43 387.99 43 388.98 43 390 C43.66 389.67 44.32 389.34 45 389 C44.34 388.34 43.68 387.68 43 387 Z M46 387 C46 387.66 46 388.32 46 389 C46.66 388.67 47.32 388.34 48 388 C47.34 387.67 46.68 387.34 46 387 Z M47 396 C47.33 396.66 47.66 397.32 48 398 C48.33 397.34 48.66 396.68 49 396 C48.34 396 47.68 396 47 396 Z M45 398 C46 400 46 400 46 400 Z M46 402 C45.67 402.66 45.34 403.32 45 404 C45.33 404.66 45.66 405.32 46 406 C46.66 405.67 47.32 405.34 48 405 C48.33 404.01 48.66 403.02 49 402 C48.01 402 47.02 402 46 402 Z M52 408 C53 410 53 410 53 410 Z M46 435 C46 435.66 46 436.32 46 437 C46.66 436.67 47.32 436.34 48 436 C47.34 435.67 46.68 435.34 46 435 Z M151 629 C150.67 629.66 150.34 630.32 150 631 C150.66 631 151.32 631 152 631 C151.67 630.34 151.34 629.68 151 629 Z M154 631 C153.67 631.66 153.34 632.32 153 633 C154.32 633 155.64 633 157 633 C156.67 632.34 156.34 631.68 156 631 C155.34 631 154.68 631 154 631 Z M174 636 C175 638 175 638 175 638 Z M173 638 C172.67 638.99 172.34 639.98 172 641 C172.99 641 173.98 641 175 641 C174.67 640.01 174.34 639.02 174 638 C173.67 638 173.34 638 173 638 Z M187 646 C187.33 646.66 187.66 647.32 188 648 C188.99 647.34 189.98 646.68 191 646 C189.68 646 188.36 646 187 646 Z M194 647 C195 649 195 649 195 649 Z M198 647 C199 649 199 649 199 649 Z M200 649 C199.34 649.66 198.68 650.32 198 651 C198.99 651.33 199.98 651.66 201 652 C200.67 651.01 200.34 650.02 200 649 Z M203 651 C203.33 651.66 203.66 652.32 204 653 C204.33 652.34 204.66 651.68 205 651 C204.34 651 203.68 651 203 651 Z M207 651 C207.33 651.66 207.66 652.32 208 653 C208.33 652.34 208.66 651.68 209 651 C208.34 651 207.68 651 207 651 Z M201 652 C202 654 202 654 202 654 Z M211 656 C211.33 656.99 211.66 657.98 212 659 C212.33 658.01 212.66 657.02 213 656 C212.34 656 211.68 656 211 656 Z M224 662 C225 664 225 664 225 664 Z M229 679 C230 681 230 681 230 681 Z M236 687 C237 689 237 689 237 689 Z M238 687 C239 689 239 689 239 689 Z M232 691 C233 693 233 693 233 693 Z M15 698 C15.66 699.32 16.32 700.64 17 702 C17 700.68 17 699.36 17 698 C16.34 698 15.68 698 15 698 Z M6 699 C7 702 7 702 7 702 Z M23 700 C22.67 700.66 22.34 701.32 22 702 C22.66 702 23.32 702 24 702 C23.67 701.34 23.34 700.68 23 700 Z M240 707 C241 709 241 709 241 709 Z M59 710 C60 712 60 712 60 712 Z M62 711 C63 713 63 713 63 713 Z M241 712 C242 714 242 714 242 714 Z M76 713 C76.33 713.99 76.66 714.98 77 716 C77.33 715.01 77.66 714.02 78 713 C77.34 713 76.68 713 76 713 Z M64 714 C64.33 714.99 64.66 715.98 65 717 C65 716.01 65 715.02 65 714 C64.67 714 64.34 714 64 714 Z M83 717 C84 719 84 719 84 719 Z M77 719 C78 721 78 721 78 721 Z M101 722 C102 724 102 724 102 724 Z M106 724 C106 724.66 106 725.32 106 726 C106.66 725.67 107.32 725.34 108 725 C107.34 724.67 106.68 724.34 106 724 Z M100 725 C101 727 101 727 101 727 Z M113 725 C114 727 114 727 114 727 Z M116 726 C117.485 726.99 117.485 726.99 119 728 C119 727.34 119 726.68 119 726 C118.01 726 117.02 726 116 726 Z M122 727 C121.34 727.66 120.68 728.32 120 729 C121.89179203 729.6814823 121.89179203 729.6814823 124 730 C124.66 729.34 125.32 728.68 126 728 C124.10820797 727.3185177 124.10820797 727.3185177 122 727 Z M204 727 C204.66 727.66 205.32 728.32 206 729 C206.33 728.34 206.66 727.68 207 727 C206.01 727 205.02 727 204 727 Z M200 728 C200 728.66 200 729.32 200 730 C200.66 729.67 201.32 729.34 202 729 C201.34 728.67 200.68 728.34 200 728 Z M227 728 C228 730 228 730 228 730 Z M133 730 C134 732 134 732 134 732 Z M123 731 C124 733 124 733 124 733 Z M118 732 C119 734 119 734 119 734 Z M126 732 C127 734 127 734 127 734 Z M144 732 C145 734 145 734 145 734 Z M182 732 C183 734 183 734 183 734 Z M188 732 C189 736 189 736 189 736 Z M186 733 C186 736 186 736 186 736 Z M168 734 C167.67 734.66 167.34 735.32 167 736 C167.66 736 168.32 736 169 736 C168.67 735.34 168.34 734.68 168 734 Z " fill="#000000" transform="translate(0,0)"/>
<path d="M0 0 C0.99 0.33 1.98 0.66 3 1 C2.34 2.65 1.68 4.3 1 6 C-0.32 5.01 -1.64 4.02 -3 3 C-2.01 2.01 -1.02 1.02 0 0 Z " fill="#000000" transform="translate(195,722)"/>
</svg>
